%TF.GenerationSoftware,KiCad,Pcbnew,10.0.6*%
%TF.CreationDate,2026-09-26T03:12:19+02:00*%
%TF.ProjectId,E80-900M2213S_SE050_Breakout,4538302d-3930-4304-9d32-323133535f53,rev?*%
%TF.SameCoordinates,Original*%
%TF.FileFunction,Copper,L2,Bot*%
%TF.FilePolarity,Positive*%
%FSLAX46Y46*%
G04 Gerber Fmt 4.6, Leading zero omitted, Abs format (unit mm)*
G04 Created by KiCad (PCBNEW 10.0.6) date 2026-09-26 03:12:19*
%MOMM*%
%LPD*%
G01*
G04 APERTURE LIST*
%TA.AperFunction,ComponentPad*%
%ADD10R,1.350000X1.350000*%
%TD*%
%TA.AperFunction,ComponentPad*%
%ADD11C,1.350000*%
%TD*%
%TA.AperFunction,ComponentPad*%
%ADD12C,0.800000*%
%TD*%
%TA.AperFunction,ComponentPad*%
%ADD13C,5.400000*%
%TD*%
%TA.AperFunction,ComponentPad*%
%ADD14C,2.000000*%
%TD*%
%TA.AperFunction,ComponentPad*%
%ADD15C,2.500000*%
%TD*%
%TA.AperFunction,ViaPad*%
%ADD16C,0.600000*%
%TD*%
%TA.AperFunction,Conductor*%
%ADD17C,0.300000*%
%TD*%
G04 APERTURE END LIST*
D10*
%TO.P,J1,1,Pin_1_1*%
%TO.N,+3.3V*%
X111100000Y-48910000D03*
D11*
%TO.P,J1,2,Pin_2_2*%
%TO.N,LMISO*%
X111100000Y-50910000D03*
%TO.P,J1,3,Pin_3_3*%
%TO.N,LMOSI*%
X111100000Y-52910000D03*
%TO.P,J1,4,Pin_4_4*%
%TO.N,LSCK*%
X111100000Y-54910000D03*
%TO.P,J1,5,Pin_5_5*%
%TO.N,LNSS*%
X111100000Y-56910000D03*
%TO.P,J1,6,Pin_6_6*%
%TO.N,LBUSY*%
X111100000Y-58910000D03*
%TO.P,J1,7,Pin_7_7*%
%TO.N,LDI09*%
X111100000Y-60910000D03*
%TO.P,J1,8,Pin_8_8*%
%TO.N,LNRST*%
X111100000Y-62910000D03*
%TO.P,J1,9,Pin_9_9*%
%TO.N,SE_ENA*%
X111100000Y-64910000D03*
%TO.P,J1,10,Pin_10_10*%
%TO.N,SDA*%
X111100000Y-66910000D03*
%TO.P,J1,11,Pin_11_11*%
%TO.N,SCL*%
X111100000Y-68910000D03*
%TO.P,J1,12,Pin_12_12*%
%TO.N,GND*%
X111100000Y-70910000D03*
%TD*%
D12*
%TO.P,H2,1,1_1*%
%TO.N,GND*%
X154935000Y-44090000D03*
X155528109Y-42658109D03*
X155528109Y-45521891D03*
X156960000Y-42065000D03*
D13*
X156960000Y-44090000D03*
D12*
X156960000Y-46115000D03*
X158391891Y-42658109D03*
X158391891Y-45521891D03*
X158985000Y-44090000D03*
%TD*%
%TO.P,H1,1,1_1*%
%TO.N,GND*%
X96475000Y-43940000D03*
X97068109Y-42508109D03*
X97068109Y-45371891D03*
X98500000Y-41915000D03*
D13*
X98500000Y-43940000D03*
D12*
X98500000Y-45965000D03*
X99931891Y-42508109D03*
X99931891Y-45371891D03*
X100525000Y-43940000D03*
%TD*%
D14*
%TO.P,SMA1,1,SIG_1*%
%TO.N,Net-(SMA1-SIG)*%
X118530000Y-85130000D03*
D15*
%TO.P,SMA1,2,GND_2*%
%TO.N,GND*%
X115980000Y-87680000D03*
%TO.P,SMA1,3,GND_3*%
X121080000Y-87680000D03*
%TO.P,SMA1,4,GND_4*%
X121080000Y-82580000D03*
%TO.P,SMA1,5,GND_5*%
X115980000Y-82580000D03*
%TD*%
D12*
%TO.P,H4,1,1_1*%
%TO.N,GND*%
X154935000Y-84260000D03*
X155528109Y-82828109D03*
X155528109Y-85691891D03*
X156960000Y-82235000D03*
D13*
X156960000Y-84260000D03*
D12*
X156960000Y-86285000D03*
X158391891Y-82828109D03*
X158391891Y-85691891D03*
X158985000Y-84260000D03*
%TD*%
D14*
%TO.P,SMA2,1,SIG_1*%
%TO.N,Net-(SMA2-SIG)*%
X148290000Y-85130000D03*
D15*
%TO.P,SMA2,2,GND_2*%
%TO.N,GND*%
X145740000Y-87680000D03*
%TO.P,SMA2,3,GND_3*%
X150840000Y-87680000D03*
%TO.P,SMA2,4,GND_4*%
X150840000Y-82580000D03*
%TO.P,SMA2,5,GND_5*%
X145740000Y-82580000D03*
%TD*%
D12*
%TO.P,H3,1,1_1*%
%TO.N,GND*%
X97936891Y-84110000D03*
X98530000Y-82678109D03*
X98530000Y-85541891D03*
X99961891Y-82085000D03*
D13*
X99961891Y-84110000D03*
D12*
X99961891Y-86135000D03*
X101393782Y-82678109D03*
X101393782Y-85541891D03*
X101986891Y-84110000D03*
%TD*%
D16*
%TO.N,+3.3V*%
X96045000Y-68645000D03*
X100642500Y-59300000D03*
%TO.N,LNRST*%
X142630000Y-59420000D03*
%TO.N,SDA*%
X98790000Y-66910000D03*
%TO.N,GND*%
X93990000Y-60755477D03*
X120820000Y-72810000D03*
X154260000Y-77200000D03*
X149910000Y-78470000D03*
X145720000Y-79560000D03*
X105205000Y-41550000D03*
X141880000Y-76000000D03*
X140460000Y-78240000D03*
X144850000Y-72800000D03*
X109260000Y-65810000D03*
X149910000Y-79610000D03*
X150850000Y-76510000D03*
X150810000Y-75480000D03*
X141540000Y-45330000D03*
X143880000Y-77090000D03*
X149910000Y-77470000D03*
X150860000Y-78510000D03*
X149030000Y-41550000D03*
X111190000Y-72690000D03*
X118460000Y-73510000D03*
X145920000Y-85160000D03*
X120110000Y-79840000D03*
X104010000Y-52620000D03*
X135882500Y-41550000D03*
X148070000Y-72150000D03*
X98660000Y-78570000D03*
X116800000Y-77560000D03*
X143850000Y-72800000D03*
X93990000Y-46392347D03*
X122820000Y-72810000D03*
X133660000Y-87710000D03*
X121030000Y-78610000D03*
X125480000Y-87710000D03*
X112970000Y-53880000D03*
X124550000Y-78240000D03*
X146640000Y-79560000D03*
X145800000Y-76030000D03*
X142880000Y-77060000D03*
X129880000Y-52680000D03*
X116810000Y-78560000D03*
X158260000Y-67210000D03*
X119350000Y-87430000D03*
X154440000Y-87570000D03*
X150460000Y-74390000D03*
X146640000Y-78560000D03*
X146000000Y-85870000D03*
X117050000Y-75410000D03*
X122880000Y-75950000D03*
X112920000Y-65880000D03*
X93990000Y-83466870D03*
X109260000Y-50850000D03*
X145710000Y-77560000D03*
X118352500Y-41550000D03*
X149170000Y-72700000D03*
X102250000Y-58960000D03*
X93990000Y-49983130D03*
X133040000Y-52660000D03*
X116800000Y-76560000D03*
X153412500Y-41550000D03*
X115850000Y-75520000D03*
X138940000Y-53000000D03*
X142970000Y-43270000D03*
X115860000Y-78520000D03*
X142830000Y-71750000D03*
X144647500Y-41550000D03*
X116100000Y-74370000D03*
X117800000Y-87430000D03*
X109260000Y-52900000D03*
X120110000Y-78610000D03*
X130890000Y-68470000D03*
X98970000Y-63740000D03*
X96797500Y-60647500D03*
X120130000Y-80940000D03*
X150860000Y-79510000D03*
X129570000Y-87710000D03*
X125090000Y-45300000D03*
X109340000Y-70820000D03*
X134870000Y-65530000D03*
X112940000Y-62070000D03*
X142000000Y-87650000D03*
X138670000Y-71570000D03*
X112940000Y-59970000D03*
X93990000Y-79876088D03*
X146970000Y-71790000D03*
X148420000Y-73500000D03*
X149810000Y-75490000D03*
X109587500Y-41550000D03*
X143830000Y-71780000D03*
X121820000Y-72810000D03*
X158260000Y-54684000D03*
X98390000Y-87830000D03*
X134850000Y-68470000D03*
X133040000Y-57713333D03*
X146640000Y-80700000D03*
X133040000Y-55186667D03*
X138960000Y-61960000D03*
X99300000Y-57090000D03*
X93990000Y-76285306D03*
X150850000Y-77510000D03*
X112970000Y-71040000D03*
X120100000Y-77610000D03*
X126950000Y-65530000D03*
X112540000Y-78570000D03*
X118080000Y-72490000D03*
X143010000Y-56920000D03*
X149890000Y-73520000D03*
X158260000Y-73473000D03*
X133040000Y-60240000D03*
X124440000Y-63860000D03*
X93990000Y-64346259D03*
X121030000Y-79610000D03*
X128527500Y-78240000D03*
X130910000Y-65530000D03*
X146670000Y-77530000D03*
X126350000Y-57530000D03*
X138810000Y-68470000D03*
X121030000Y-80750000D03*
X129880000Y-57733333D03*
X126330000Y-52720000D03*
X145720000Y-78560000D03*
X153050000Y-51490000D03*
X113970000Y-41550000D03*
X124450000Y-51760000D03*
X109330000Y-67890000D03*
X144290000Y-45380000D03*
X145770000Y-72800000D03*
X115860000Y-77520000D03*
X109290000Y-54910000D03*
X144830000Y-71780000D03*
X126330000Y-55100000D03*
X122820000Y-71850000D03*
X121000000Y-85090000D03*
X116290000Y-84320000D03*
X118580000Y-87590000D03*
X144880000Y-77090000D03*
X150590000Y-84350000D03*
X142880000Y-76000000D03*
X105560000Y-87820000D03*
X138570000Y-45300000D03*
X149080000Y-87440000D03*
X112940000Y-63920000D03*
X112950000Y-67860000D03*
X115860000Y-79660000D03*
X138830000Y-65530000D03*
X141880000Y-77060000D03*
X126930000Y-68470000D03*
X119600000Y-72980000D03*
X120780000Y-71830000D03*
X120830000Y-84320000D03*
X158260000Y-48421000D03*
X116810000Y-73410000D03*
X147000000Y-72870000D03*
X120890000Y-85920000D03*
X141940000Y-61980000D03*
X144060000Y-56010000D03*
X116170000Y-85180000D03*
X93990000Y-67937042D03*
X153050000Y-62190000D03*
X103480000Y-60340000D03*
X149430000Y-74470000D03*
X116830000Y-79790000D03*
X121880000Y-75950000D03*
X146650000Y-76590000D03*
X119430000Y-72020000D03*
X141850000Y-72770000D03*
X116910000Y-81030000D03*
X129880000Y-60260000D03*
X109840000Y-45300000D03*
X134710000Y-71570000D03*
X121880000Y-77010000D03*
X116260000Y-85930000D03*
X115850000Y-76520000D03*
X158260000Y-79736000D03*
X112480000Y-87690000D03*
X126790000Y-71570000D03*
X158260000Y-60947000D03*
X145750000Y-71780000D03*
X145720000Y-80700000D03*
X115870000Y-80710000D03*
X104310000Y-47350000D03*
X109280000Y-58840000D03*
X150860000Y-80650000D03*
X117640000Y-74280000D03*
X136482500Y-78240000D03*
X120880000Y-75990000D03*
X109260000Y-56930000D03*
X141830000Y-71750000D03*
X106530000Y-63930000D03*
X109350000Y-60860000D03*
X122880000Y-77010000D03*
X148310000Y-87590000D03*
X113020000Y-51930000D03*
X149910000Y-80610000D03*
X103490000Y-61930000D03*
X140590000Y-63470000D03*
X143880000Y-76030000D03*
X121060000Y-77580000D03*
X140600000Y-51930000D03*
X103560000Y-63680000D03*
X105440000Y-62750000D03*
X109270000Y-63930000D03*
X142850000Y-72770000D03*
X105600000Y-78570000D03*
X130750000Y-71570000D03*
X93990000Y-57164694D03*
X146010000Y-84340000D03*
X94110000Y-87590000D03*
X150620000Y-85910000D03*
X137750000Y-87710000D03*
X112970000Y-57870000D03*
X127117500Y-41550000D03*
X122860000Y-53010000D03*
X99090000Y-52360000D03*
X93990000Y-42801565D03*
X121800000Y-71860000D03*
X129880000Y-55206667D03*
X120220000Y-76600000D03*
X147550000Y-87470000D03*
X131500000Y-41550000D03*
X93990000Y-53573912D03*
X113000000Y-55890000D03*
X132505000Y-78240000D03*
X140265000Y-41550000D03*
X149900000Y-76470000D03*
X150750000Y-85110000D03*
X126470000Y-60310000D03*
X144880000Y-76030000D03*
X122735000Y-41550000D03*
%TO.N,LDI09*%
X142630000Y-58150000D03*
%TD*%
%TO.N,+3.3V*%
D17*
X100642500Y-60397500D02*
X95660000Y-65380000D01*
X95660000Y-65380000D02*
X95660000Y-68260000D01*
X95660000Y-68260000D02*
X96045000Y-68645000D01*
X100642500Y-59300000D02*
X100642500Y-60397500D01*
%TO.N,LNRST*%
X138890000Y-59420000D02*
X135400000Y-62910000D01*
X135400000Y-62910000D02*
X111100000Y-62910000D01*
X142630000Y-59420000D02*
X138890000Y-59420000D01*
%TO.N,SDA*%
X111100000Y-66910000D02*
X98790000Y-66910000D01*
%TO.N,LDI09*%
X111510000Y-61320000D02*
X111100000Y-60910000D01*
X135100000Y-61320000D02*
X111510000Y-61320000D01*
X142630000Y-58150000D02*
X138270000Y-58150000D01*
X138270000Y-58150000D02*
X135100000Y-61320000D01*
%TD*%
%TA.AperFunction,Conductor*%
%TO.N,GND*%
G36*
X135187231Y-61990185D02*
G01*
X135232986Y-62042989D01*
X135242930Y-62112147D01*
X135213905Y-62175703D01*
X135207873Y-62182181D01*
X135166873Y-62223181D01*
X135105550Y-62256666D01*
X135079192Y-62259500D01*
X112143563Y-62259500D01*
X112076524Y-62239815D01*
X112043246Y-62208387D01*
X112024206Y-62182181D01*
X112013456Y-62167384D01*
X111989976Y-62101581D01*
X112005801Y-62033526D01*
X112055906Y-61984831D01*
X112113774Y-61970500D01*
X135120192Y-61970500D01*
X135187231Y-61990185D01*
G37*
%TD.AperFunction*%
%TA.AperFunction,Conductor*%
G36*
X159930394Y-40060972D02*
G01*
X159960721Y-40063625D01*
X160087755Y-40074739D01*
X160109035Y-40078491D01*
X160226188Y-40109882D01*
X160256369Y-40117969D01*
X160276681Y-40125362D01*
X160414915Y-40189822D01*
X160433633Y-40200629D01*
X160558582Y-40288119D01*
X160575140Y-40302013D01*
X160682986Y-40409859D01*
X160696880Y-40426417D01*
X160784370Y-40551366D01*
X160795177Y-40570084D01*
X160859637Y-40708318D01*
X160867030Y-40728630D01*
X160906507Y-40875961D01*
X160910260Y-40897246D01*
X160924028Y-41054605D01*
X160924500Y-41065413D01*
X160924500Y-89804586D01*
X160924028Y-89815394D01*
X160910260Y-89972753D01*
X160906507Y-89994038D01*
X160867030Y-90141369D01*
X160859637Y-90161681D01*
X160795177Y-90299915D01*
X160784370Y-90318633D01*
X160696880Y-90443582D01*
X160682986Y-90460140D01*
X160575140Y-90567986D01*
X160558582Y-90581880D01*
X160433633Y-90669370D01*
X160414915Y-90680177D01*
X160353447Y-90708840D01*
X160301257Y-90720458D01*
X109061488Y-90809500D01*
X94060413Y-90809500D01*
X94049605Y-90809028D01*
X93892246Y-90795260D01*
X93870961Y-90791507D01*
X93723630Y-90752030D01*
X93703318Y-90744637D01*
X93565084Y-90680177D01*
X93546366Y-90669370D01*
X93421417Y-90581880D01*
X93404859Y-90567986D01*
X93297013Y-90460140D01*
X93283119Y-90443582D01*
X93195629Y-90318633D01*
X93184822Y-90299915D01*
X93120362Y-90161681D01*
X93112969Y-90141369D01*
X93073492Y-89994038D01*
X93069739Y-89972752D01*
X93055972Y-89815393D01*
X93055500Y-89804586D01*
X93055500Y-84998872D01*
X116529500Y-84998872D01*
X116529500Y-85261127D01*
X116556123Y-85463339D01*
X116563730Y-85521116D01*
X116631602Y-85774418D01*
X116631605Y-85774428D01*
X116731953Y-86016690D01*
X116731958Y-86016700D01*
X116863075Y-86243803D01*
X117022718Y-86451851D01*
X117022726Y-86451860D01*
X117208140Y-86637274D01*
X117208148Y-86637281D01*
X117416196Y-86796924D01*
X117643299Y-86928041D01*
X117643309Y-86928046D01*
X117885571Y-87028394D01*
X117885581Y-87028398D01*
X118138884Y-87096270D01*
X118398880Y-87130500D01*
X118398887Y-87130500D01*
X118661113Y-87130500D01*
X118661120Y-87130500D01*
X118921116Y-87096270D01*
X119174419Y-87028398D01*
X119416697Y-86928043D01*
X119643803Y-86796924D01*
X119851851Y-86637282D01*
X119851855Y-86637277D01*
X119851860Y-86637274D01*
X120037274Y-86451860D01*
X120037277Y-86451855D01*
X120037282Y-86451851D01*
X120196924Y-86243803D01*
X120328043Y-86016697D01*
X120428398Y-85774419D01*
X120496270Y-85521116D01*
X120530500Y-85261120D01*
X120530500Y-84998880D01*
X120530499Y-84998872D01*
X146289500Y-84998872D01*
X146289500Y-85261127D01*
X146316123Y-85463339D01*
X146323730Y-85521116D01*
X146391602Y-85774418D01*
X146391605Y-85774428D01*
X146491953Y-86016690D01*
X146491958Y-86016700D01*
X146623075Y-86243803D01*
X146782718Y-86451851D01*
X146782726Y-86451860D01*
X146968140Y-86637274D01*
X146968148Y-86637281D01*
X147176196Y-86796924D01*
X147403299Y-86928041D01*
X147403309Y-86928046D01*
X147645571Y-87028394D01*
X147645581Y-87028398D01*
X147898884Y-87096270D01*
X148158880Y-87130500D01*
X148158887Y-87130500D01*
X148421113Y-87130500D01*
X148421120Y-87130500D01*
X148681116Y-87096270D01*
X148934419Y-87028398D01*
X149176697Y-86928043D01*
X149403803Y-86796924D01*
X149611851Y-86637282D01*
X149611855Y-86637277D01*
X149611860Y-86637274D01*
X149797274Y-86451860D01*
X149797277Y-86451855D01*
X149797282Y-86451851D01*
X149956924Y-86243803D01*
X150088043Y-86016697D01*
X150188398Y-85774419D01*
X150256270Y-85521116D01*
X150290500Y-85261120D01*
X150290500Y-84998880D01*
X150256270Y-84738884D01*
X150188398Y-84485581D01*
X150188394Y-84485571D01*
X150088046Y-84243309D01*
X150088041Y-84243299D01*
X149956924Y-84016196D01*
X149797281Y-83808148D01*
X149797274Y-83808140D01*
X149611860Y-83622726D01*
X149611851Y-83622718D01*
X149403803Y-83463075D01*
X149176700Y-83331958D01*
X149176690Y-83331953D01*
X148934428Y-83231605D01*
X148934421Y-83231603D01*
X148934419Y-83231602D01*
X148681116Y-83163730D01*
X148623339Y-83156123D01*
X148421127Y-83129500D01*
X148421120Y-83129500D01*
X148158880Y-83129500D01*
X148158872Y-83129500D01*
X147927772Y-83159926D01*
X147898884Y-83163730D01*
X147645581Y-83231602D01*
X147645571Y-83231605D01*
X147403309Y-83331953D01*
X147403299Y-83331958D01*
X147176196Y-83463075D01*
X146968148Y-83622718D01*
X146782718Y-83808148D01*
X146623075Y-84016196D01*
X146491958Y-84243299D01*
X146491953Y-84243309D01*
X146391605Y-84485571D01*
X146391602Y-84485581D01*
X146323730Y-84738885D01*
X146289500Y-84998872D01*
X120530499Y-84998872D01*
X120496270Y-84738884D01*
X120428398Y-84485581D01*
X120428394Y-84485571D01*
X120328046Y-84243309D01*
X120328041Y-84243299D01*
X120196924Y-84016196D01*
X120037281Y-83808148D01*
X120037274Y-83808140D01*
X119851860Y-83622726D01*
X119851851Y-83622718D01*
X119643803Y-83463075D01*
X119416700Y-83331958D01*
X119416690Y-83331953D01*
X119174428Y-83231605D01*
X119174421Y-83231603D01*
X119174419Y-83231602D01*
X118921116Y-83163730D01*
X118863339Y-83156123D01*
X118661127Y-83129500D01*
X118661120Y-83129500D01*
X118398880Y-83129500D01*
X118398872Y-83129500D01*
X118167772Y-83159926D01*
X118138884Y-83163730D01*
X117885581Y-83231602D01*
X117885571Y-83231605D01*
X117643309Y-83331953D01*
X117643299Y-83331958D01*
X117416196Y-83463075D01*
X117208148Y-83622718D01*
X117022718Y-83808148D01*
X116863075Y-84016196D01*
X116731958Y-84243299D01*
X116731953Y-84243309D01*
X116631605Y-84485571D01*
X116631602Y-84485581D01*
X116563730Y-84738885D01*
X116529500Y-84998872D01*
X93055500Y-84998872D01*
X93055500Y-68324071D01*
X95009499Y-68324071D01*
X95026892Y-68411503D01*
X95026892Y-68411504D01*
X95034496Y-68449737D01*
X95034498Y-68449742D01*
X95038236Y-68458765D01*
X95083535Y-68568127D01*
X95154723Y-68674669D01*
X95227984Y-68747929D01*
X95261469Y-68809252D01*
X95261920Y-68811420D01*
X95275261Y-68878489D01*
X95275264Y-68878501D01*
X95335602Y-69024172D01*
X95335609Y-69024185D01*
X95423210Y-69155288D01*
X95423213Y-69155292D01*
X95534707Y-69266786D01*
X95534711Y-69266789D01*
X95665814Y-69354390D01*
X95665827Y-69354397D01*
X95811498Y-69414735D01*
X95811503Y-69414737D01*
X95966153Y-69445499D01*
X95966156Y-69445500D01*
X95966158Y-69445500D01*
X96123844Y-69445500D01*
X96123845Y-69445499D01*
X96278497Y-69414737D01*
X96407663Y-69361235D01*
X96424172Y-69354397D01*
X96424172Y-69354396D01*
X96424179Y-69354394D01*
X96555289Y-69266789D01*
X96666789Y-69155289D01*
X96754394Y-69024179D01*
X96814737Y-68878497D01*
X96845500Y-68723842D01*
X96845500Y-68566158D01*
X96845500Y-68566155D01*
X96845499Y-68566153D01*
X96824138Y-68458764D01*
X96814737Y-68411503D01*
X96778521Y-68324069D01*
X96754397Y-68265827D01*
X96754390Y-68265814D01*
X96666789Y-68134711D01*
X96666786Y-68134707D01*
X96555292Y-68023213D01*
X96555288Y-68023210D01*
X96424185Y-67935609D01*
X96424175Y-67935604D01*
X96387047Y-67920225D01*
X96332644Y-67876384D01*
X96310579Y-67810089D01*
X96310500Y-67805664D01*
X96310500Y-66831153D01*
X97989500Y-66831153D01*
X97989500Y-66988846D01*
X98020261Y-67143489D01*
X98020264Y-67143501D01*
X98080602Y-67289172D01*
X98080609Y-67289185D01*
X98168210Y-67420288D01*
X98168213Y-67420292D01*
X98279707Y-67531786D01*
X98279711Y-67531789D01*
X98410814Y-67619390D01*
X98410827Y-67619397D01*
X98556498Y-67679735D01*
X98556503Y-67679737D01*
X98711153Y-67710499D01*
X98711156Y-67710500D01*
X98711158Y-67710500D01*
X98868844Y-67710500D01*
X98868845Y-67710499D01*
X99023497Y-67679737D01*
X99169179Y-67619394D01*
X99226044Y-67581397D01*
X99292721Y-67560520D01*
X99294935Y-67560500D01*
X110056437Y-67560500D01*
X110123476Y-67580185D01*
X110156753Y-67611612D01*
X110203379Y-67675787D01*
X110334213Y-67806621D01*
X110338421Y-67809678D01*
X110338432Y-67809686D01*
X110381094Y-67865019D01*
X110387069Y-67934633D01*
X110354459Y-67996426D01*
X110338432Y-68010314D01*
X110334210Y-68013381D01*
X110203381Y-68144210D01*
X110203381Y-68144211D01*
X110203379Y-68144213D01*
X110156672Y-68208499D01*
X110094622Y-68293903D01*
X110010620Y-68458764D01*
X110010619Y-68458767D01*
X109953445Y-68634734D01*
X109939331Y-68723846D01*
X109924500Y-68817486D01*
X109924500Y-69002514D01*
X109927932Y-69024185D01*
X109953445Y-69185265D01*
X110010619Y-69361232D01*
X110010620Y-69361235D01*
X110053556Y-69445500D01*
X110094622Y-69526096D01*
X110203379Y-69675787D01*
X110334213Y-69806621D01*
X110483904Y-69915378D01*
X110564763Y-69956577D01*
X110648764Y-69999379D01*
X110648767Y-69999380D01*
X110736750Y-70027967D01*
X110824736Y-70056555D01*
X111007486Y-70085500D01*
X111007487Y-70085500D01*
X111192513Y-70085500D01*
X111192514Y-70085500D01*
X111375264Y-70056555D01*
X111551235Y-69999379D01*
X111716096Y-69915378D01*
X111865787Y-69806621D01*
X111996621Y-69675787D01*
X112105378Y-69526096D01*
X112189379Y-69361235D01*
X112246555Y-69185264D01*
X112275500Y-69002514D01*
X112275500Y-68817486D01*
X112246555Y-68634736D01*
X112189379Y-68458765D01*
X112189379Y-68458764D01*
X112105377Y-68293903D01*
X111996621Y-68144213D01*
X111865787Y-68013379D01*
X111861576Y-68010319D01*
X111818909Y-67954994D01*
X111812926Y-67885381D01*
X111845529Y-67823585D01*
X111861570Y-67809684D01*
X111865787Y-67806621D01*
X111996621Y-67675787D01*
X112105378Y-67526096D01*
X112189379Y-67361235D01*
X112246555Y-67185264D01*
X112275500Y-67002514D01*
X112275500Y-66817486D01*
X112246555Y-66634736D01*
X112189379Y-66458765D01*
X112189379Y-66458764D01*
X112105377Y-66293903D01*
X112101243Y-66288213D01*
X111996621Y-66144213D01*
X111865787Y-66013379D01*
X111861576Y-66010319D01*
X111818909Y-65954994D01*
X111812926Y-65885381D01*
X111845529Y-65823585D01*
X111861570Y-65809684D01*
X111865787Y-65806621D01*
X111996621Y-65675787D01*
X112105378Y-65526096D01*
X112189379Y-65361235D01*
X112246555Y-65185264D01*
X112275500Y-65002514D01*
X112275500Y-64817486D01*
X112246555Y-64634736D01*
X112189379Y-64458765D01*
X112189379Y-64458764D01*
X112105377Y-64293903D01*
X111996621Y-64144213D01*
X111865787Y-64013379D01*
X111861576Y-64010319D01*
X111818909Y-63954994D01*
X111812926Y-63885381D01*
X111845529Y-63823585D01*
X111861570Y-63809684D01*
X111865787Y-63806621D01*
X111996621Y-63675787D01*
X112043246Y-63611613D01*
X112098575Y-63568949D01*
X112143563Y-63560500D01*
X135464071Y-63560500D01*
X135548615Y-63543682D01*
X135589744Y-63535501D01*
X135708127Y-63486465D01*
X135710836Y-63484654D01*
X135711772Y-63484030D01*
X135746991Y-63460497D01*
X135814669Y-63415277D01*
X139123127Y-60106819D01*
X139184450Y-60073334D01*
X139210808Y-60070500D01*
X142125065Y-60070500D01*
X142192104Y-60090185D01*
X142193909Y-60091366D01*
X142250821Y-60129394D01*
X142250823Y-60129395D01*
X142250827Y-60129397D01*
X142396498Y-60189735D01*
X142396503Y-60189737D01*
X142551153Y-60220499D01*
X142551156Y-60220500D01*
X142551158Y-60220500D01*
X142708844Y-60220500D01*
X142708845Y-60220499D01*
X142863497Y-60189737D01*
X143009179Y-60129394D01*
X143140289Y-60041789D01*
X143251789Y-59930289D01*
X143339394Y-59799179D01*
X143399737Y-59653497D01*
X143430500Y-59498842D01*
X143430500Y-59341158D01*
X143430500Y-59341155D01*
X143430499Y-59341153D01*
X143406630Y-59221158D01*
X143399737Y-59186503D01*
X143350030Y-59066498D01*
X143339397Y-59040827D01*
X143339390Y-59040814D01*
X143251789Y-58909711D01*
X143251786Y-58909707D01*
X143214760Y-58872681D01*
X143181275Y-58811358D01*
X143186259Y-58741666D01*
X143214760Y-58697319D01*
X143251786Y-58660292D01*
X143251789Y-58660289D01*
X143339394Y-58529179D01*
X143399737Y-58383497D01*
X143430500Y-58228842D01*
X143430500Y-58071158D01*
X143430500Y-58071155D01*
X143430499Y-58071153D01*
X143399738Y-57916510D01*
X143399737Y-57916503D01*
X143378412Y-57865019D01*
X143339397Y-57770827D01*
X143339390Y-57770814D01*
X143251789Y-57639711D01*
X143251786Y-57639707D01*
X143140292Y-57528213D01*
X143140288Y-57528210D01*
X143009185Y-57440609D01*
X143009172Y-57440602D01*
X142863501Y-57380264D01*
X142863489Y-57380261D01*
X142708845Y-57349500D01*
X142708842Y-57349500D01*
X142551158Y-57349500D01*
X142551155Y-57349500D01*
X142396510Y-57380261D01*
X142396498Y-57380264D01*
X142250827Y-57440602D01*
X142250820Y-57440606D01*
X142221928Y-57459911D01*
X142193955Y-57478602D01*
X142127279Y-57499480D01*
X142125065Y-57499500D01*
X138205929Y-57499500D01*
X138080261Y-57524497D01*
X138080255Y-57524499D01*
X137961874Y-57573534D01*
X137855326Y-57644726D01*
X137855325Y-57644727D01*
X134866873Y-60633181D01*
X134805550Y-60666666D01*
X134779192Y-60669500D01*
X112347942Y-60669500D01*
X112280903Y-60649815D01*
X112235148Y-60597011D01*
X112230011Y-60583818D01*
X112189380Y-60458767D01*
X112189379Y-60458764D01*
X112105377Y-60293903D01*
X111996621Y-60144213D01*
X111865787Y-60013379D01*
X111861576Y-60010319D01*
X111818909Y-59954994D01*
X111812926Y-59885381D01*
X111845529Y-59823585D01*
X111861570Y-59809684D01*
X111865787Y-59806621D01*
X111996621Y-59675787D01*
X112105378Y-59526096D01*
X112189379Y-59361235D01*
X112246555Y-59185264D01*
X112275500Y-59002514D01*
X112275500Y-58817486D01*
X112246555Y-58634736D01*
X112212258Y-58529179D01*
X112189380Y-58458767D01*
X112189379Y-58458764D01*
X112105377Y-58293903D01*
X111996621Y-58144213D01*
X111865787Y-58013379D01*
X111861576Y-58010319D01*
X111818909Y-57954994D01*
X111812926Y-57885381D01*
X111845529Y-57823585D01*
X111861570Y-57809684D01*
X111865787Y-57806621D01*
X111996621Y-57675787D01*
X112105378Y-57526096D01*
X112189379Y-57361235D01*
X112246555Y-57185264D01*
X112275500Y-57002514D01*
X112275500Y-56817486D01*
X112246555Y-56634736D01*
X112189379Y-56458765D01*
X112189379Y-56458764D01*
X112105377Y-56293903D01*
X111996621Y-56144213D01*
X111865787Y-56013379D01*
X111861576Y-56010319D01*
X111818909Y-55954994D01*
X111812926Y-55885381D01*
X111845529Y-55823585D01*
X111861570Y-55809684D01*
X111865787Y-55806621D01*
X111996621Y-55675787D01*
X112105378Y-55526096D01*
X112189379Y-55361235D01*
X112246555Y-55185264D01*
X112275500Y-55002514D01*
X112275500Y-54817486D01*
X112246555Y-54634736D01*
X112189379Y-54458765D01*
X112189379Y-54458764D01*
X112105377Y-54293903D01*
X111996621Y-54144213D01*
X111865787Y-54013379D01*
X111861576Y-54010319D01*
X111818909Y-53954994D01*
X111812926Y-53885381D01*
X111845529Y-53823585D01*
X111861570Y-53809684D01*
X111865787Y-53806621D01*
X111996621Y-53675787D01*
X112105378Y-53526096D01*
X112189379Y-53361235D01*
X112246555Y-53185264D01*
X112275500Y-53002514D01*
X112275500Y-52817486D01*
X112246555Y-52634736D01*
X112189379Y-52458765D01*
X112189379Y-52458764D01*
X112105377Y-52293903D01*
X111996621Y-52144213D01*
X111865787Y-52013379D01*
X111861576Y-52010319D01*
X111818909Y-51954994D01*
X111812926Y-51885381D01*
X111845529Y-51823585D01*
X111861570Y-51809684D01*
X111865787Y-51806621D01*
X111996621Y-51675787D01*
X112105378Y-51526096D01*
X112189379Y-51361235D01*
X112246555Y-51185264D01*
X112275500Y-51002514D01*
X112275500Y-50817486D01*
X112246555Y-50634736D01*
X112189379Y-50458765D01*
X112189379Y-50458764D01*
X112105377Y-50293903D01*
X112021454Y-50178393D01*
X111997974Y-50112586D01*
X112013799Y-50044532D01*
X112047459Y-50006241D01*
X112132546Y-49942546D01*
X112218796Y-49827331D01*
X112269091Y-49692483D01*
X112275500Y-49632873D01*
X112275499Y-48187128D01*
X112269091Y-48127517D01*
X112218796Y-47992669D01*
X112218795Y-47992668D01*
X112218793Y-47992664D01*
X112132547Y-47877455D01*
X112132544Y-47877452D01*
X112017335Y-47791206D01*
X112017328Y-47791202D01*
X111882482Y-47740908D01*
X111882483Y-47740908D01*
X111822883Y-47734501D01*
X111822881Y-47734500D01*
X111822873Y-47734500D01*
X111822864Y-47734500D01*
X110377129Y-47734500D01*
X110377123Y-47734501D01*
X110317516Y-47740908D01*
X110182671Y-47791202D01*
X110182664Y-47791206D01*
X110067455Y-47877452D01*
X110067452Y-47877455D01*
X109981206Y-47992664D01*
X109981202Y-47992671D01*
X109930908Y-48127517D01*
X109924501Y-48187116D01*
X109924501Y-48187123D01*
X109924500Y-48187135D01*
X109924500Y-49632870D01*
X109924501Y-49632876D01*
X109930908Y-49692483D01*
X109981202Y-49827328D01*
X109981206Y-49827335D01*
X110067452Y-49942544D01*
X110067453Y-49942544D01*
X110067454Y-49942546D01*
X110118740Y-49980939D01*
X110152539Y-50006241D01*
X110194409Y-50062175D01*
X110199393Y-50131867D01*
X110178545Y-50178392D01*
X110094624Y-50293900D01*
X110010620Y-50458764D01*
X110010619Y-50458767D01*
X109953445Y-50634734D01*
X109924500Y-50817486D01*
X109924500Y-51002513D01*
X109953445Y-51185265D01*
X110010619Y-51361232D01*
X110010620Y-51361235D01*
X110094622Y-51526096D01*
X110203379Y-51675787D01*
X110334213Y-51806621D01*
X110338421Y-51809678D01*
X110338432Y-51809686D01*
X110381094Y-51865019D01*
X110387069Y-51934633D01*
X110354459Y-51996426D01*
X110338432Y-52010314D01*
X110334210Y-52013381D01*
X110203381Y-52144210D01*
X110203381Y-52144211D01*
X110203379Y-52144213D01*
X110156672Y-52208499D01*
X110094622Y-52293903D01*
X110010620Y-52458764D01*
X110010619Y-52458767D01*
X109953445Y-52634734D01*
X109924500Y-52817486D01*
X109924500Y-53002513D01*
X109953445Y-53185265D01*
X110010619Y-53361232D01*
X110010620Y-53361235D01*
X110094622Y-53526096D01*
X110203379Y-53675787D01*
X110334213Y-53806621D01*
X110338421Y-53809678D01*
X110338432Y-53809686D01*
X110381094Y-53865019D01*
X110387069Y-53934633D01*
X110354459Y-53996426D01*
X110338432Y-54010314D01*
X110334210Y-54013381D01*
X110203381Y-54144210D01*
X110203381Y-54144211D01*
X110203379Y-54144213D01*
X110156672Y-54208499D01*
X110094622Y-54293903D01*
X110010620Y-54458764D01*
X110010619Y-54458767D01*
X109953445Y-54634734D01*
X109924500Y-54817486D01*
X109924500Y-55002513D01*
X109953445Y-55185265D01*
X110010619Y-55361232D01*
X110010620Y-55361235D01*
X110094622Y-55526096D01*
X110203379Y-55675787D01*
X110334213Y-55806621D01*
X110338421Y-55809678D01*
X110338432Y-55809686D01*
X110381094Y-55865019D01*
X110387069Y-55934633D01*
X110354459Y-55996426D01*
X110338432Y-56010314D01*
X110334210Y-56013381D01*
X110203381Y-56144210D01*
X110203381Y-56144211D01*
X110203379Y-56144213D01*
X110156672Y-56208499D01*
X110094622Y-56293903D01*
X110010620Y-56458764D01*
X110010619Y-56458767D01*
X109953445Y-56634734D01*
X109924500Y-56817486D01*
X109924500Y-57002513D01*
X109953445Y-57185265D01*
X110010619Y-57361232D01*
X110010620Y-57361235D01*
X110093807Y-57524497D01*
X110094622Y-57526096D01*
X110203379Y-57675787D01*
X110334213Y-57806621D01*
X110338421Y-57809678D01*
X110338432Y-57809686D01*
X110381094Y-57865019D01*
X110387069Y-57934633D01*
X110354459Y-57996426D01*
X110338432Y-58010314D01*
X110334210Y-58013381D01*
X110203381Y-58144210D01*
X110203381Y-58144211D01*
X110203379Y-58144213D01*
X110156672Y-58208499D01*
X110094622Y-58293903D01*
X110010620Y-58458764D01*
X110010619Y-58458767D01*
X109953445Y-58634734D01*
X109924500Y-58817486D01*
X109924500Y-59002513D01*
X109953445Y-59185265D01*
X110010619Y-59361232D01*
X110010620Y-59361235D01*
X110080735Y-59498842D01*
X110094622Y-59526096D01*
X110203379Y-59675787D01*
X110334213Y-59806621D01*
X110338421Y-59809678D01*
X110338432Y-59809686D01*
X110381094Y-59865019D01*
X110387069Y-59934633D01*
X110354459Y-59996426D01*
X110338432Y-60010314D01*
X110334210Y-60013381D01*
X110203381Y-60144210D01*
X110203381Y-60144211D01*
X110203379Y-60144213D01*
X110188733Y-60164372D01*
X110094622Y-60293903D01*
X110010620Y-60458764D01*
X110010619Y-60458767D01*
X109953445Y-60634734D01*
X109924500Y-60817486D01*
X109924500Y-61002513D01*
X109953445Y-61185265D01*
X110010619Y-61361232D01*
X110010620Y-61361235D01*
X110094622Y-61526096D01*
X110203379Y-61675787D01*
X110334213Y-61806621D01*
X110338432Y-61809686D01*
X110381094Y-61865019D01*
X110387069Y-61934633D01*
X110354459Y-61996426D01*
X110338432Y-62010314D01*
X110334210Y-62013381D01*
X110203381Y-62144210D01*
X110203381Y-62144211D01*
X110203379Y-62144213D01*
X110186542Y-62167387D01*
X110094622Y-62293903D01*
X110010620Y-62458764D01*
X110010619Y-62458767D01*
X109953445Y-62634734D01*
X109924500Y-62817486D01*
X109924500Y-63002513D01*
X109953445Y-63185265D01*
X110010619Y-63361232D01*
X110010620Y-63361235D01*
X110073188Y-63484030D01*
X110094622Y-63526096D01*
X110203379Y-63675787D01*
X110334213Y-63806621D01*
X110338421Y-63809678D01*
X110338432Y-63809686D01*
X110381094Y-63865019D01*
X110387069Y-63934633D01*
X110354459Y-63996426D01*
X110338432Y-64010314D01*
X110334210Y-64013381D01*
X110203381Y-64144210D01*
X110203381Y-64144211D01*
X110203379Y-64144213D01*
X110156672Y-64208499D01*
X110094622Y-64293903D01*
X110010620Y-64458764D01*
X110010619Y-64458767D01*
X109953445Y-64634734D01*
X109953445Y-64634736D01*
X109924500Y-64817486D01*
X109924500Y-65002514D01*
X109935486Y-65071874D01*
X109953445Y-65185265D01*
X110010619Y-65361232D01*
X110010620Y-65361235D01*
X110094622Y-65526096D01*
X110203379Y-65675787D01*
X110334213Y-65806621D01*
X110338421Y-65809678D01*
X110338432Y-65809686D01*
X110381094Y-65865019D01*
X110387069Y-65934633D01*
X110354459Y-65996426D01*
X110338432Y-66010314D01*
X110334210Y-66013381D01*
X110203381Y-66144210D01*
X110203381Y-66144211D01*
X110203379Y-66144213D01*
X110162405Y-66200609D01*
X110156755Y-66208386D01*
X110101425Y-66251051D01*
X110056437Y-66259500D01*
X99294935Y-66259500D01*
X99227896Y-66239815D01*
X99226090Y-66238633D01*
X99169179Y-66200606D01*
X99169172Y-66200602D01*
X99023501Y-66140264D01*
X99023489Y-66140261D01*
X98868845Y-66109500D01*
X98868842Y-66109500D01*
X98711158Y-66109500D01*
X98711155Y-66109500D01*
X98556510Y-66140261D01*
X98556498Y-66140264D01*
X98410827Y-66200602D01*
X98410814Y-66200609D01*
X98279711Y-66288210D01*
X98279707Y-66288213D01*
X98168213Y-66399707D01*
X98168210Y-66399711D01*
X98080609Y-66530814D01*
X98080602Y-66530827D01*
X98020264Y-66676498D01*
X98020261Y-66676510D01*
X97989500Y-66831153D01*
X96310500Y-66831153D01*
X96310500Y-65700808D01*
X96330185Y-65633769D01*
X96346819Y-65613127D01*
X101147773Y-60812173D01*
X101147777Y-60812169D01*
X101218965Y-60705627D01*
X101268001Y-60587244D01*
X101293000Y-60461569D01*
X101293000Y-59804935D01*
X101312685Y-59737896D01*
X101313866Y-59736090D01*
X101351894Y-59679179D01*
X101412237Y-59533497D01*
X101443000Y-59378842D01*
X101443000Y-59221158D01*
X101443000Y-59221155D01*
X101442999Y-59221153D01*
X101412238Y-59066510D01*
X101412237Y-59066503D01*
X101385732Y-59002513D01*
X101351897Y-58920827D01*
X101351890Y-58920814D01*
X101264289Y-58789711D01*
X101264286Y-58789707D01*
X101152792Y-58678213D01*
X101152788Y-58678210D01*
X101021685Y-58590609D01*
X101021672Y-58590602D01*
X100876001Y-58530264D01*
X100875989Y-58530261D01*
X100721345Y-58499500D01*
X100721342Y-58499500D01*
X100563658Y-58499500D01*
X100563655Y-58499500D01*
X100409010Y-58530261D01*
X100408998Y-58530264D01*
X100263327Y-58590602D01*
X100263314Y-58590609D01*
X100132211Y-58678210D01*
X100132207Y-58678213D01*
X100020713Y-58789707D01*
X100020710Y-58789711D01*
X99933109Y-58920814D01*
X99933102Y-58920827D01*
X99872764Y-59066498D01*
X99872761Y-59066510D01*
X99842000Y-59221153D01*
X99842000Y-59378846D01*
X99872761Y-59533489D01*
X99872764Y-59533501D01*
X99933102Y-59679172D01*
X99933106Y-59679179D01*
X99971102Y-59736044D01*
X99991980Y-59802721D01*
X99992000Y-59804935D01*
X99992000Y-60076691D01*
X99972315Y-60143730D01*
X99955681Y-60164372D01*
X95154727Y-64965325D01*
X95154726Y-64965326D01*
X95083534Y-65071874D01*
X95034499Y-65190255D01*
X95034497Y-65190261D01*
X95009500Y-65315928D01*
X95009500Y-65315931D01*
X95009500Y-68324069D01*
X95009500Y-68324071D01*
X95009499Y-68324071D01*
X93055500Y-68324071D01*
X93055500Y-41065413D01*
X93055972Y-41054606D01*
X93061265Y-40994108D01*
X93069739Y-40897242D01*
X93073490Y-40875966D01*
X93112969Y-40728627D01*
X93120362Y-40708318D01*
X93184823Y-40570081D01*
X93195629Y-40551366D01*
X93283119Y-40426417D01*
X93297007Y-40409865D01*
X93404865Y-40302007D01*
X93421417Y-40288119D01*
X93546366Y-40200629D01*
X93565081Y-40189823D01*
X93703320Y-40125361D01*
X93723627Y-40117969D01*
X93870966Y-40078490D01*
X93892242Y-40074739D01*
X94024885Y-40063134D01*
X94049606Y-40060972D01*
X94060413Y-40060500D01*
X94120892Y-40060500D01*
X159859108Y-40060500D01*
X159919587Y-40060500D01*
X159930394Y-40060972D01*
G37*
%TD.AperFunction*%
%TD*%
M02*
