%TF.GenerationSoftware,KiCad,Pcbnew,10.0.6*%
%TF.CreationDate,2026-09-26T02:43:18+02:00*%
%TF.ProjectId,E80-900M2213S_SE050_Breakout,4538302d-3930-4304-9d32-323133535f53,rev?*%
%TF.SameCoordinates,Original*%
%TF.FileFunction,Legend,Top*%
%TF.FilePolarity,Positive*%
%FSLAX46Y46*%
G04 Gerber Fmt 4.6, Leading zero omitted, Abs format (unit mm)*
G04 Created by KiCad (PCBNEW 10.0.6) date 2026-09-26 02:43:18*
%MOMM*%
%LPD*%
G01*
G04 APERTURE LIST*
%ADD10C,0.150000*%
%ADD11C,0.180000*%
%ADD12C,0.170000*%
%ADD13C,0.120000*%
%ADD14C,0.310000*%
%ADD15C,0.200000*%
G04 APERTURE END LIST*
D10*
X113541541Y-48319819D02*
X114160588Y-48319819D01*
X114160588Y-48319819D02*
X113827255Y-48700771D01*
X113827255Y-48700771D02*
X113970112Y-48700771D01*
X113970112Y-48700771D02*
X114065350Y-48748390D01*
X114065350Y-48748390D02*
X114112969Y-48796009D01*
X114112969Y-48796009D02*
X114160588Y-48891247D01*
X114160588Y-48891247D02*
X114160588Y-49129342D01*
X114160588Y-49129342D02*
X114112969Y-49224580D01*
X114112969Y-49224580D02*
X114065350Y-49272200D01*
X114065350Y-49272200D02*
X113970112Y-49319819D01*
X113970112Y-49319819D02*
X113684398Y-49319819D01*
X113684398Y-49319819D02*
X113589160Y-49272200D01*
X113589160Y-49272200D02*
X113541541Y-49224580D01*
X114446303Y-48319819D02*
X114779636Y-49319819D01*
X114779636Y-49319819D02*
X115112969Y-48319819D01*
X115351065Y-48319819D02*
X115970112Y-48319819D01*
X115970112Y-48319819D02*
X115636779Y-48700771D01*
X115636779Y-48700771D02*
X115779636Y-48700771D01*
X115779636Y-48700771D02*
X115874874Y-48748390D01*
X115874874Y-48748390D02*
X115922493Y-48796009D01*
X115922493Y-48796009D02*
X115970112Y-48891247D01*
X115970112Y-48891247D02*
X115970112Y-49129342D01*
X115970112Y-49129342D02*
X115922493Y-49224580D01*
X115922493Y-49224580D02*
X115874874Y-49272200D01*
X115874874Y-49272200D02*
X115779636Y-49319819D01*
X115779636Y-49319819D02*
X115493922Y-49319819D01*
X115493922Y-49319819D02*
X115398684Y-49272200D01*
X115398684Y-49272200D02*
X115351065Y-49224580D01*
X113636779Y-51309819D02*
X113636779Y-50309819D01*
X113636779Y-50309819D02*
X113970112Y-51024104D01*
X113970112Y-51024104D02*
X114303445Y-50309819D01*
X114303445Y-50309819D02*
X114303445Y-51309819D01*
X114779636Y-51309819D02*
X114779636Y-50309819D01*
X115208207Y-51262200D02*
X115351064Y-51309819D01*
X115351064Y-51309819D02*
X115589159Y-51309819D01*
X115589159Y-51309819D02*
X115684397Y-51262200D01*
X115684397Y-51262200D02*
X115732016Y-51214580D01*
X115732016Y-51214580D02*
X115779635Y-51119342D01*
X115779635Y-51119342D02*
X115779635Y-51024104D01*
X115779635Y-51024104D02*
X115732016Y-50928866D01*
X115732016Y-50928866D02*
X115684397Y-50881247D01*
X115684397Y-50881247D02*
X115589159Y-50833628D01*
X115589159Y-50833628D02*
X115398683Y-50786009D01*
X115398683Y-50786009D02*
X115303445Y-50738390D01*
X115303445Y-50738390D02*
X115255826Y-50690771D01*
X115255826Y-50690771D02*
X115208207Y-50595533D01*
X115208207Y-50595533D02*
X115208207Y-50500295D01*
X115208207Y-50500295D02*
X115255826Y-50405057D01*
X115255826Y-50405057D02*
X115303445Y-50357438D01*
X115303445Y-50357438D02*
X115398683Y-50309819D01*
X115398683Y-50309819D02*
X115636778Y-50309819D01*
X115636778Y-50309819D02*
X115779635Y-50357438D01*
X116398683Y-50309819D02*
X116589159Y-50309819D01*
X116589159Y-50309819D02*
X116684397Y-50357438D01*
X116684397Y-50357438D02*
X116779635Y-50452676D01*
X116779635Y-50452676D02*
X116827254Y-50643152D01*
X116827254Y-50643152D02*
X116827254Y-50976485D01*
X116827254Y-50976485D02*
X116779635Y-51166961D01*
X116779635Y-51166961D02*
X116684397Y-51262200D01*
X116684397Y-51262200D02*
X116589159Y-51309819D01*
X116589159Y-51309819D02*
X116398683Y-51309819D01*
X116398683Y-51309819D02*
X116303445Y-51262200D01*
X116303445Y-51262200D02*
X116208207Y-51166961D01*
X116208207Y-51166961D02*
X116160588Y-50976485D01*
X116160588Y-50976485D02*
X116160588Y-50643152D01*
X116160588Y-50643152D02*
X116208207Y-50452676D01*
X116208207Y-50452676D02*
X116303445Y-50357438D01*
X116303445Y-50357438D02*
X116398683Y-50309819D01*
X113636779Y-53419819D02*
X113636779Y-52419819D01*
X113636779Y-52419819D02*
X113970112Y-53134104D01*
X113970112Y-53134104D02*
X114303445Y-52419819D01*
X114303445Y-52419819D02*
X114303445Y-53419819D01*
X114970112Y-52419819D02*
X115160588Y-52419819D01*
X115160588Y-52419819D02*
X115255826Y-52467438D01*
X115255826Y-52467438D02*
X115351064Y-52562676D01*
X115351064Y-52562676D02*
X115398683Y-52753152D01*
X115398683Y-52753152D02*
X115398683Y-53086485D01*
X115398683Y-53086485D02*
X115351064Y-53276961D01*
X115351064Y-53276961D02*
X115255826Y-53372200D01*
X115255826Y-53372200D02*
X115160588Y-53419819D01*
X115160588Y-53419819D02*
X114970112Y-53419819D01*
X114970112Y-53419819D02*
X114874874Y-53372200D01*
X114874874Y-53372200D02*
X114779636Y-53276961D01*
X114779636Y-53276961D02*
X114732017Y-53086485D01*
X114732017Y-53086485D02*
X114732017Y-52753152D01*
X114732017Y-52753152D02*
X114779636Y-52562676D01*
X114779636Y-52562676D02*
X114874874Y-52467438D01*
X114874874Y-52467438D02*
X114970112Y-52419819D01*
X115779636Y-53372200D02*
X115922493Y-53419819D01*
X115922493Y-53419819D02*
X116160588Y-53419819D01*
X116160588Y-53419819D02*
X116255826Y-53372200D01*
X116255826Y-53372200D02*
X116303445Y-53324580D01*
X116303445Y-53324580D02*
X116351064Y-53229342D01*
X116351064Y-53229342D02*
X116351064Y-53134104D01*
X116351064Y-53134104D02*
X116303445Y-53038866D01*
X116303445Y-53038866D02*
X116255826Y-52991247D01*
X116255826Y-52991247D02*
X116160588Y-52943628D01*
X116160588Y-52943628D02*
X115970112Y-52896009D01*
X115970112Y-52896009D02*
X115874874Y-52848390D01*
X115874874Y-52848390D02*
X115827255Y-52800771D01*
X115827255Y-52800771D02*
X115779636Y-52705533D01*
X115779636Y-52705533D02*
X115779636Y-52610295D01*
X115779636Y-52610295D02*
X115827255Y-52515057D01*
X115827255Y-52515057D02*
X115874874Y-52467438D01*
X115874874Y-52467438D02*
X115970112Y-52419819D01*
X115970112Y-52419819D02*
X116208207Y-52419819D01*
X116208207Y-52419819D02*
X116351064Y-52467438D01*
X116779636Y-53419819D02*
X116779636Y-52419819D01*
X113589160Y-55352200D02*
X113732017Y-55399819D01*
X113732017Y-55399819D02*
X113970112Y-55399819D01*
X113970112Y-55399819D02*
X114065350Y-55352200D01*
X114065350Y-55352200D02*
X114112969Y-55304580D01*
X114112969Y-55304580D02*
X114160588Y-55209342D01*
X114160588Y-55209342D02*
X114160588Y-55114104D01*
X114160588Y-55114104D02*
X114112969Y-55018866D01*
X114112969Y-55018866D02*
X114065350Y-54971247D01*
X114065350Y-54971247D02*
X113970112Y-54923628D01*
X113970112Y-54923628D02*
X113779636Y-54876009D01*
X113779636Y-54876009D02*
X113684398Y-54828390D01*
X113684398Y-54828390D02*
X113636779Y-54780771D01*
X113636779Y-54780771D02*
X113589160Y-54685533D01*
X113589160Y-54685533D02*
X113589160Y-54590295D01*
X113589160Y-54590295D02*
X113636779Y-54495057D01*
X113636779Y-54495057D02*
X113684398Y-54447438D01*
X113684398Y-54447438D02*
X113779636Y-54399819D01*
X113779636Y-54399819D02*
X114017731Y-54399819D01*
X114017731Y-54399819D02*
X114160588Y-54447438D01*
X115160588Y-55304580D02*
X115112969Y-55352200D01*
X115112969Y-55352200D02*
X114970112Y-55399819D01*
X114970112Y-55399819D02*
X114874874Y-55399819D01*
X114874874Y-55399819D02*
X114732017Y-55352200D01*
X114732017Y-55352200D02*
X114636779Y-55256961D01*
X114636779Y-55256961D02*
X114589160Y-55161723D01*
X114589160Y-55161723D02*
X114541541Y-54971247D01*
X114541541Y-54971247D02*
X114541541Y-54828390D01*
X114541541Y-54828390D02*
X114589160Y-54637914D01*
X114589160Y-54637914D02*
X114636779Y-54542676D01*
X114636779Y-54542676D02*
X114732017Y-54447438D01*
X114732017Y-54447438D02*
X114874874Y-54399819D01*
X114874874Y-54399819D02*
X114970112Y-54399819D01*
X114970112Y-54399819D02*
X115112969Y-54447438D01*
X115112969Y-54447438D02*
X115160588Y-54495057D01*
X115589160Y-55399819D02*
X115589160Y-54399819D01*
X116160588Y-55399819D02*
X115732017Y-54828390D01*
X116160588Y-54399819D02*
X115589160Y-54971247D01*
X113636779Y-57519819D02*
X113636779Y-56519819D01*
X113636779Y-56519819D02*
X114208207Y-57519819D01*
X114208207Y-57519819D02*
X114208207Y-56519819D01*
X114636779Y-57472200D02*
X114779636Y-57519819D01*
X114779636Y-57519819D02*
X115017731Y-57519819D01*
X115017731Y-57519819D02*
X115112969Y-57472200D01*
X115112969Y-57472200D02*
X115160588Y-57424580D01*
X115160588Y-57424580D02*
X115208207Y-57329342D01*
X115208207Y-57329342D02*
X115208207Y-57234104D01*
X115208207Y-57234104D02*
X115160588Y-57138866D01*
X115160588Y-57138866D02*
X115112969Y-57091247D01*
X115112969Y-57091247D02*
X115017731Y-57043628D01*
X115017731Y-57043628D02*
X114827255Y-56996009D01*
X114827255Y-56996009D02*
X114732017Y-56948390D01*
X114732017Y-56948390D02*
X114684398Y-56900771D01*
X114684398Y-56900771D02*
X114636779Y-56805533D01*
X114636779Y-56805533D02*
X114636779Y-56710295D01*
X114636779Y-56710295D02*
X114684398Y-56615057D01*
X114684398Y-56615057D02*
X114732017Y-56567438D01*
X114732017Y-56567438D02*
X114827255Y-56519819D01*
X114827255Y-56519819D02*
X115065350Y-56519819D01*
X115065350Y-56519819D02*
X115208207Y-56567438D01*
X115589160Y-57472200D02*
X115732017Y-57519819D01*
X115732017Y-57519819D02*
X115970112Y-57519819D01*
X115970112Y-57519819D02*
X116065350Y-57472200D01*
X116065350Y-57472200D02*
X116112969Y-57424580D01*
X116112969Y-57424580D02*
X116160588Y-57329342D01*
X116160588Y-57329342D02*
X116160588Y-57234104D01*
X116160588Y-57234104D02*
X116112969Y-57138866D01*
X116112969Y-57138866D02*
X116065350Y-57091247D01*
X116065350Y-57091247D02*
X115970112Y-57043628D01*
X115970112Y-57043628D02*
X115779636Y-56996009D01*
X115779636Y-56996009D02*
X115684398Y-56948390D01*
X115684398Y-56948390D02*
X115636779Y-56900771D01*
X115636779Y-56900771D02*
X115589160Y-56805533D01*
X115589160Y-56805533D02*
X115589160Y-56710295D01*
X115589160Y-56710295D02*
X115636779Y-56615057D01*
X115636779Y-56615057D02*
X115684398Y-56567438D01*
X115684398Y-56567438D02*
X115779636Y-56519819D01*
X115779636Y-56519819D02*
X116017731Y-56519819D01*
X116017731Y-56519819D02*
X116160588Y-56567438D01*
X113970112Y-58946009D02*
X114112969Y-58993628D01*
X114112969Y-58993628D02*
X114160588Y-59041247D01*
X114160588Y-59041247D02*
X114208207Y-59136485D01*
X114208207Y-59136485D02*
X114208207Y-59279342D01*
X114208207Y-59279342D02*
X114160588Y-59374580D01*
X114160588Y-59374580D02*
X114112969Y-59422200D01*
X114112969Y-59422200D02*
X114017731Y-59469819D01*
X114017731Y-59469819D02*
X113636779Y-59469819D01*
X113636779Y-59469819D02*
X113636779Y-58469819D01*
X113636779Y-58469819D02*
X113970112Y-58469819D01*
X113970112Y-58469819D02*
X114065350Y-58517438D01*
X114065350Y-58517438D02*
X114112969Y-58565057D01*
X114112969Y-58565057D02*
X114160588Y-58660295D01*
X114160588Y-58660295D02*
X114160588Y-58755533D01*
X114160588Y-58755533D02*
X114112969Y-58850771D01*
X114112969Y-58850771D02*
X114065350Y-58898390D01*
X114065350Y-58898390D02*
X113970112Y-58946009D01*
X113970112Y-58946009D02*
X113636779Y-58946009D01*
X114636779Y-58469819D02*
X114636779Y-59279342D01*
X114636779Y-59279342D02*
X114684398Y-59374580D01*
X114684398Y-59374580D02*
X114732017Y-59422200D01*
X114732017Y-59422200D02*
X114827255Y-59469819D01*
X114827255Y-59469819D02*
X115017731Y-59469819D01*
X115017731Y-59469819D02*
X115112969Y-59422200D01*
X115112969Y-59422200D02*
X115160588Y-59374580D01*
X115160588Y-59374580D02*
X115208207Y-59279342D01*
X115208207Y-59279342D02*
X115208207Y-58469819D01*
X115636779Y-59422200D02*
X115779636Y-59469819D01*
X115779636Y-59469819D02*
X116017731Y-59469819D01*
X116017731Y-59469819D02*
X116112969Y-59422200D01*
X116112969Y-59422200D02*
X116160588Y-59374580D01*
X116160588Y-59374580D02*
X116208207Y-59279342D01*
X116208207Y-59279342D02*
X116208207Y-59184104D01*
X116208207Y-59184104D02*
X116160588Y-59088866D01*
X116160588Y-59088866D02*
X116112969Y-59041247D01*
X116112969Y-59041247D02*
X116017731Y-58993628D01*
X116017731Y-58993628D02*
X115827255Y-58946009D01*
X115827255Y-58946009D02*
X115732017Y-58898390D01*
X115732017Y-58898390D02*
X115684398Y-58850771D01*
X115684398Y-58850771D02*
X115636779Y-58755533D01*
X115636779Y-58755533D02*
X115636779Y-58660295D01*
X115636779Y-58660295D02*
X115684398Y-58565057D01*
X115684398Y-58565057D02*
X115732017Y-58517438D01*
X115732017Y-58517438D02*
X115827255Y-58469819D01*
X115827255Y-58469819D02*
X116065350Y-58469819D01*
X116065350Y-58469819D02*
X116208207Y-58517438D01*
X116827255Y-58993628D02*
X116827255Y-59469819D01*
X116493922Y-58469819D02*
X116827255Y-58993628D01*
X116827255Y-58993628D02*
X117160588Y-58469819D01*
X113636779Y-61389819D02*
X113636779Y-60389819D01*
X113636779Y-60389819D02*
X113874874Y-60389819D01*
X113874874Y-60389819D02*
X114017731Y-60437438D01*
X114017731Y-60437438D02*
X114112969Y-60532676D01*
X114112969Y-60532676D02*
X114160588Y-60627914D01*
X114160588Y-60627914D02*
X114208207Y-60818390D01*
X114208207Y-60818390D02*
X114208207Y-60961247D01*
X114208207Y-60961247D02*
X114160588Y-61151723D01*
X114160588Y-61151723D02*
X114112969Y-61246961D01*
X114112969Y-61246961D02*
X114017731Y-61342200D01*
X114017731Y-61342200D02*
X113874874Y-61389819D01*
X113874874Y-61389819D02*
X113636779Y-61389819D01*
X114636779Y-61389819D02*
X114636779Y-60389819D01*
X115303445Y-60389819D02*
X115493921Y-60389819D01*
X115493921Y-60389819D02*
X115589159Y-60437438D01*
X115589159Y-60437438D02*
X115684397Y-60532676D01*
X115684397Y-60532676D02*
X115732016Y-60723152D01*
X115732016Y-60723152D02*
X115732016Y-61056485D01*
X115732016Y-61056485D02*
X115684397Y-61246961D01*
X115684397Y-61246961D02*
X115589159Y-61342200D01*
X115589159Y-61342200D02*
X115493921Y-61389819D01*
X115493921Y-61389819D02*
X115303445Y-61389819D01*
X115303445Y-61389819D02*
X115208207Y-61342200D01*
X115208207Y-61342200D02*
X115112969Y-61246961D01*
X115112969Y-61246961D02*
X115065350Y-61056485D01*
X115065350Y-61056485D02*
X115065350Y-60723152D01*
X115065350Y-60723152D02*
X115112969Y-60532676D01*
X115112969Y-60532676D02*
X115208207Y-60437438D01*
X115208207Y-60437438D02*
X115303445Y-60389819D01*
X116684397Y-61389819D02*
X116112969Y-61389819D01*
X116398683Y-61389819D02*
X116398683Y-60389819D01*
X116398683Y-60389819D02*
X116303445Y-60532676D01*
X116303445Y-60532676D02*
X116208207Y-60627914D01*
X116208207Y-60627914D02*
X116112969Y-60675533D01*
X113636779Y-63469819D02*
X113636779Y-62469819D01*
X113636779Y-62469819D02*
X114208207Y-63469819D01*
X114208207Y-63469819D02*
X114208207Y-62469819D01*
X115255826Y-63469819D02*
X114922493Y-62993628D01*
X114684398Y-63469819D02*
X114684398Y-62469819D01*
X114684398Y-62469819D02*
X115065350Y-62469819D01*
X115065350Y-62469819D02*
X115160588Y-62517438D01*
X115160588Y-62517438D02*
X115208207Y-62565057D01*
X115208207Y-62565057D02*
X115255826Y-62660295D01*
X115255826Y-62660295D02*
X115255826Y-62803152D01*
X115255826Y-62803152D02*
X115208207Y-62898390D01*
X115208207Y-62898390D02*
X115160588Y-62946009D01*
X115160588Y-62946009D02*
X115065350Y-62993628D01*
X115065350Y-62993628D02*
X114684398Y-62993628D01*
X115636779Y-63422200D02*
X115779636Y-63469819D01*
X115779636Y-63469819D02*
X116017731Y-63469819D01*
X116017731Y-63469819D02*
X116112969Y-63422200D01*
X116112969Y-63422200D02*
X116160588Y-63374580D01*
X116160588Y-63374580D02*
X116208207Y-63279342D01*
X116208207Y-63279342D02*
X116208207Y-63184104D01*
X116208207Y-63184104D02*
X116160588Y-63088866D01*
X116160588Y-63088866D02*
X116112969Y-63041247D01*
X116112969Y-63041247D02*
X116017731Y-62993628D01*
X116017731Y-62993628D02*
X115827255Y-62946009D01*
X115827255Y-62946009D02*
X115732017Y-62898390D01*
X115732017Y-62898390D02*
X115684398Y-62850771D01*
X115684398Y-62850771D02*
X115636779Y-62755533D01*
X115636779Y-62755533D02*
X115636779Y-62660295D01*
X115636779Y-62660295D02*
X115684398Y-62565057D01*
X115684398Y-62565057D02*
X115732017Y-62517438D01*
X115732017Y-62517438D02*
X115827255Y-62469819D01*
X115827255Y-62469819D02*
X116065350Y-62469819D01*
X116065350Y-62469819D02*
X116208207Y-62517438D01*
X116493922Y-62469819D02*
X117065350Y-62469819D01*
X116779636Y-63469819D02*
X116779636Y-62469819D01*
X113636779Y-64806009D02*
X113970112Y-64806009D01*
X114112969Y-65329819D02*
X113636779Y-65329819D01*
X113636779Y-65329819D02*
X113636779Y-64329819D01*
X113636779Y-64329819D02*
X114112969Y-64329819D01*
X114541541Y-65329819D02*
X114541541Y-64329819D01*
X114541541Y-64329819D02*
X115112969Y-65329819D01*
X115112969Y-65329819D02*
X115112969Y-64329819D01*
X115541541Y-65044104D02*
X116017731Y-65044104D01*
X115446303Y-65329819D02*
X115779636Y-64329819D01*
X115779636Y-64329819D02*
X116112969Y-65329819D01*
X113589160Y-67142200D02*
X113732017Y-67189819D01*
X113732017Y-67189819D02*
X113970112Y-67189819D01*
X113970112Y-67189819D02*
X114065350Y-67142200D01*
X114065350Y-67142200D02*
X114112969Y-67094580D01*
X114112969Y-67094580D02*
X114160588Y-66999342D01*
X114160588Y-66999342D02*
X114160588Y-66904104D01*
X114160588Y-66904104D02*
X114112969Y-66808866D01*
X114112969Y-66808866D02*
X114065350Y-66761247D01*
X114065350Y-66761247D02*
X113970112Y-66713628D01*
X113970112Y-66713628D02*
X113779636Y-66666009D01*
X113779636Y-66666009D02*
X113684398Y-66618390D01*
X113684398Y-66618390D02*
X113636779Y-66570771D01*
X113636779Y-66570771D02*
X113589160Y-66475533D01*
X113589160Y-66475533D02*
X113589160Y-66380295D01*
X113589160Y-66380295D02*
X113636779Y-66285057D01*
X113636779Y-66285057D02*
X113684398Y-66237438D01*
X113684398Y-66237438D02*
X113779636Y-66189819D01*
X113779636Y-66189819D02*
X114017731Y-66189819D01*
X114017731Y-66189819D02*
X114160588Y-66237438D01*
X114589160Y-67189819D02*
X114589160Y-66189819D01*
X114589160Y-66189819D02*
X114827255Y-66189819D01*
X114827255Y-66189819D02*
X114970112Y-66237438D01*
X114970112Y-66237438D02*
X115065350Y-66332676D01*
X115065350Y-66332676D02*
X115112969Y-66427914D01*
X115112969Y-66427914D02*
X115160588Y-66618390D01*
X115160588Y-66618390D02*
X115160588Y-66761247D01*
X115160588Y-66761247D02*
X115112969Y-66951723D01*
X115112969Y-66951723D02*
X115065350Y-67046961D01*
X115065350Y-67046961D02*
X114970112Y-67142200D01*
X114970112Y-67142200D02*
X114827255Y-67189819D01*
X114827255Y-67189819D02*
X114589160Y-67189819D01*
X115541541Y-66904104D02*
X116017731Y-66904104D01*
X115446303Y-67189819D02*
X115779636Y-66189819D01*
X115779636Y-66189819D02*
X116112969Y-67189819D01*
X113589160Y-69192200D02*
X113732017Y-69239819D01*
X113732017Y-69239819D02*
X113970112Y-69239819D01*
X113970112Y-69239819D02*
X114065350Y-69192200D01*
X114065350Y-69192200D02*
X114112969Y-69144580D01*
X114112969Y-69144580D02*
X114160588Y-69049342D01*
X114160588Y-69049342D02*
X114160588Y-68954104D01*
X114160588Y-68954104D02*
X114112969Y-68858866D01*
X114112969Y-68858866D02*
X114065350Y-68811247D01*
X114065350Y-68811247D02*
X113970112Y-68763628D01*
X113970112Y-68763628D02*
X113779636Y-68716009D01*
X113779636Y-68716009D02*
X113684398Y-68668390D01*
X113684398Y-68668390D02*
X113636779Y-68620771D01*
X113636779Y-68620771D02*
X113589160Y-68525533D01*
X113589160Y-68525533D02*
X113589160Y-68430295D01*
X113589160Y-68430295D02*
X113636779Y-68335057D01*
X113636779Y-68335057D02*
X113684398Y-68287438D01*
X113684398Y-68287438D02*
X113779636Y-68239819D01*
X113779636Y-68239819D02*
X114017731Y-68239819D01*
X114017731Y-68239819D02*
X114160588Y-68287438D01*
X115160588Y-69144580D02*
X115112969Y-69192200D01*
X115112969Y-69192200D02*
X114970112Y-69239819D01*
X114970112Y-69239819D02*
X114874874Y-69239819D01*
X114874874Y-69239819D02*
X114732017Y-69192200D01*
X114732017Y-69192200D02*
X114636779Y-69096961D01*
X114636779Y-69096961D02*
X114589160Y-69001723D01*
X114589160Y-69001723D02*
X114541541Y-68811247D01*
X114541541Y-68811247D02*
X114541541Y-68668390D01*
X114541541Y-68668390D02*
X114589160Y-68477914D01*
X114589160Y-68477914D02*
X114636779Y-68382676D01*
X114636779Y-68382676D02*
X114732017Y-68287438D01*
X114732017Y-68287438D02*
X114874874Y-68239819D01*
X114874874Y-68239819D02*
X114970112Y-68239819D01*
X114970112Y-68239819D02*
X115112969Y-68287438D01*
X115112969Y-68287438D02*
X115160588Y-68335057D01*
X116065350Y-69239819D02*
X115589160Y-69239819D01*
X115589160Y-69239819D02*
X115589160Y-68239819D01*
X114160588Y-70387438D02*
X114065350Y-70339819D01*
X114065350Y-70339819D02*
X113922493Y-70339819D01*
X113922493Y-70339819D02*
X113779636Y-70387438D01*
X113779636Y-70387438D02*
X113684398Y-70482676D01*
X113684398Y-70482676D02*
X113636779Y-70577914D01*
X113636779Y-70577914D02*
X113589160Y-70768390D01*
X113589160Y-70768390D02*
X113589160Y-70911247D01*
X113589160Y-70911247D02*
X113636779Y-71101723D01*
X113636779Y-71101723D02*
X113684398Y-71196961D01*
X113684398Y-71196961D02*
X113779636Y-71292200D01*
X113779636Y-71292200D02*
X113922493Y-71339819D01*
X113922493Y-71339819D02*
X114017731Y-71339819D01*
X114017731Y-71339819D02*
X114160588Y-71292200D01*
X114160588Y-71292200D02*
X114208207Y-71244580D01*
X114208207Y-71244580D02*
X114208207Y-70911247D01*
X114208207Y-70911247D02*
X114017731Y-70911247D01*
X114636779Y-71339819D02*
X114636779Y-70339819D01*
X114636779Y-70339819D02*
X115208207Y-71339819D01*
X115208207Y-71339819D02*
X115208207Y-70339819D01*
X115684398Y-71339819D02*
X115684398Y-70339819D01*
X115684398Y-70339819D02*
X115922493Y-70339819D01*
X115922493Y-70339819D02*
X116065350Y-70387438D01*
X116065350Y-70387438D02*
X116160588Y-70482676D01*
X116160588Y-70482676D02*
X116208207Y-70577914D01*
X116208207Y-70577914D02*
X116255826Y-70768390D01*
X116255826Y-70768390D02*
X116255826Y-70911247D01*
X116255826Y-70911247D02*
X116208207Y-71101723D01*
X116208207Y-71101723D02*
X116160588Y-71196961D01*
X116160588Y-71196961D02*
X116065350Y-71292200D01*
X116065350Y-71292200D02*
X115922493Y-71339819D01*
X115922493Y-71339819D02*
X115684398Y-71339819D01*
X123665057Y-87360839D02*
X123617438Y-87313220D01*
X123617438Y-87313220D02*
X123569819Y-87217982D01*
X123569819Y-87217982D02*
X123569819Y-86979887D01*
X123569819Y-86979887D02*
X123617438Y-86884649D01*
X123617438Y-86884649D02*
X123665057Y-86837030D01*
X123665057Y-86837030D02*
X123760295Y-86789411D01*
X123760295Y-86789411D02*
X123855533Y-86789411D01*
X123855533Y-86789411D02*
X123998390Y-86837030D01*
X123998390Y-86837030D02*
X124569819Y-87408458D01*
X124569819Y-87408458D02*
X124569819Y-86789411D01*
X124474580Y-86360839D02*
X124522200Y-86313220D01*
X124522200Y-86313220D02*
X124569819Y-86360839D01*
X124569819Y-86360839D02*
X124522200Y-86408458D01*
X124522200Y-86408458D02*
X124474580Y-86360839D01*
X124474580Y-86360839D02*
X124569819Y-86360839D01*
X123903152Y-85456078D02*
X124569819Y-85456078D01*
X123522200Y-85694173D02*
X124236485Y-85932268D01*
X124236485Y-85932268D02*
X124236485Y-85313221D01*
X123617438Y-84408459D02*
X123569819Y-84503697D01*
X123569819Y-84503697D02*
X123569819Y-84646554D01*
X123569819Y-84646554D02*
X123617438Y-84789411D01*
X123617438Y-84789411D02*
X123712676Y-84884649D01*
X123712676Y-84884649D02*
X123807914Y-84932268D01*
X123807914Y-84932268D02*
X123998390Y-84979887D01*
X123998390Y-84979887D02*
X124141247Y-84979887D01*
X124141247Y-84979887D02*
X124331723Y-84932268D01*
X124331723Y-84932268D02*
X124426961Y-84884649D01*
X124426961Y-84884649D02*
X124522200Y-84789411D01*
X124522200Y-84789411D02*
X124569819Y-84646554D01*
X124569819Y-84646554D02*
X124569819Y-84551316D01*
X124569819Y-84551316D02*
X124522200Y-84408459D01*
X124522200Y-84408459D02*
X124474580Y-84360840D01*
X124474580Y-84360840D02*
X124141247Y-84360840D01*
X124141247Y-84360840D02*
X124141247Y-84551316D01*
X124569819Y-83932268D02*
X123569819Y-83932268D01*
X124569819Y-83503697D02*
X124046009Y-83503697D01*
X124046009Y-83503697D02*
X123950771Y-83551316D01*
X123950771Y-83551316D02*
X123903152Y-83646554D01*
X123903152Y-83646554D02*
X123903152Y-83789411D01*
X123903152Y-83789411D02*
X123950771Y-83884649D01*
X123950771Y-83884649D02*
X123998390Y-83932268D01*
X123903152Y-83122744D02*
X123903152Y-82598935D01*
X123903152Y-82598935D02*
X124569819Y-83122744D01*
X124569819Y-83122744D02*
X124569819Y-82598935D01*
X143048390Y-86570363D02*
X143000771Y-86665601D01*
X143000771Y-86665601D02*
X142953152Y-86713220D01*
X142953152Y-86713220D02*
X142857914Y-86760839D01*
X142857914Y-86760839D02*
X142810295Y-86760839D01*
X142810295Y-86760839D02*
X142715057Y-86713220D01*
X142715057Y-86713220D02*
X142667438Y-86665601D01*
X142667438Y-86665601D02*
X142619819Y-86570363D01*
X142619819Y-86570363D02*
X142619819Y-86379887D01*
X142619819Y-86379887D02*
X142667438Y-86284649D01*
X142667438Y-86284649D02*
X142715057Y-86237030D01*
X142715057Y-86237030D02*
X142810295Y-86189411D01*
X142810295Y-86189411D02*
X142857914Y-86189411D01*
X142857914Y-86189411D02*
X142953152Y-86237030D01*
X142953152Y-86237030D02*
X143000771Y-86284649D01*
X143000771Y-86284649D02*
X143048390Y-86379887D01*
X143048390Y-86379887D02*
X143048390Y-86570363D01*
X143048390Y-86570363D02*
X143096009Y-86665601D01*
X143096009Y-86665601D02*
X143143628Y-86713220D01*
X143143628Y-86713220D02*
X143238866Y-86760839D01*
X143238866Y-86760839D02*
X143429342Y-86760839D01*
X143429342Y-86760839D02*
X143524580Y-86713220D01*
X143524580Y-86713220D02*
X143572200Y-86665601D01*
X143572200Y-86665601D02*
X143619819Y-86570363D01*
X143619819Y-86570363D02*
X143619819Y-86379887D01*
X143619819Y-86379887D02*
X143572200Y-86284649D01*
X143572200Y-86284649D02*
X143524580Y-86237030D01*
X143524580Y-86237030D02*
X143429342Y-86189411D01*
X143429342Y-86189411D02*
X143238866Y-86189411D01*
X143238866Y-86189411D02*
X143143628Y-86237030D01*
X143143628Y-86237030D02*
X143096009Y-86284649D01*
X143096009Y-86284649D02*
X143048390Y-86379887D01*
X142619819Y-85332268D02*
X142619819Y-85522744D01*
X142619819Y-85522744D02*
X142667438Y-85617982D01*
X142667438Y-85617982D02*
X142715057Y-85665601D01*
X142715057Y-85665601D02*
X142857914Y-85760839D01*
X142857914Y-85760839D02*
X143048390Y-85808458D01*
X143048390Y-85808458D02*
X143429342Y-85808458D01*
X143429342Y-85808458D02*
X143524580Y-85760839D01*
X143524580Y-85760839D02*
X143572200Y-85713220D01*
X143572200Y-85713220D02*
X143619819Y-85617982D01*
X143619819Y-85617982D02*
X143619819Y-85427506D01*
X143619819Y-85427506D02*
X143572200Y-85332268D01*
X143572200Y-85332268D02*
X143524580Y-85284649D01*
X143524580Y-85284649D02*
X143429342Y-85237030D01*
X143429342Y-85237030D02*
X143191247Y-85237030D01*
X143191247Y-85237030D02*
X143096009Y-85284649D01*
X143096009Y-85284649D02*
X143048390Y-85332268D01*
X143048390Y-85332268D02*
X143000771Y-85427506D01*
X143000771Y-85427506D02*
X143000771Y-85617982D01*
X143000771Y-85617982D02*
X143048390Y-85713220D01*
X143048390Y-85713220D02*
X143096009Y-85760839D01*
X143096009Y-85760839D02*
X143191247Y-85808458D01*
X143048390Y-84665601D02*
X143000771Y-84760839D01*
X143000771Y-84760839D02*
X142953152Y-84808458D01*
X142953152Y-84808458D02*
X142857914Y-84856077D01*
X142857914Y-84856077D02*
X142810295Y-84856077D01*
X142810295Y-84856077D02*
X142715057Y-84808458D01*
X142715057Y-84808458D02*
X142667438Y-84760839D01*
X142667438Y-84760839D02*
X142619819Y-84665601D01*
X142619819Y-84665601D02*
X142619819Y-84475125D01*
X142619819Y-84475125D02*
X142667438Y-84379887D01*
X142667438Y-84379887D02*
X142715057Y-84332268D01*
X142715057Y-84332268D02*
X142810295Y-84284649D01*
X142810295Y-84284649D02*
X142857914Y-84284649D01*
X142857914Y-84284649D02*
X142953152Y-84332268D01*
X142953152Y-84332268D02*
X143000771Y-84379887D01*
X143000771Y-84379887D02*
X143048390Y-84475125D01*
X143048390Y-84475125D02*
X143048390Y-84665601D01*
X143048390Y-84665601D02*
X143096009Y-84760839D01*
X143096009Y-84760839D02*
X143143628Y-84808458D01*
X143143628Y-84808458D02*
X143238866Y-84856077D01*
X143238866Y-84856077D02*
X143429342Y-84856077D01*
X143429342Y-84856077D02*
X143524580Y-84808458D01*
X143524580Y-84808458D02*
X143572200Y-84760839D01*
X143572200Y-84760839D02*
X143619819Y-84665601D01*
X143619819Y-84665601D02*
X143619819Y-84475125D01*
X143619819Y-84475125D02*
X143572200Y-84379887D01*
X143572200Y-84379887D02*
X143524580Y-84332268D01*
X143524580Y-84332268D02*
X143429342Y-84284649D01*
X143429342Y-84284649D02*
X143238866Y-84284649D01*
X143238866Y-84284649D02*
X143143628Y-84332268D01*
X143143628Y-84332268D02*
X143096009Y-84379887D01*
X143096009Y-84379887D02*
X143048390Y-84475125D01*
X143619819Y-83856077D02*
X142619819Y-83856077D01*
X142619819Y-83856077D02*
X143334104Y-83522744D01*
X143334104Y-83522744D02*
X142619819Y-83189411D01*
X142619819Y-83189411D02*
X143619819Y-83189411D01*
X143619819Y-82713220D02*
X142619819Y-82713220D01*
X143619819Y-82284649D02*
X143096009Y-82284649D01*
X143096009Y-82284649D02*
X143000771Y-82332268D01*
X143000771Y-82332268D02*
X142953152Y-82427506D01*
X142953152Y-82427506D02*
X142953152Y-82570363D01*
X142953152Y-82570363D02*
X143000771Y-82665601D01*
X143000771Y-82665601D02*
X143048390Y-82713220D01*
X142953152Y-81903696D02*
X142953152Y-81379887D01*
X142953152Y-81379887D02*
X143619819Y-81903696D01*
X143619819Y-81903696D02*
X143619819Y-81379887D01*
D11*
X112266516Y-43314449D02*
X112599849Y-43314449D01*
X112742706Y-43838259D02*
X112266516Y-43838259D01*
X112266516Y-43838259D02*
X112266516Y-42838259D01*
X112266516Y-42838259D02*
X112742706Y-42838259D01*
X113314135Y-43266830D02*
X113218897Y-43219211D01*
X113218897Y-43219211D02*
X113171278Y-43171592D01*
X113171278Y-43171592D02*
X113123659Y-43076354D01*
X113123659Y-43076354D02*
X113123659Y-43028735D01*
X113123659Y-43028735D02*
X113171278Y-42933497D01*
X113171278Y-42933497D02*
X113218897Y-42885878D01*
X113218897Y-42885878D02*
X113314135Y-42838259D01*
X113314135Y-42838259D02*
X113504611Y-42838259D01*
X113504611Y-42838259D02*
X113599849Y-42885878D01*
X113599849Y-42885878D02*
X113647468Y-42933497D01*
X113647468Y-42933497D02*
X113695087Y-43028735D01*
X113695087Y-43028735D02*
X113695087Y-43076354D01*
X113695087Y-43076354D02*
X113647468Y-43171592D01*
X113647468Y-43171592D02*
X113599849Y-43219211D01*
X113599849Y-43219211D02*
X113504611Y-43266830D01*
X113504611Y-43266830D02*
X113314135Y-43266830D01*
X113314135Y-43266830D02*
X113218897Y-43314449D01*
X113218897Y-43314449D02*
X113171278Y-43362068D01*
X113171278Y-43362068D02*
X113123659Y-43457306D01*
X113123659Y-43457306D02*
X113123659Y-43647782D01*
X113123659Y-43647782D02*
X113171278Y-43743020D01*
X113171278Y-43743020D02*
X113218897Y-43790640D01*
X113218897Y-43790640D02*
X113314135Y-43838259D01*
X113314135Y-43838259D02*
X113504611Y-43838259D01*
X113504611Y-43838259D02*
X113599849Y-43790640D01*
X113599849Y-43790640D02*
X113647468Y-43743020D01*
X113647468Y-43743020D02*
X113695087Y-43647782D01*
X113695087Y-43647782D02*
X113695087Y-43457306D01*
X113695087Y-43457306D02*
X113647468Y-43362068D01*
X113647468Y-43362068D02*
X113599849Y-43314449D01*
X113599849Y-43314449D02*
X113504611Y-43266830D01*
X114314135Y-42838259D02*
X114409373Y-42838259D01*
X114409373Y-42838259D02*
X114504611Y-42885878D01*
X114504611Y-42885878D02*
X114552230Y-42933497D01*
X114552230Y-42933497D02*
X114599849Y-43028735D01*
X114599849Y-43028735D02*
X114647468Y-43219211D01*
X114647468Y-43219211D02*
X114647468Y-43457306D01*
X114647468Y-43457306D02*
X114599849Y-43647782D01*
X114599849Y-43647782D02*
X114552230Y-43743020D01*
X114552230Y-43743020D02*
X114504611Y-43790640D01*
X114504611Y-43790640D02*
X114409373Y-43838259D01*
X114409373Y-43838259D02*
X114314135Y-43838259D01*
X114314135Y-43838259D02*
X114218897Y-43790640D01*
X114218897Y-43790640D02*
X114171278Y-43743020D01*
X114171278Y-43743020D02*
X114123659Y-43647782D01*
X114123659Y-43647782D02*
X114076040Y-43457306D01*
X114076040Y-43457306D02*
X114076040Y-43219211D01*
X114076040Y-43219211D02*
X114123659Y-43028735D01*
X114123659Y-43028735D02*
X114171278Y-42933497D01*
X114171278Y-42933497D02*
X114218897Y-42885878D01*
X114218897Y-42885878D02*
X114314135Y-42838259D01*
X115076040Y-43457306D02*
X115837945Y-43457306D01*
X116361754Y-43838259D02*
X116552230Y-43838259D01*
X116552230Y-43838259D02*
X116647468Y-43790640D01*
X116647468Y-43790640D02*
X116695087Y-43743020D01*
X116695087Y-43743020D02*
X116790325Y-43600163D01*
X116790325Y-43600163D02*
X116837944Y-43409687D01*
X116837944Y-43409687D02*
X116837944Y-43028735D01*
X116837944Y-43028735D02*
X116790325Y-42933497D01*
X116790325Y-42933497D02*
X116742706Y-42885878D01*
X116742706Y-42885878D02*
X116647468Y-42838259D01*
X116647468Y-42838259D02*
X116456992Y-42838259D01*
X116456992Y-42838259D02*
X116361754Y-42885878D01*
X116361754Y-42885878D02*
X116314135Y-42933497D01*
X116314135Y-42933497D02*
X116266516Y-43028735D01*
X116266516Y-43028735D02*
X116266516Y-43266830D01*
X116266516Y-43266830D02*
X116314135Y-43362068D01*
X116314135Y-43362068D02*
X116361754Y-43409687D01*
X116361754Y-43409687D02*
X116456992Y-43457306D01*
X116456992Y-43457306D02*
X116647468Y-43457306D01*
X116647468Y-43457306D02*
X116742706Y-43409687D01*
X116742706Y-43409687D02*
X116790325Y-43362068D01*
X116790325Y-43362068D02*
X116837944Y-43266830D01*
X117456992Y-42838259D02*
X117552230Y-42838259D01*
X117552230Y-42838259D02*
X117647468Y-42885878D01*
X117647468Y-42885878D02*
X117695087Y-42933497D01*
X117695087Y-42933497D02*
X117742706Y-43028735D01*
X117742706Y-43028735D02*
X117790325Y-43219211D01*
X117790325Y-43219211D02*
X117790325Y-43457306D01*
X117790325Y-43457306D02*
X117742706Y-43647782D01*
X117742706Y-43647782D02*
X117695087Y-43743020D01*
X117695087Y-43743020D02*
X117647468Y-43790640D01*
X117647468Y-43790640D02*
X117552230Y-43838259D01*
X117552230Y-43838259D02*
X117456992Y-43838259D01*
X117456992Y-43838259D02*
X117361754Y-43790640D01*
X117361754Y-43790640D02*
X117314135Y-43743020D01*
X117314135Y-43743020D02*
X117266516Y-43647782D01*
X117266516Y-43647782D02*
X117218897Y-43457306D01*
X117218897Y-43457306D02*
X117218897Y-43219211D01*
X117218897Y-43219211D02*
X117266516Y-43028735D01*
X117266516Y-43028735D02*
X117314135Y-42933497D01*
X117314135Y-42933497D02*
X117361754Y-42885878D01*
X117361754Y-42885878D02*
X117456992Y-42838259D01*
X118409373Y-42838259D02*
X118504611Y-42838259D01*
X118504611Y-42838259D02*
X118599849Y-42885878D01*
X118599849Y-42885878D02*
X118647468Y-42933497D01*
X118647468Y-42933497D02*
X118695087Y-43028735D01*
X118695087Y-43028735D02*
X118742706Y-43219211D01*
X118742706Y-43219211D02*
X118742706Y-43457306D01*
X118742706Y-43457306D02*
X118695087Y-43647782D01*
X118695087Y-43647782D02*
X118647468Y-43743020D01*
X118647468Y-43743020D02*
X118599849Y-43790640D01*
X118599849Y-43790640D02*
X118504611Y-43838259D01*
X118504611Y-43838259D02*
X118409373Y-43838259D01*
X118409373Y-43838259D02*
X118314135Y-43790640D01*
X118314135Y-43790640D02*
X118266516Y-43743020D01*
X118266516Y-43743020D02*
X118218897Y-43647782D01*
X118218897Y-43647782D02*
X118171278Y-43457306D01*
X118171278Y-43457306D02*
X118171278Y-43219211D01*
X118171278Y-43219211D02*
X118218897Y-43028735D01*
X118218897Y-43028735D02*
X118266516Y-42933497D01*
X118266516Y-42933497D02*
X118314135Y-42885878D01*
X118314135Y-42885878D02*
X118409373Y-42838259D01*
X119171278Y-43838259D02*
X119171278Y-42838259D01*
X119171278Y-42838259D02*
X119504611Y-43552544D01*
X119504611Y-43552544D02*
X119837944Y-42838259D01*
X119837944Y-42838259D02*
X119837944Y-43838259D01*
X120266516Y-42933497D02*
X120314135Y-42885878D01*
X120314135Y-42885878D02*
X120409373Y-42838259D01*
X120409373Y-42838259D02*
X120647468Y-42838259D01*
X120647468Y-42838259D02*
X120742706Y-42885878D01*
X120742706Y-42885878D02*
X120790325Y-42933497D01*
X120790325Y-42933497D02*
X120837944Y-43028735D01*
X120837944Y-43028735D02*
X120837944Y-43123973D01*
X120837944Y-43123973D02*
X120790325Y-43266830D01*
X120790325Y-43266830D02*
X120218897Y-43838259D01*
X120218897Y-43838259D02*
X120837944Y-43838259D01*
X121218897Y-42933497D02*
X121266516Y-42885878D01*
X121266516Y-42885878D02*
X121361754Y-42838259D01*
X121361754Y-42838259D02*
X121599849Y-42838259D01*
X121599849Y-42838259D02*
X121695087Y-42885878D01*
X121695087Y-42885878D02*
X121742706Y-42933497D01*
X121742706Y-42933497D02*
X121790325Y-43028735D01*
X121790325Y-43028735D02*
X121790325Y-43123973D01*
X121790325Y-43123973D02*
X121742706Y-43266830D01*
X121742706Y-43266830D02*
X121171278Y-43838259D01*
X121171278Y-43838259D02*
X121790325Y-43838259D01*
X122742706Y-43838259D02*
X122171278Y-43838259D01*
X122456992Y-43838259D02*
X122456992Y-42838259D01*
X122456992Y-42838259D02*
X122361754Y-42981116D01*
X122361754Y-42981116D02*
X122266516Y-43076354D01*
X122266516Y-43076354D02*
X122171278Y-43123973D01*
X123076040Y-42838259D02*
X123695087Y-42838259D01*
X123695087Y-42838259D02*
X123361754Y-43219211D01*
X123361754Y-43219211D02*
X123504611Y-43219211D01*
X123504611Y-43219211D02*
X123599849Y-43266830D01*
X123599849Y-43266830D02*
X123647468Y-43314449D01*
X123647468Y-43314449D02*
X123695087Y-43409687D01*
X123695087Y-43409687D02*
X123695087Y-43647782D01*
X123695087Y-43647782D02*
X123647468Y-43743020D01*
X123647468Y-43743020D02*
X123599849Y-43790640D01*
X123599849Y-43790640D02*
X123504611Y-43838259D01*
X123504611Y-43838259D02*
X123218897Y-43838259D01*
X123218897Y-43838259D02*
X123123659Y-43790640D01*
X123123659Y-43790640D02*
X123076040Y-43743020D01*
X124076040Y-43790640D02*
X124218897Y-43838259D01*
X124218897Y-43838259D02*
X124456992Y-43838259D01*
X124456992Y-43838259D02*
X124552230Y-43790640D01*
X124552230Y-43790640D02*
X124599849Y-43743020D01*
X124599849Y-43743020D02*
X124647468Y-43647782D01*
X124647468Y-43647782D02*
X124647468Y-43552544D01*
X124647468Y-43552544D02*
X124599849Y-43457306D01*
X124599849Y-43457306D02*
X124552230Y-43409687D01*
X124552230Y-43409687D02*
X124456992Y-43362068D01*
X124456992Y-43362068D02*
X124266516Y-43314449D01*
X124266516Y-43314449D02*
X124171278Y-43266830D01*
X124171278Y-43266830D02*
X124123659Y-43219211D01*
X124123659Y-43219211D02*
X124076040Y-43123973D01*
X124076040Y-43123973D02*
X124076040Y-43028735D01*
X124076040Y-43028735D02*
X124123659Y-42933497D01*
X124123659Y-42933497D02*
X124171278Y-42885878D01*
X124171278Y-42885878D02*
X124266516Y-42838259D01*
X124266516Y-42838259D02*
X124504611Y-42838259D01*
X124504611Y-42838259D02*
X124647468Y-42885878D01*
X124837945Y-43933497D02*
X125599849Y-43933497D01*
X125790326Y-43790640D02*
X125933183Y-43838259D01*
X125933183Y-43838259D02*
X126171278Y-43838259D01*
X126171278Y-43838259D02*
X126266516Y-43790640D01*
X126266516Y-43790640D02*
X126314135Y-43743020D01*
X126314135Y-43743020D02*
X126361754Y-43647782D01*
X126361754Y-43647782D02*
X126361754Y-43552544D01*
X126361754Y-43552544D02*
X126314135Y-43457306D01*
X126314135Y-43457306D02*
X126266516Y-43409687D01*
X126266516Y-43409687D02*
X126171278Y-43362068D01*
X126171278Y-43362068D02*
X125980802Y-43314449D01*
X125980802Y-43314449D02*
X125885564Y-43266830D01*
X125885564Y-43266830D02*
X125837945Y-43219211D01*
X125837945Y-43219211D02*
X125790326Y-43123973D01*
X125790326Y-43123973D02*
X125790326Y-43028735D01*
X125790326Y-43028735D02*
X125837945Y-42933497D01*
X125837945Y-42933497D02*
X125885564Y-42885878D01*
X125885564Y-42885878D02*
X125980802Y-42838259D01*
X125980802Y-42838259D02*
X126218897Y-42838259D01*
X126218897Y-42838259D02*
X126361754Y-42885878D01*
X126790326Y-43314449D02*
X127123659Y-43314449D01*
X127266516Y-43838259D02*
X126790326Y-43838259D01*
X126790326Y-43838259D02*
X126790326Y-42838259D01*
X126790326Y-42838259D02*
X127266516Y-42838259D01*
X127885564Y-42838259D02*
X127980802Y-42838259D01*
X127980802Y-42838259D02*
X128076040Y-42885878D01*
X128076040Y-42885878D02*
X128123659Y-42933497D01*
X128123659Y-42933497D02*
X128171278Y-43028735D01*
X128171278Y-43028735D02*
X128218897Y-43219211D01*
X128218897Y-43219211D02*
X128218897Y-43457306D01*
X128218897Y-43457306D02*
X128171278Y-43647782D01*
X128171278Y-43647782D02*
X128123659Y-43743020D01*
X128123659Y-43743020D02*
X128076040Y-43790640D01*
X128076040Y-43790640D02*
X127980802Y-43838259D01*
X127980802Y-43838259D02*
X127885564Y-43838259D01*
X127885564Y-43838259D02*
X127790326Y-43790640D01*
X127790326Y-43790640D02*
X127742707Y-43743020D01*
X127742707Y-43743020D02*
X127695088Y-43647782D01*
X127695088Y-43647782D02*
X127647469Y-43457306D01*
X127647469Y-43457306D02*
X127647469Y-43219211D01*
X127647469Y-43219211D02*
X127695088Y-43028735D01*
X127695088Y-43028735D02*
X127742707Y-42933497D01*
X127742707Y-42933497D02*
X127790326Y-42885878D01*
X127790326Y-42885878D02*
X127885564Y-42838259D01*
X129123659Y-42838259D02*
X128647469Y-42838259D01*
X128647469Y-42838259D02*
X128599850Y-43314449D01*
X128599850Y-43314449D02*
X128647469Y-43266830D01*
X128647469Y-43266830D02*
X128742707Y-43219211D01*
X128742707Y-43219211D02*
X128980802Y-43219211D01*
X128980802Y-43219211D02*
X129076040Y-43266830D01*
X129076040Y-43266830D02*
X129123659Y-43314449D01*
X129123659Y-43314449D02*
X129171278Y-43409687D01*
X129171278Y-43409687D02*
X129171278Y-43647782D01*
X129171278Y-43647782D02*
X129123659Y-43743020D01*
X129123659Y-43743020D02*
X129076040Y-43790640D01*
X129076040Y-43790640D02*
X128980802Y-43838259D01*
X128980802Y-43838259D02*
X128742707Y-43838259D01*
X128742707Y-43838259D02*
X128647469Y-43790640D01*
X128647469Y-43790640D02*
X128599850Y-43743020D01*
X129790326Y-42838259D02*
X129885564Y-42838259D01*
X129885564Y-42838259D02*
X129980802Y-42885878D01*
X129980802Y-42885878D02*
X130028421Y-42933497D01*
X130028421Y-42933497D02*
X130076040Y-43028735D01*
X130076040Y-43028735D02*
X130123659Y-43219211D01*
X130123659Y-43219211D02*
X130123659Y-43457306D01*
X130123659Y-43457306D02*
X130076040Y-43647782D01*
X130076040Y-43647782D02*
X130028421Y-43743020D01*
X130028421Y-43743020D02*
X129980802Y-43790640D01*
X129980802Y-43790640D02*
X129885564Y-43838259D01*
X129885564Y-43838259D02*
X129790326Y-43838259D01*
X129790326Y-43838259D02*
X129695088Y-43790640D01*
X129695088Y-43790640D02*
X129647469Y-43743020D01*
X129647469Y-43743020D02*
X129599850Y-43647782D01*
X129599850Y-43647782D02*
X129552231Y-43457306D01*
X129552231Y-43457306D02*
X129552231Y-43219211D01*
X129552231Y-43219211D02*
X129599850Y-43028735D01*
X129599850Y-43028735D02*
X129647469Y-42933497D01*
X129647469Y-42933497D02*
X129695088Y-42885878D01*
X129695088Y-42885878D02*
X129790326Y-42838259D01*
X130314136Y-43933497D02*
X131076040Y-43933497D01*
X131647469Y-43314449D02*
X131790326Y-43362068D01*
X131790326Y-43362068D02*
X131837945Y-43409687D01*
X131837945Y-43409687D02*
X131885564Y-43504925D01*
X131885564Y-43504925D02*
X131885564Y-43647782D01*
X131885564Y-43647782D02*
X131837945Y-43743020D01*
X131837945Y-43743020D02*
X131790326Y-43790640D01*
X131790326Y-43790640D02*
X131695088Y-43838259D01*
X131695088Y-43838259D02*
X131314136Y-43838259D01*
X131314136Y-43838259D02*
X131314136Y-42838259D01*
X131314136Y-42838259D02*
X131647469Y-42838259D01*
X131647469Y-42838259D02*
X131742707Y-42885878D01*
X131742707Y-42885878D02*
X131790326Y-42933497D01*
X131790326Y-42933497D02*
X131837945Y-43028735D01*
X131837945Y-43028735D02*
X131837945Y-43123973D01*
X131837945Y-43123973D02*
X131790326Y-43219211D01*
X131790326Y-43219211D02*
X131742707Y-43266830D01*
X131742707Y-43266830D02*
X131647469Y-43314449D01*
X131647469Y-43314449D02*
X131314136Y-43314449D01*
X132314136Y-43838259D02*
X132314136Y-43171592D01*
X132314136Y-43362068D02*
X132361755Y-43266830D01*
X132361755Y-43266830D02*
X132409374Y-43219211D01*
X132409374Y-43219211D02*
X132504612Y-43171592D01*
X132504612Y-43171592D02*
X132599850Y-43171592D01*
X133314136Y-43790640D02*
X133218898Y-43838259D01*
X133218898Y-43838259D02*
X133028422Y-43838259D01*
X133028422Y-43838259D02*
X132933184Y-43790640D01*
X132933184Y-43790640D02*
X132885565Y-43695401D01*
X132885565Y-43695401D02*
X132885565Y-43314449D01*
X132885565Y-43314449D02*
X132933184Y-43219211D01*
X132933184Y-43219211D02*
X133028422Y-43171592D01*
X133028422Y-43171592D02*
X133218898Y-43171592D01*
X133218898Y-43171592D02*
X133314136Y-43219211D01*
X133314136Y-43219211D02*
X133361755Y-43314449D01*
X133361755Y-43314449D02*
X133361755Y-43409687D01*
X133361755Y-43409687D02*
X132885565Y-43504925D01*
X134218898Y-43838259D02*
X134218898Y-43314449D01*
X134218898Y-43314449D02*
X134171279Y-43219211D01*
X134171279Y-43219211D02*
X134076041Y-43171592D01*
X134076041Y-43171592D02*
X133885565Y-43171592D01*
X133885565Y-43171592D02*
X133790327Y-43219211D01*
X134218898Y-43790640D02*
X134123660Y-43838259D01*
X134123660Y-43838259D02*
X133885565Y-43838259D01*
X133885565Y-43838259D02*
X133790327Y-43790640D01*
X133790327Y-43790640D02*
X133742708Y-43695401D01*
X133742708Y-43695401D02*
X133742708Y-43600163D01*
X133742708Y-43600163D02*
X133790327Y-43504925D01*
X133790327Y-43504925D02*
X133885565Y-43457306D01*
X133885565Y-43457306D02*
X134123660Y-43457306D01*
X134123660Y-43457306D02*
X134218898Y-43409687D01*
X134695089Y-43838259D02*
X134695089Y-42838259D01*
X134790327Y-43457306D02*
X135076041Y-43838259D01*
X135076041Y-43171592D02*
X134695089Y-43552544D01*
X135647470Y-43838259D02*
X135552232Y-43790640D01*
X135552232Y-43790640D02*
X135504613Y-43743020D01*
X135504613Y-43743020D02*
X135456994Y-43647782D01*
X135456994Y-43647782D02*
X135456994Y-43362068D01*
X135456994Y-43362068D02*
X135504613Y-43266830D01*
X135504613Y-43266830D02*
X135552232Y-43219211D01*
X135552232Y-43219211D02*
X135647470Y-43171592D01*
X135647470Y-43171592D02*
X135790327Y-43171592D01*
X135790327Y-43171592D02*
X135885565Y-43219211D01*
X135885565Y-43219211D02*
X135933184Y-43266830D01*
X135933184Y-43266830D02*
X135980803Y-43362068D01*
X135980803Y-43362068D02*
X135980803Y-43647782D01*
X135980803Y-43647782D02*
X135933184Y-43743020D01*
X135933184Y-43743020D02*
X135885565Y-43790640D01*
X135885565Y-43790640D02*
X135790327Y-43838259D01*
X135790327Y-43838259D02*
X135647470Y-43838259D01*
X136837946Y-43171592D02*
X136837946Y-43838259D01*
X136409375Y-43171592D02*
X136409375Y-43695401D01*
X136409375Y-43695401D02*
X136456994Y-43790640D01*
X136456994Y-43790640D02*
X136552232Y-43838259D01*
X136552232Y-43838259D02*
X136695089Y-43838259D01*
X136695089Y-43838259D02*
X136790327Y-43790640D01*
X136790327Y-43790640D02*
X136837946Y-43743020D01*
X137171280Y-43171592D02*
X137552232Y-43171592D01*
X137314137Y-42838259D02*
X137314137Y-43695401D01*
X137314137Y-43695401D02*
X137361756Y-43790640D01*
X137361756Y-43790640D02*
X137456994Y-43838259D01*
X137456994Y-43838259D02*
X137552232Y-43838259D01*
X97928897Y-57110640D02*
X98071754Y-57158259D01*
X98071754Y-57158259D02*
X98309849Y-57158259D01*
X98309849Y-57158259D02*
X98405087Y-57110640D01*
X98405087Y-57110640D02*
X98452706Y-57063020D01*
X98452706Y-57063020D02*
X98500325Y-56967782D01*
X98500325Y-56967782D02*
X98500325Y-56872544D01*
X98500325Y-56872544D02*
X98452706Y-56777306D01*
X98452706Y-56777306D02*
X98405087Y-56729687D01*
X98405087Y-56729687D02*
X98309849Y-56682068D01*
X98309849Y-56682068D02*
X98119373Y-56634449D01*
X98119373Y-56634449D02*
X98024135Y-56586830D01*
X98024135Y-56586830D02*
X97976516Y-56539211D01*
X97976516Y-56539211D02*
X97928897Y-56443973D01*
X97928897Y-56443973D02*
X97928897Y-56348735D01*
X97928897Y-56348735D02*
X97976516Y-56253497D01*
X97976516Y-56253497D02*
X98024135Y-56205878D01*
X98024135Y-56205878D02*
X98119373Y-56158259D01*
X98119373Y-56158259D02*
X98357468Y-56158259D01*
X98357468Y-56158259D02*
X98500325Y-56205878D01*
X98928897Y-56634449D02*
X99262230Y-56634449D01*
X99405087Y-57158259D02*
X98928897Y-57158259D01*
X98928897Y-57158259D02*
X98928897Y-56158259D01*
X98928897Y-56158259D02*
X99405087Y-56158259D01*
X100024135Y-56158259D02*
X100119373Y-56158259D01*
X100119373Y-56158259D02*
X100214611Y-56205878D01*
X100214611Y-56205878D02*
X100262230Y-56253497D01*
X100262230Y-56253497D02*
X100309849Y-56348735D01*
X100309849Y-56348735D02*
X100357468Y-56539211D01*
X100357468Y-56539211D02*
X100357468Y-56777306D01*
X100357468Y-56777306D02*
X100309849Y-56967782D01*
X100309849Y-56967782D02*
X100262230Y-57063020D01*
X100262230Y-57063020D02*
X100214611Y-57110640D01*
X100214611Y-57110640D02*
X100119373Y-57158259D01*
X100119373Y-57158259D02*
X100024135Y-57158259D01*
X100024135Y-57158259D02*
X99928897Y-57110640D01*
X99928897Y-57110640D02*
X99881278Y-57063020D01*
X99881278Y-57063020D02*
X99833659Y-56967782D01*
X99833659Y-56967782D02*
X99786040Y-56777306D01*
X99786040Y-56777306D02*
X99786040Y-56539211D01*
X99786040Y-56539211D02*
X99833659Y-56348735D01*
X99833659Y-56348735D02*
X99881278Y-56253497D01*
X99881278Y-56253497D02*
X99928897Y-56205878D01*
X99928897Y-56205878D02*
X100024135Y-56158259D01*
X101262230Y-56158259D02*
X100786040Y-56158259D01*
X100786040Y-56158259D02*
X100738421Y-56634449D01*
X100738421Y-56634449D02*
X100786040Y-56586830D01*
X100786040Y-56586830D02*
X100881278Y-56539211D01*
X100881278Y-56539211D02*
X101119373Y-56539211D01*
X101119373Y-56539211D02*
X101214611Y-56586830D01*
X101214611Y-56586830D02*
X101262230Y-56634449D01*
X101262230Y-56634449D02*
X101309849Y-56729687D01*
X101309849Y-56729687D02*
X101309849Y-56967782D01*
X101309849Y-56967782D02*
X101262230Y-57063020D01*
X101262230Y-57063020D02*
X101214611Y-57110640D01*
X101214611Y-57110640D02*
X101119373Y-57158259D01*
X101119373Y-57158259D02*
X100881278Y-57158259D01*
X100881278Y-57158259D02*
X100786040Y-57110640D01*
X100786040Y-57110640D02*
X100738421Y-57063020D01*
X101928897Y-56158259D02*
X102024135Y-56158259D01*
X102024135Y-56158259D02*
X102119373Y-56205878D01*
X102119373Y-56205878D02*
X102166992Y-56253497D01*
X102166992Y-56253497D02*
X102214611Y-56348735D01*
X102214611Y-56348735D02*
X102262230Y-56539211D01*
X102262230Y-56539211D02*
X102262230Y-56777306D01*
X102262230Y-56777306D02*
X102214611Y-56967782D01*
X102214611Y-56967782D02*
X102166992Y-57063020D01*
X102166992Y-57063020D02*
X102119373Y-57110640D01*
X102119373Y-57110640D02*
X102024135Y-57158259D01*
X102024135Y-57158259D02*
X101928897Y-57158259D01*
X101928897Y-57158259D02*
X101833659Y-57110640D01*
X101833659Y-57110640D02*
X101786040Y-57063020D01*
X101786040Y-57063020D02*
X101738421Y-56967782D01*
X101738421Y-56967782D02*
X101690802Y-56777306D01*
X101690802Y-56777306D02*
X101690802Y-56539211D01*
X101690802Y-56539211D02*
X101738421Y-56348735D01*
X101738421Y-56348735D02*
X101786040Y-56253497D01*
X101786040Y-56253497D02*
X101833659Y-56205878D01*
X101833659Y-56205878D02*
X101928897Y-56158259D01*
X117205087Y-46450640D02*
X117109849Y-46498259D01*
X117109849Y-46498259D02*
X116919373Y-46498259D01*
X116919373Y-46498259D02*
X116824135Y-46450640D01*
X116824135Y-46450640D02*
X116776516Y-46403020D01*
X116776516Y-46403020D02*
X116728897Y-46307782D01*
X116728897Y-46307782D02*
X116728897Y-46022068D01*
X116728897Y-46022068D02*
X116776516Y-45926830D01*
X116776516Y-45926830D02*
X116824135Y-45879211D01*
X116824135Y-45879211D02*
X116919373Y-45831592D01*
X116919373Y-45831592D02*
X117109849Y-45831592D01*
X117109849Y-45831592D02*
X117205087Y-45879211D01*
X117538421Y-45831592D02*
X117776516Y-46498259D01*
X117776516Y-46498259D02*
X118014611Y-45831592D01*
X118824135Y-46498259D02*
X118824135Y-45974449D01*
X118824135Y-45974449D02*
X118776516Y-45879211D01*
X118776516Y-45879211D02*
X118681278Y-45831592D01*
X118681278Y-45831592D02*
X118490802Y-45831592D01*
X118490802Y-45831592D02*
X118395564Y-45879211D01*
X118824135Y-46450640D02*
X118728897Y-46498259D01*
X118728897Y-46498259D02*
X118490802Y-46498259D01*
X118490802Y-46498259D02*
X118395564Y-46450640D01*
X118395564Y-46450640D02*
X118347945Y-46355401D01*
X118347945Y-46355401D02*
X118347945Y-46260163D01*
X118347945Y-46260163D02*
X118395564Y-46164925D01*
X118395564Y-46164925D02*
X118490802Y-46117306D01*
X118490802Y-46117306D02*
X118728897Y-46117306D01*
X118728897Y-46117306D02*
X118824135Y-46069687D01*
X119443183Y-46498259D02*
X119347945Y-46450640D01*
X119347945Y-46450640D02*
X119300326Y-46355401D01*
X119300326Y-46355401D02*
X119300326Y-45498259D01*
X120252707Y-46498259D02*
X120252707Y-45498259D01*
X120252707Y-46450640D02*
X120157469Y-46498259D01*
X120157469Y-46498259D02*
X119966993Y-46498259D01*
X119966993Y-46498259D02*
X119871755Y-46450640D01*
X119871755Y-46450640D02*
X119824136Y-46403020D01*
X119824136Y-46403020D02*
X119776517Y-46307782D01*
X119776517Y-46307782D02*
X119776517Y-46022068D01*
X119776517Y-46022068D02*
X119824136Y-45926830D01*
X119824136Y-45926830D02*
X119871755Y-45879211D01*
X119871755Y-45879211D02*
X119966993Y-45831592D01*
X119966993Y-45831592D02*
X120157469Y-45831592D01*
X120157469Y-45831592D02*
X120252707Y-45879211D01*
X121109850Y-46450640D02*
X121014612Y-46498259D01*
X121014612Y-46498259D02*
X120824136Y-46498259D01*
X120824136Y-46498259D02*
X120728898Y-46450640D01*
X120728898Y-46450640D02*
X120681279Y-46355401D01*
X120681279Y-46355401D02*
X120681279Y-45974449D01*
X120681279Y-45974449D02*
X120728898Y-45879211D01*
X120728898Y-45879211D02*
X120824136Y-45831592D01*
X120824136Y-45831592D02*
X121014612Y-45831592D01*
X121014612Y-45831592D02*
X121109850Y-45879211D01*
X121109850Y-45879211D02*
X121157469Y-45974449D01*
X121157469Y-45974449D02*
X121157469Y-46069687D01*
X121157469Y-46069687D02*
X120681279Y-46164925D01*
X121538422Y-46450640D02*
X121633660Y-46498259D01*
X121633660Y-46498259D02*
X121824136Y-46498259D01*
X121824136Y-46498259D02*
X121919374Y-46450640D01*
X121919374Y-46450640D02*
X121966993Y-46355401D01*
X121966993Y-46355401D02*
X121966993Y-46307782D01*
X121966993Y-46307782D02*
X121919374Y-46212544D01*
X121919374Y-46212544D02*
X121824136Y-46164925D01*
X121824136Y-46164925D02*
X121681279Y-46164925D01*
X121681279Y-46164925D02*
X121586041Y-46117306D01*
X121586041Y-46117306D02*
X121538422Y-46022068D01*
X121538422Y-46022068D02*
X121538422Y-45974449D01*
X121538422Y-45974449D02*
X121586041Y-45879211D01*
X121586041Y-45879211D02*
X121681279Y-45831592D01*
X121681279Y-45831592D02*
X121824136Y-45831592D01*
X121824136Y-45831592D02*
X121919374Y-45879211D01*
X122347946Y-46450640D02*
X122443184Y-46498259D01*
X122443184Y-46498259D02*
X122633660Y-46498259D01*
X122633660Y-46498259D02*
X122728898Y-46450640D01*
X122728898Y-46450640D02*
X122776517Y-46355401D01*
X122776517Y-46355401D02*
X122776517Y-46307782D01*
X122776517Y-46307782D02*
X122728898Y-46212544D01*
X122728898Y-46212544D02*
X122633660Y-46164925D01*
X122633660Y-46164925D02*
X122490803Y-46164925D01*
X122490803Y-46164925D02*
X122395565Y-46117306D01*
X122395565Y-46117306D02*
X122347946Y-46022068D01*
X122347946Y-46022068D02*
X122347946Y-45974449D01*
X122347946Y-45974449D02*
X122395565Y-45879211D01*
X122395565Y-45879211D02*
X122490803Y-45831592D01*
X122490803Y-45831592D02*
X122633660Y-45831592D01*
X122633660Y-45831592D02*
X122728898Y-45879211D01*
X123824136Y-46022068D02*
X123776517Y-45974449D01*
X123776517Y-45974449D02*
X123681279Y-45926830D01*
X123681279Y-45926830D02*
X123586041Y-45926830D01*
X123586041Y-45926830D02*
X123490803Y-45974449D01*
X123490803Y-45974449D02*
X123443184Y-46022068D01*
X123443184Y-46022068D02*
X123395565Y-46117306D01*
X123395565Y-46117306D02*
X123395565Y-46212544D01*
X123395565Y-46212544D02*
X123443184Y-46307782D01*
X123443184Y-46307782D02*
X123490803Y-46355401D01*
X123490803Y-46355401D02*
X123586041Y-46403020D01*
X123586041Y-46403020D02*
X123681279Y-46403020D01*
X123681279Y-46403020D02*
X123776517Y-46355401D01*
X123776517Y-46355401D02*
X123824136Y-46307782D01*
X123824136Y-45926830D02*
X123824136Y-46307782D01*
X123824136Y-46307782D02*
X123871755Y-46355401D01*
X123871755Y-46355401D02*
X123919374Y-46355401D01*
X123919374Y-46355401D02*
X124014613Y-46307782D01*
X124014613Y-46307782D02*
X124062232Y-46212544D01*
X124062232Y-46212544D02*
X124062232Y-45974449D01*
X124062232Y-45974449D02*
X123966994Y-45831592D01*
X123966994Y-45831592D02*
X123824136Y-45736354D01*
X123824136Y-45736354D02*
X123633660Y-45688735D01*
X123633660Y-45688735D02*
X123443184Y-45736354D01*
X123443184Y-45736354D02*
X123300327Y-45831592D01*
X123300327Y-45831592D02*
X123205089Y-45974449D01*
X123205089Y-45974449D02*
X123157470Y-46164925D01*
X123157470Y-46164925D02*
X123205089Y-46355401D01*
X123205089Y-46355401D02*
X123300327Y-46498259D01*
X123300327Y-46498259D02*
X123443184Y-46593497D01*
X123443184Y-46593497D02*
X123633660Y-46641116D01*
X123633660Y-46641116D02*
X123824136Y-46593497D01*
X123824136Y-46593497D02*
X123966994Y-46498259D01*
X124919374Y-46450640D02*
X124824136Y-46498259D01*
X124824136Y-46498259D02*
X124633660Y-46498259D01*
X124633660Y-46498259D02*
X124538422Y-46450640D01*
X124538422Y-46450640D02*
X124490803Y-46403020D01*
X124490803Y-46403020D02*
X124443184Y-46307782D01*
X124443184Y-46307782D02*
X124443184Y-46022068D01*
X124443184Y-46022068D02*
X124490803Y-45926830D01*
X124490803Y-45926830D02*
X124538422Y-45879211D01*
X124538422Y-45879211D02*
X124633660Y-45831592D01*
X124633660Y-45831592D02*
X124824136Y-45831592D01*
X124824136Y-45831592D02*
X124919374Y-45879211D01*
X125252708Y-45831592D02*
X125490803Y-46498259D01*
X125490803Y-46498259D02*
X125728898Y-45831592D01*
X126538422Y-46498259D02*
X126538422Y-45974449D01*
X126538422Y-45974449D02*
X126490803Y-45879211D01*
X126490803Y-45879211D02*
X126395565Y-45831592D01*
X126395565Y-45831592D02*
X126205089Y-45831592D01*
X126205089Y-45831592D02*
X126109851Y-45879211D01*
X126538422Y-46450640D02*
X126443184Y-46498259D01*
X126443184Y-46498259D02*
X126205089Y-46498259D01*
X126205089Y-46498259D02*
X126109851Y-46450640D01*
X126109851Y-46450640D02*
X126062232Y-46355401D01*
X126062232Y-46355401D02*
X126062232Y-46260163D01*
X126062232Y-46260163D02*
X126109851Y-46164925D01*
X126109851Y-46164925D02*
X126205089Y-46117306D01*
X126205089Y-46117306D02*
X126443184Y-46117306D01*
X126443184Y-46117306D02*
X126538422Y-46069687D01*
X127157470Y-46498259D02*
X127062232Y-46450640D01*
X127062232Y-46450640D02*
X127014613Y-46355401D01*
X127014613Y-46355401D02*
X127014613Y-45498259D01*
X127966994Y-46498259D02*
X127966994Y-45498259D01*
X127966994Y-46450640D02*
X127871756Y-46498259D01*
X127871756Y-46498259D02*
X127681280Y-46498259D01*
X127681280Y-46498259D02*
X127586042Y-46450640D01*
X127586042Y-46450640D02*
X127538423Y-46403020D01*
X127538423Y-46403020D02*
X127490804Y-46307782D01*
X127490804Y-46307782D02*
X127490804Y-46022068D01*
X127490804Y-46022068D02*
X127538423Y-45926830D01*
X127538423Y-45926830D02*
X127586042Y-45879211D01*
X127586042Y-45879211D02*
X127681280Y-45831592D01*
X127681280Y-45831592D02*
X127871756Y-45831592D01*
X127871756Y-45831592D02*
X127966994Y-45879211D01*
X128824137Y-46450640D02*
X128728899Y-46498259D01*
X128728899Y-46498259D02*
X128538423Y-46498259D01*
X128538423Y-46498259D02*
X128443185Y-46450640D01*
X128443185Y-46450640D02*
X128395566Y-46355401D01*
X128395566Y-46355401D02*
X128395566Y-45974449D01*
X128395566Y-45974449D02*
X128443185Y-45879211D01*
X128443185Y-45879211D02*
X128538423Y-45831592D01*
X128538423Y-45831592D02*
X128728899Y-45831592D01*
X128728899Y-45831592D02*
X128824137Y-45879211D01*
X128824137Y-45879211D02*
X128871756Y-45974449D01*
X128871756Y-45974449D02*
X128871756Y-46069687D01*
X128871756Y-46069687D02*
X128395566Y-46164925D01*
X129252709Y-46450640D02*
X129347947Y-46498259D01*
X129347947Y-46498259D02*
X129538423Y-46498259D01*
X129538423Y-46498259D02*
X129633661Y-46450640D01*
X129633661Y-46450640D02*
X129681280Y-46355401D01*
X129681280Y-46355401D02*
X129681280Y-46307782D01*
X129681280Y-46307782D02*
X129633661Y-46212544D01*
X129633661Y-46212544D02*
X129538423Y-46164925D01*
X129538423Y-46164925D02*
X129395566Y-46164925D01*
X129395566Y-46164925D02*
X129300328Y-46117306D01*
X129300328Y-46117306D02*
X129252709Y-46022068D01*
X129252709Y-46022068D02*
X129252709Y-45974449D01*
X129252709Y-45974449D02*
X129300328Y-45879211D01*
X129300328Y-45879211D02*
X129395566Y-45831592D01*
X129395566Y-45831592D02*
X129538423Y-45831592D01*
X129538423Y-45831592D02*
X129633661Y-45879211D01*
X130062233Y-46450640D02*
X130157471Y-46498259D01*
X130157471Y-46498259D02*
X130347947Y-46498259D01*
X130347947Y-46498259D02*
X130443185Y-46450640D01*
X130443185Y-46450640D02*
X130490804Y-46355401D01*
X130490804Y-46355401D02*
X130490804Y-46307782D01*
X130490804Y-46307782D02*
X130443185Y-46212544D01*
X130443185Y-46212544D02*
X130347947Y-46164925D01*
X130347947Y-46164925D02*
X130205090Y-46164925D01*
X130205090Y-46164925D02*
X130109852Y-46117306D01*
X130109852Y-46117306D02*
X130062233Y-46022068D01*
X130062233Y-46022068D02*
X130062233Y-45974449D01*
X130062233Y-45974449D02*
X130109852Y-45879211D01*
X130109852Y-45879211D02*
X130205090Y-45831592D01*
X130205090Y-45831592D02*
X130347947Y-45831592D01*
X130347947Y-45831592D02*
X130443185Y-45879211D01*
X130919376Y-46403020D02*
X130966995Y-46450640D01*
X130966995Y-46450640D02*
X130919376Y-46498259D01*
X130919376Y-46498259D02*
X130871757Y-46450640D01*
X130871757Y-46450640D02*
X130919376Y-46403020D01*
X130919376Y-46403020D02*
X130919376Y-46498259D01*
X131824137Y-46450640D02*
X131728899Y-46498259D01*
X131728899Y-46498259D02*
X131538423Y-46498259D01*
X131538423Y-46498259D02*
X131443185Y-46450640D01*
X131443185Y-46450640D02*
X131395566Y-46403020D01*
X131395566Y-46403020D02*
X131347947Y-46307782D01*
X131347947Y-46307782D02*
X131347947Y-46022068D01*
X131347947Y-46022068D02*
X131395566Y-45926830D01*
X131395566Y-45926830D02*
X131443185Y-45879211D01*
X131443185Y-45879211D02*
X131538423Y-45831592D01*
X131538423Y-45831592D02*
X131728899Y-45831592D01*
X131728899Y-45831592D02*
X131824137Y-45879211D01*
X132395566Y-46498259D02*
X132300328Y-46450640D01*
X132300328Y-46450640D02*
X132252709Y-46403020D01*
X132252709Y-46403020D02*
X132205090Y-46307782D01*
X132205090Y-46307782D02*
X132205090Y-46022068D01*
X132205090Y-46022068D02*
X132252709Y-45926830D01*
X132252709Y-45926830D02*
X132300328Y-45879211D01*
X132300328Y-45879211D02*
X132395566Y-45831592D01*
X132395566Y-45831592D02*
X132538423Y-45831592D01*
X132538423Y-45831592D02*
X132633661Y-45879211D01*
X132633661Y-45879211D02*
X132681280Y-45926830D01*
X132681280Y-45926830D02*
X132728899Y-46022068D01*
X132728899Y-46022068D02*
X132728899Y-46307782D01*
X132728899Y-46307782D02*
X132681280Y-46403020D01*
X132681280Y-46403020D02*
X132633661Y-46450640D01*
X132633661Y-46450640D02*
X132538423Y-46498259D01*
X132538423Y-46498259D02*
X132395566Y-46498259D01*
X133157471Y-46498259D02*
X133157471Y-45831592D01*
X133157471Y-45926830D02*
X133205090Y-45879211D01*
X133205090Y-45879211D02*
X133300328Y-45831592D01*
X133300328Y-45831592D02*
X133443185Y-45831592D01*
X133443185Y-45831592D02*
X133538423Y-45879211D01*
X133538423Y-45879211D02*
X133586042Y-45974449D01*
X133586042Y-45974449D02*
X133586042Y-46498259D01*
X133586042Y-45974449D02*
X133633661Y-45879211D01*
X133633661Y-45879211D02*
X133728899Y-45831592D01*
X133728899Y-45831592D02*
X133871756Y-45831592D01*
X133871756Y-45831592D02*
X133966995Y-45879211D01*
X133966995Y-45879211D02*
X134014614Y-45974449D01*
X134014614Y-45974449D02*
X134014614Y-46498259D01*
X127286516Y-79214449D02*
X127619849Y-79214449D01*
X127762706Y-79738259D02*
X127286516Y-79738259D01*
X127286516Y-79738259D02*
X127286516Y-78738259D01*
X127286516Y-78738259D02*
X127762706Y-78738259D01*
X128334135Y-79166830D02*
X128238897Y-79119211D01*
X128238897Y-79119211D02*
X128191278Y-79071592D01*
X128191278Y-79071592D02*
X128143659Y-78976354D01*
X128143659Y-78976354D02*
X128143659Y-78928735D01*
X128143659Y-78928735D02*
X128191278Y-78833497D01*
X128191278Y-78833497D02*
X128238897Y-78785878D01*
X128238897Y-78785878D02*
X128334135Y-78738259D01*
X128334135Y-78738259D02*
X128524611Y-78738259D01*
X128524611Y-78738259D02*
X128619849Y-78785878D01*
X128619849Y-78785878D02*
X128667468Y-78833497D01*
X128667468Y-78833497D02*
X128715087Y-78928735D01*
X128715087Y-78928735D02*
X128715087Y-78976354D01*
X128715087Y-78976354D02*
X128667468Y-79071592D01*
X128667468Y-79071592D02*
X128619849Y-79119211D01*
X128619849Y-79119211D02*
X128524611Y-79166830D01*
X128524611Y-79166830D02*
X128334135Y-79166830D01*
X128334135Y-79166830D02*
X128238897Y-79214449D01*
X128238897Y-79214449D02*
X128191278Y-79262068D01*
X128191278Y-79262068D02*
X128143659Y-79357306D01*
X128143659Y-79357306D02*
X128143659Y-79547782D01*
X128143659Y-79547782D02*
X128191278Y-79643020D01*
X128191278Y-79643020D02*
X128238897Y-79690640D01*
X128238897Y-79690640D02*
X128334135Y-79738259D01*
X128334135Y-79738259D02*
X128524611Y-79738259D01*
X128524611Y-79738259D02*
X128619849Y-79690640D01*
X128619849Y-79690640D02*
X128667468Y-79643020D01*
X128667468Y-79643020D02*
X128715087Y-79547782D01*
X128715087Y-79547782D02*
X128715087Y-79357306D01*
X128715087Y-79357306D02*
X128667468Y-79262068D01*
X128667468Y-79262068D02*
X128619849Y-79214449D01*
X128619849Y-79214449D02*
X128524611Y-79166830D01*
X129334135Y-78738259D02*
X129429373Y-78738259D01*
X129429373Y-78738259D02*
X129524611Y-78785878D01*
X129524611Y-78785878D02*
X129572230Y-78833497D01*
X129572230Y-78833497D02*
X129619849Y-78928735D01*
X129619849Y-78928735D02*
X129667468Y-79119211D01*
X129667468Y-79119211D02*
X129667468Y-79357306D01*
X129667468Y-79357306D02*
X129619849Y-79547782D01*
X129619849Y-79547782D02*
X129572230Y-79643020D01*
X129572230Y-79643020D02*
X129524611Y-79690640D01*
X129524611Y-79690640D02*
X129429373Y-79738259D01*
X129429373Y-79738259D02*
X129334135Y-79738259D01*
X129334135Y-79738259D02*
X129238897Y-79690640D01*
X129238897Y-79690640D02*
X129191278Y-79643020D01*
X129191278Y-79643020D02*
X129143659Y-79547782D01*
X129143659Y-79547782D02*
X129096040Y-79357306D01*
X129096040Y-79357306D02*
X129096040Y-79119211D01*
X129096040Y-79119211D02*
X129143659Y-78928735D01*
X129143659Y-78928735D02*
X129191278Y-78833497D01*
X129191278Y-78833497D02*
X129238897Y-78785878D01*
X129238897Y-78785878D02*
X129334135Y-78738259D01*
X130096040Y-79357306D02*
X130857945Y-79357306D01*
X131381754Y-79738259D02*
X131572230Y-79738259D01*
X131572230Y-79738259D02*
X131667468Y-79690640D01*
X131667468Y-79690640D02*
X131715087Y-79643020D01*
X131715087Y-79643020D02*
X131810325Y-79500163D01*
X131810325Y-79500163D02*
X131857944Y-79309687D01*
X131857944Y-79309687D02*
X131857944Y-78928735D01*
X131857944Y-78928735D02*
X131810325Y-78833497D01*
X131810325Y-78833497D02*
X131762706Y-78785878D01*
X131762706Y-78785878D02*
X131667468Y-78738259D01*
X131667468Y-78738259D02*
X131476992Y-78738259D01*
X131476992Y-78738259D02*
X131381754Y-78785878D01*
X131381754Y-78785878D02*
X131334135Y-78833497D01*
X131334135Y-78833497D02*
X131286516Y-78928735D01*
X131286516Y-78928735D02*
X131286516Y-79166830D01*
X131286516Y-79166830D02*
X131334135Y-79262068D01*
X131334135Y-79262068D02*
X131381754Y-79309687D01*
X131381754Y-79309687D02*
X131476992Y-79357306D01*
X131476992Y-79357306D02*
X131667468Y-79357306D01*
X131667468Y-79357306D02*
X131762706Y-79309687D01*
X131762706Y-79309687D02*
X131810325Y-79262068D01*
X131810325Y-79262068D02*
X131857944Y-79166830D01*
X132476992Y-78738259D02*
X132572230Y-78738259D01*
X132572230Y-78738259D02*
X132667468Y-78785878D01*
X132667468Y-78785878D02*
X132715087Y-78833497D01*
X132715087Y-78833497D02*
X132762706Y-78928735D01*
X132762706Y-78928735D02*
X132810325Y-79119211D01*
X132810325Y-79119211D02*
X132810325Y-79357306D01*
X132810325Y-79357306D02*
X132762706Y-79547782D01*
X132762706Y-79547782D02*
X132715087Y-79643020D01*
X132715087Y-79643020D02*
X132667468Y-79690640D01*
X132667468Y-79690640D02*
X132572230Y-79738259D01*
X132572230Y-79738259D02*
X132476992Y-79738259D01*
X132476992Y-79738259D02*
X132381754Y-79690640D01*
X132381754Y-79690640D02*
X132334135Y-79643020D01*
X132334135Y-79643020D02*
X132286516Y-79547782D01*
X132286516Y-79547782D02*
X132238897Y-79357306D01*
X132238897Y-79357306D02*
X132238897Y-79119211D01*
X132238897Y-79119211D02*
X132286516Y-78928735D01*
X132286516Y-78928735D02*
X132334135Y-78833497D01*
X132334135Y-78833497D02*
X132381754Y-78785878D01*
X132381754Y-78785878D02*
X132476992Y-78738259D01*
X133429373Y-78738259D02*
X133524611Y-78738259D01*
X133524611Y-78738259D02*
X133619849Y-78785878D01*
X133619849Y-78785878D02*
X133667468Y-78833497D01*
X133667468Y-78833497D02*
X133715087Y-78928735D01*
X133715087Y-78928735D02*
X133762706Y-79119211D01*
X133762706Y-79119211D02*
X133762706Y-79357306D01*
X133762706Y-79357306D02*
X133715087Y-79547782D01*
X133715087Y-79547782D02*
X133667468Y-79643020D01*
X133667468Y-79643020D02*
X133619849Y-79690640D01*
X133619849Y-79690640D02*
X133524611Y-79738259D01*
X133524611Y-79738259D02*
X133429373Y-79738259D01*
X133429373Y-79738259D02*
X133334135Y-79690640D01*
X133334135Y-79690640D02*
X133286516Y-79643020D01*
X133286516Y-79643020D02*
X133238897Y-79547782D01*
X133238897Y-79547782D02*
X133191278Y-79357306D01*
X133191278Y-79357306D02*
X133191278Y-79119211D01*
X133191278Y-79119211D02*
X133238897Y-78928735D01*
X133238897Y-78928735D02*
X133286516Y-78833497D01*
X133286516Y-78833497D02*
X133334135Y-78785878D01*
X133334135Y-78785878D02*
X133429373Y-78738259D01*
X134191278Y-79738259D02*
X134191278Y-78738259D01*
X134191278Y-78738259D02*
X134524611Y-79452544D01*
X134524611Y-79452544D02*
X134857944Y-78738259D01*
X134857944Y-78738259D02*
X134857944Y-79738259D01*
X135286516Y-78833497D02*
X135334135Y-78785878D01*
X135334135Y-78785878D02*
X135429373Y-78738259D01*
X135429373Y-78738259D02*
X135667468Y-78738259D01*
X135667468Y-78738259D02*
X135762706Y-78785878D01*
X135762706Y-78785878D02*
X135810325Y-78833497D01*
X135810325Y-78833497D02*
X135857944Y-78928735D01*
X135857944Y-78928735D02*
X135857944Y-79023973D01*
X135857944Y-79023973D02*
X135810325Y-79166830D01*
X135810325Y-79166830D02*
X135238897Y-79738259D01*
X135238897Y-79738259D02*
X135857944Y-79738259D01*
X136238897Y-78833497D02*
X136286516Y-78785878D01*
X136286516Y-78785878D02*
X136381754Y-78738259D01*
X136381754Y-78738259D02*
X136619849Y-78738259D01*
X136619849Y-78738259D02*
X136715087Y-78785878D01*
X136715087Y-78785878D02*
X136762706Y-78833497D01*
X136762706Y-78833497D02*
X136810325Y-78928735D01*
X136810325Y-78928735D02*
X136810325Y-79023973D01*
X136810325Y-79023973D02*
X136762706Y-79166830D01*
X136762706Y-79166830D02*
X136191278Y-79738259D01*
X136191278Y-79738259D02*
X136810325Y-79738259D01*
X137762706Y-79738259D02*
X137191278Y-79738259D01*
X137476992Y-79738259D02*
X137476992Y-78738259D01*
X137476992Y-78738259D02*
X137381754Y-78881116D01*
X137381754Y-78881116D02*
X137286516Y-78976354D01*
X137286516Y-78976354D02*
X137191278Y-79023973D01*
X138096040Y-78738259D02*
X138715087Y-78738259D01*
X138715087Y-78738259D02*
X138381754Y-79119211D01*
X138381754Y-79119211D02*
X138524611Y-79119211D01*
X138524611Y-79119211D02*
X138619849Y-79166830D01*
X138619849Y-79166830D02*
X138667468Y-79214449D01*
X138667468Y-79214449D02*
X138715087Y-79309687D01*
X138715087Y-79309687D02*
X138715087Y-79547782D01*
X138715087Y-79547782D02*
X138667468Y-79643020D01*
X138667468Y-79643020D02*
X138619849Y-79690640D01*
X138619849Y-79690640D02*
X138524611Y-79738259D01*
X138524611Y-79738259D02*
X138238897Y-79738259D01*
X138238897Y-79738259D02*
X138143659Y-79690640D01*
X138143659Y-79690640D02*
X138096040Y-79643020D01*
X139096040Y-79690640D02*
X139238897Y-79738259D01*
X139238897Y-79738259D02*
X139476992Y-79738259D01*
X139476992Y-79738259D02*
X139572230Y-79690640D01*
X139572230Y-79690640D02*
X139619849Y-79643020D01*
X139619849Y-79643020D02*
X139667468Y-79547782D01*
X139667468Y-79547782D02*
X139667468Y-79452544D01*
X139667468Y-79452544D02*
X139619849Y-79357306D01*
X139619849Y-79357306D02*
X139572230Y-79309687D01*
X139572230Y-79309687D02*
X139476992Y-79262068D01*
X139476992Y-79262068D02*
X139286516Y-79214449D01*
X139286516Y-79214449D02*
X139191278Y-79166830D01*
X139191278Y-79166830D02*
X139143659Y-79119211D01*
X139143659Y-79119211D02*
X139096040Y-79023973D01*
X139096040Y-79023973D02*
X139096040Y-78928735D01*
X139096040Y-78928735D02*
X139143659Y-78833497D01*
X139143659Y-78833497D02*
X139191278Y-78785878D01*
X139191278Y-78785878D02*
X139286516Y-78738259D01*
X139286516Y-78738259D02*
X139524611Y-78738259D01*
X139524611Y-78738259D02*
X139667468Y-78785878D01*
D10*
X110766666Y-46254819D02*
X110766666Y-46969104D01*
X110766666Y-46969104D02*
X110719047Y-47111961D01*
X110719047Y-47111961D02*
X110623809Y-47207200D01*
X110623809Y-47207200D02*
X110480952Y-47254819D01*
X110480952Y-47254819D02*
X110385714Y-47254819D01*
X111766666Y-47254819D02*
X111195238Y-47254819D01*
X111480952Y-47254819D02*
X111480952Y-46254819D01*
X111480952Y-46254819D02*
X111385714Y-46397676D01*
X111385714Y-46397676D02*
X111290476Y-46492914D01*
X111290476Y-46492914D02*
X111195238Y-46540533D01*
X103870833Y-60737080D02*
X103823214Y-60784700D01*
X103823214Y-60784700D02*
X103680357Y-60832319D01*
X103680357Y-60832319D02*
X103585119Y-60832319D01*
X103585119Y-60832319D02*
X103442262Y-60784700D01*
X103442262Y-60784700D02*
X103347024Y-60689461D01*
X103347024Y-60689461D02*
X103299405Y-60594223D01*
X103299405Y-60594223D02*
X103251786Y-60403747D01*
X103251786Y-60403747D02*
X103251786Y-60260890D01*
X103251786Y-60260890D02*
X103299405Y-60070414D01*
X103299405Y-60070414D02*
X103347024Y-59975176D01*
X103347024Y-59975176D02*
X103442262Y-59879938D01*
X103442262Y-59879938D02*
X103585119Y-59832319D01*
X103585119Y-59832319D02*
X103680357Y-59832319D01*
X103680357Y-59832319D02*
X103823214Y-59879938D01*
X103823214Y-59879938D02*
X103870833Y-59927557D01*
X104442262Y-60260890D02*
X104347024Y-60213271D01*
X104347024Y-60213271D02*
X104299405Y-60165652D01*
X104299405Y-60165652D02*
X104251786Y-60070414D01*
X104251786Y-60070414D02*
X104251786Y-60022795D01*
X104251786Y-60022795D02*
X104299405Y-59927557D01*
X104299405Y-59927557D02*
X104347024Y-59879938D01*
X104347024Y-59879938D02*
X104442262Y-59832319D01*
X104442262Y-59832319D02*
X104632738Y-59832319D01*
X104632738Y-59832319D02*
X104727976Y-59879938D01*
X104727976Y-59879938D02*
X104775595Y-59927557D01*
X104775595Y-59927557D02*
X104823214Y-60022795D01*
X104823214Y-60022795D02*
X104823214Y-60070414D01*
X104823214Y-60070414D02*
X104775595Y-60165652D01*
X104775595Y-60165652D02*
X104727976Y-60213271D01*
X104727976Y-60213271D02*
X104632738Y-60260890D01*
X104632738Y-60260890D02*
X104442262Y-60260890D01*
X104442262Y-60260890D02*
X104347024Y-60308509D01*
X104347024Y-60308509D02*
X104299405Y-60356128D01*
X104299405Y-60356128D02*
X104251786Y-60451366D01*
X104251786Y-60451366D02*
X104251786Y-60641842D01*
X104251786Y-60641842D02*
X104299405Y-60737080D01*
X104299405Y-60737080D02*
X104347024Y-60784700D01*
X104347024Y-60784700D02*
X104442262Y-60832319D01*
X104442262Y-60832319D02*
X104632738Y-60832319D01*
X104632738Y-60832319D02*
X104727976Y-60784700D01*
X104727976Y-60784700D02*
X104775595Y-60737080D01*
X104775595Y-60737080D02*
X104823214Y-60641842D01*
X104823214Y-60641842D02*
X104823214Y-60451366D01*
X104823214Y-60451366D02*
X104775595Y-60356128D01*
X104775595Y-60356128D02*
X104727976Y-60308509D01*
X104727976Y-60308509D02*
X104632738Y-60260890D01*
X146529580Y-47246666D02*
X146577200Y-47294285D01*
X146577200Y-47294285D02*
X146624819Y-47437142D01*
X146624819Y-47437142D02*
X146624819Y-47532380D01*
X146624819Y-47532380D02*
X146577200Y-47675237D01*
X146577200Y-47675237D02*
X146481961Y-47770475D01*
X146481961Y-47770475D02*
X146386723Y-47818094D01*
X146386723Y-47818094D02*
X146196247Y-47865713D01*
X146196247Y-47865713D02*
X146053390Y-47865713D01*
X146053390Y-47865713D02*
X145862914Y-47818094D01*
X145862914Y-47818094D02*
X145767676Y-47770475D01*
X145767676Y-47770475D02*
X145672438Y-47675237D01*
X145672438Y-47675237D02*
X145624819Y-47532380D01*
X145624819Y-47532380D02*
X145624819Y-47437142D01*
X145624819Y-47437142D02*
X145672438Y-47294285D01*
X145672438Y-47294285D02*
X145720057Y-47246666D01*
X146624819Y-46770475D02*
X146624819Y-46579999D01*
X146624819Y-46579999D02*
X146577200Y-46484761D01*
X146577200Y-46484761D02*
X146529580Y-46437142D01*
X146529580Y-46437142D02*
X146386723Y-46341904D01*
X146386723Y-46341904D02*
X146196247Y-46294285D01*
X146196247Y-46294285D02*
X145815295Y-46294285D01*
X145815295Y-46294285D02*
X145720057Y-46341904D01*
X145720057Y-46341904D02*
X145672438Y-46389523D01*
X145672438Y-46389523D02*
X145624819Y-46484761D01*
X145624819Y-46484761D02*
X145624819Y-46675237D01*
X145624819Y-46675237D02*
X145672438Y-46770475D01*
X145672438Y-46770475D02*
X145720057Y-46818094D01*
X145720057Y-46818094D02*
X145815295Y-46865713D01*
X145815295Y-46865713D02*
X146053390Y-46865713D01*
X146053390Y-46865713D02*
X146148628Y-46818094D01*
X146148628Y-46818094D02*
X146196247Y-46770475D01*
X146196247Y-46770475D02*
X146243866Y-46675237D01*
X146243866Y-46675237D02*
X146243866Y-46484761D01*
X146243866Y-46484761D02*
X146196247Y-46389523D01*
X146196247Y-46389523D02*
X146148628Y-46341904D01*
X146148628Y-46341904D02*
X146053390Y-46294285D01*
X106667142Y-64709580D02*
X106619523Y-64757200D01*
X106619523Y-64757200D02*
X106476666Y-64804819D01*
X106476666Y-64804819D02*
X106381428Y-64804819D01*
X106381428Y-64804819D02*
X106238571Y-64757200D01*
X106238571Y-64757200D02*
X106143333Y-64661961D01*
X106143333Y-64661961D02*
X106095714Y-64566723D01*
X106095714Y-64566723D02*
X106048095Y-64376247D01*
X106048095Y-64376247D02*
X106048095Y-64233390D01*
X106048095Y-64233390D02*
X106095714Y-64042914D01*
X106095714Y-64042914D02*
X106143333Y-63947676D01*
X106143333Y-63947676D02*
X106238571Y-63852438D01*
X106238571Y-63852438D02*
X106381428Y-63804819D01*
X106381428Y-63804819D02*
X106476666Y-63804819D01*
X106476666Y-63804819D02*
X106619523Y-63852438D01*
X106619523Y-63852438D02*
X106667142Y-63900057D01*
X107619523Y-64804819D02*
X107048095Y-64804819D01*
X107333809Y-64804819D02*
X107333809Y-63804819D01*
X107333809Y-63804819D02*
X107238571Y-63947676D01*
X107238571Y-63947676D02*
X107143333Y-64042914D01*
X107143333Y-64042914D02*
X107048095Y-64090533D01*
X108238571Y-63804819D02*
X108333809Y-63804819D01*
X108333809Y-63804819D02*
X108429047Y-63852438D01*
X108429047Y-63852438D02*
X108476666Y-63900057D01*
X108476666Y-63900057D02*
X108524285Y-63995295D01*
X108524285Y-63995295D02*
X108571904Y-64185771D01*
X108571904Y-64185771D02*
X108571904Y-64423866D01*
X108571904Y-64423866D02*
X108524285Y-64614342D01*
X108524285Y-64614342D02*
X108476666Y-64709580D01*
X108476666Y-64709580D02*
X108429047Y-64757200D01*
X108429047Y-64757200D02*
X108333809Y-64804819D01*
X108333809Y-64804819D02*
X108238571Y-64804819D01*
X108238571Y-64804819D02*
X108143333Y-64757200D01*
X108143333Y-64757200D02*
X108095714Y-64709580D01*
X108095714Y-64709580D02*
X108048095Y-64614342D01*
X108048095Y-64614342D02*
X108000476Y-64423866D01*
X108000476Y-64423866D02*
X108000476Y-64185771D01*
X108000476Y-64185771D02*
X108048095Y-63995295D01*
X108048095Y-63995295D02*
X108095714Y-63900057D01*
X108095714Y-63900057D02*
X108143333Y-63852438D01*
X108143333Y-63852438D02*
X108238571Y-63804819D01*
X103940833Y-64132319D02*
X103607500Y-63656128D01*
X103369405Y-64132319D02*
X103369405Y-63132319D01*
X103369405Y-63132319D02*
X103750357Y-63132319D01*
X103750357Y-63132319D02*
X103845595Y-63179938D01*
X103845595Y-63179938D02*
X103893214Y-63227557D01*
X103893214Y-63227557D02*
X103940833Y-63322795D01*
X103940833Y-63322795D02*
X103940833Y-63465652D01*
X103940833Y-63465652D02*
X103893214Y-63560890D01*
X103893214Y-63560890D02*
X103845595Y-63608509D01*
X103845595Y-63608509D02*
X103750357Y-63656128D01*
X103750357Y-63656128D02*
X103369405Y-63656128D01*
X104274167Y-63132319D02*
X104893214Y-63132319D01*
X104893214Y-63132319D02*
X104559881Y-63513271D01*
X104559881Y-63513271D02*
X104702738Y-63513271D01*
X104702738Y-63513271D02*
X104797976Y-63560890D01*
X104797976Y-63560890D02*
X104845595Y-63608509D01*
X104845595Y-63608509D02*
X104893214Y-63703747D01*
X104893214Y-63703747D02*
X104893214Y-63941842D01*
X104893214Y-63941842D02*
X104845595Y-64037080D01*
X104845595Y-64037080D02*
X104797976Y-64084700D01*
X104797976Y-64084700D02*
X104702738Y-64132319D01*
X104702738Y-64132319D02*
X104417024Y-64132319D01*
X104417024Y-64132319D02*
X104321786Y-64084700D01*
X104321786Y-64084700D02*
X104274167Y-64037080D01*
X93903333Y-67374819D02*
X93570000Y-66898628D01*
X93331905Y-67374819D02*
X93331905Y-66374819D01*
X93331905Y-66374819D02*
X93712857Y-66374819D01*
X93712857Y-66374819D02*
X93808095Y-66422438D01*
X93808095Y-66422438D02*
X93855714Y-66470057D01*
X93855714Y-66470057D02*
X93903333Y-66565295D01*
X93903333Y-66565295D02*
X93903333Y-66708152D01*
X93903333Y-66708152D02*
X93855714Y-66803390D01*
X93855714Y-66803390D02*
X93808095Y-66851009D01*
X93808095Y-66851009D02*
X93712857Y-66898628D01*
X93712857Y-66898628D02*
X93331905Y-66898628D01*
X94808095Y-66374819D02*
X94331905Y-66374819D01*
X94331905Y-66374819D02*
X94284286Y-66851009D01*
X94284286Y-66851009D02*
X94331905Y-66803390D01*
X94331905Y-66803390D02*
X94427143Y-66755771D01*
X94427143Y-66755771D02*
X94665238Y-66755771D01*
X94665238Y-66755771D02*
X94760476Y-66803390D01*
X94760476Y-66803390D02*
X94808095Y-66851009D01*
X94808095Y-66851009D02*
X94855714Y-66946247D01*
X94855714Y-66946247D02*
X94855714Y-67184342D01*
X94855714Y-67184342D02*
X94808095Y-67279580D01*
X94808095Y-67279580D02*
X94760476Y-67327200D01*
X94760476Y-67327200D02*
X94665238Y-67374819D01*
X94665238Y-67374819D02*
X94427143Y-67374819D01*
X94427143Y-67374819D02*
X94331905Y-67327200D01*
X94331905Y-67327200D02*
X94284286Y-67279580D01*
X97253333Y-69394819D02*
X96920000Y-68918628D01*
X96681905Y-69394819D02*
X96681905Y-68394819D01*
X96681905Y-68394819D02*
X97062857Y-68394819D01*
X97062857Y-68394819D02*
X97158095Y-68442438D01*
X97158095Y-68442438D02*
X97205714Y-68490057D01*
X97205714Y-68490057D02*
X97253333Y-68585295D01*
X97253333Y-68585295D02*
X97253333Y-68728152D01*
X97253333Y-68728152D02*
X97205714Y-68823390D01*
X97205714Y-68823390D02*
X97158095Y-68871009D01*
X97158095Y-68871009D02*
X97062857Y-68918628D01*
X97062857Y-68918628D02*
X96681905Y-68918628D01*
X98110476Y-68728152D02*
X98110476Y-69394819D01*
X97872381Y-68347200D02*
X97634286Y-69061485D01*
X97634286Y-69061485D02*
X98253333Y-69061485D01*
X132058095Y-48734819D02*
X132058095Y-49544342D01*
X132058095Y-49544342D02*
X132105714Y-49639580D01*
X132105714Y-49639580D02*
X132153333Y-49687200D01*
X132153333Y-49687200D02*
X132248571Y-49734819D01*
X132248571Y-49734819D02*
X132439047Y-49734819D01*
X132439047Y-49734819D02*
X132534285Y-49687200D01*
X132534285Y-49687200D02*
X132581904Y-49639580D01*
X132581904Y-49639580D02*
X132629523Y-49544342D01*
X132629523Y-49544342D02*
X132629523Y-48734819D01*
X133629523Y-49734819D02*
X133058095Y-49734819D01*
X133343809Y-49734819D02*
X133343809Y-48734819D01*
X133343809Y-48734819D02*
X133248571Y-48877676D01*
X133248571Y-48877676D02*
X133153333Y-48972914D01*
X133153333Y-48972914D02*
X133058095Y-49020533D01*
X107143333Y-60244819D02*
X106810000Y-59768628D01*
X106571905Y-60244819D02*
X106571905Y-59244819D01*
X106571905Y-59244819D02*
X106952857Y-59244819D01*
X106952857Y-59244819D02*
X107048095Y-59292438D01*
X107048095Y-59292438D02*
X107095714Y-59340057D01*
X107095714Y-59340057D02*
X107143333Y-59435295D01*
X107143333Y-59435295D02*
X107143333Y-59578152D01*
X107143333Y-59578152D02*
X107095714Y-59673390D01*
X107095714Y-59673390D02*
X107048095Y-59721009D01*
X107048095Y-59721009D02*
X106952857Y-59768628D01*
X106952857Y-59768628D02*
X106571905Y-59768628D01*
X108000476Y-59244819D02*
X107810000Y-59244819D01*
X107810000Y-59244819D02*
X107714762Y-59292438D01*
X107714762Y-59292438D02*
X107667143Y-59340057D01*
X107667143Y-59340057D02*
X107571905Y-59482914D01*
X107571905Y-59482914D02*
X107524286Y-59673390D01*
X107524286Y-59673390D02*
X107524286Y-60054342D01*
X107524286Y-60054342D02*
X107571905Y-60149580D01*
X107571905Y-60149580D02*
X107619524Y-60197200D01*
X107619524Y-60197200D02*
X107714762Y-60244819D01*
X107714762Y-60244819D02*
X107905238Y-60244819D01*
X107905238Y-60244819D02*
X108000476Y-60197200D01*
X108000476Y-60197200D02*
X108048095Y-60149580D01*
X108048095Y-60149580D02*
X108095714Y-60054342D01*
X108095714Y-60054342D02*
X108095714Y-59816247D01*
X108095714Y-59816247D02*
X108048095Y-59721009D01*
X108048095Y-59721009D02*
X108000476Y-59673390D01*
X108000476Y-59673390D02*
X107905238Y-59625771D01*
X107905238Y-59625771D02*
X107714762Y-59625771D01*
X107714762Y-59625771D02*
X107619524Y-59673390D01*
X107619524Y-59673390D02*
X107571905Y-59721009D01*
X107571905Y-59721009D02*
X107524286Y-59816247D01*
X145149580Y-55316666D02*
X145197200Y-55364285D01*
X145197200Y-55364285D02*
X145244819Y-55507142D01*
X145244819Y-55507142D02*
X145244819Y-55602380D01*
X145244819Y-55602380D02*
X145197200Y-55745237D01*
X145197200Y-55745237D02*
X145101961Y-55840475D01*
X145101961Y-55840475D02*
X145006723Y-55888094D01*
X145006723Y-55888094D02*
X144816247Y-55935713D01*
X144816247Y-55935713D02*
X144673390Y-55935713D01*
X144673390Y-55935713D02*
X144482914Y-55888094D01*
X144482914Y-55888094D02*
X144387676Y-55840475D01*
X144387676Y-55840475D02*
X144292438Y-55745237D01*
X144292438Y-55745237D02*
X144244819Y-55602380D01*
X144244819Y-55602380D02*
X144244819Y-55507142D01*
X144244819Y-55507142D02*
X144292438Y-55364285D01*
X144292438Y-55364285D02*
X144340057Y-55316666D01*
X144244819Y-54411904D02*
X144244819Y-54888094D01*
X144244819Y-54888094D02*
X144721009Y-54935713D01*
X144721009Y-54935713D02*
X144673390Y-54888094D01*
X144673390Y-54888094D02*
X144625771Y-54792856D01*
X144625771Y-54792856D02*
X144625771Y-54554761D01*
X144625771Y-54554761D02*
X144673390Y-54459523D01*
X144673390Y-54459523D02*
X144721009Y-54411904D01*
X144721009Y-54411904D02*
X144816247Y-54364285D01*
X144816247Y-54364285D02*
X145054342Y-54364285D01*
X145054342Y-54364285D02*
X145149580Y-54411904D01*
X145149580Y-54411904D02*
X145197200Y-54459523D01*
X145197200Y-54459523D02*
X145244819Y-54554761D01*
X145244819Y-54554761D02*
X145244819Y-54792856D01*
X145244819Y-54792856D02*
X145197200Y-54888094D01*
X145197200Y-54888094D02*
X145149580Y-54935713D01*
D12*
X94183810Y-57783779D02*
X94183810Y-56783779D01*
X95231428Y-57688540D02*
X95183809Y-57736160D01*
X95183809Y-57736160D02*
X95040952Y-57783779D01*
X95040952Y-57783779D02*
X94945714Y-57783779D01*
X94945714Y-57783779D02*
X94802857Y-57736160D01*
X94802857Y-57736160D02*
X94707619Y-57640921D01*
X94707619Y-57640921D02*
X94660000Y-57545683D01*
X94660000Y-57545683D02*
X94612381Y-57355207D01*
X94612381Y-57355207D02*
X94612381Y-57212350D01*
X94612381Y-57212350D02*
X94660000Y-57021874D01*
X94660000Y-57021874D02*
X94707619Y-56926636D01*
X94707619Y-56926636D02*
X94802857Y-56831398D01*
X94802857Y-56831398D02*
X94945714Y-56783779D01*
X94945714Y-56783779D02*
X95040952Y-56783779D01*
X95040952Y-56783779D02*
X95183809Y-56831398D01*
X95183809Y-56831398D02*
X95231428Y-56879017D01*
X95612381Y-56879017D02*
X95660000Y-56831398D01*
X95660000Y-56831398D02*
X95755238Y-56783779D01*
X95755238Y-56783779D02*
X95993333Y-56783779D01*
X95993333Y-56783779D02*
X96088571Y-56831398D01*
X96088571Y-56831398D02*
X96136190Y-56879017D01*
X96136190Y-56879017D02*
X96183809Y-56974255D01*
X96183809Y-56974255D02*
X96183809Y-57069493D01*
X96183809Y-57069493D02*
X96136190Y-57212350D01*
X96136190Y-57212350D02*
X95564762Y-57783779D01*
X95564762Y-57783779D02*
X96183809Y-57783779D01*
D10*
X103820833Y-62317080D02*
X103773214Y-62364700D01*
X103773214Y-62364700D02*
X103630357Y-62412319D01*
X103630357Y-62412319D02*
X103535119Y-62412319D01*
X103535119Y-62412319D02*
X103392262Y-62364700D01*
X103392262Y-62364700D02*
X103297024Y-62269461D01*
X103297024Y-62269461D02*
X103249405Y-62174223D01*
X103249405Y-62174223D02*
X103201786Y-61983747D01*
X103201786Y-61983747D02*
X103201786Y-61840890D01*
X103201786Y-61840890D02*
X103249405Y-61650414D01*
X103249405Y-61650414D02*
X103297024Y-61555176D01*
X103297024Y-61555176D02*
X103392262Y-61459938D01*
X103392262Y-61459938D02*
X103535119Y-61412319D01*
X103535119Y-61412319D02*
X103630357Y-61412319D01*
X103630357Y-61412319D02*
X103773214Y-61459938D01*
X103773214Y-61459938D02*
X103820833Y-61507557D01*
X104677976Y-61412319D02*
X104487500Y-61412319D01*
X104487500Y-61412319D02*
X104392262Y-61459938D01*
X104392262Y-61459938D02*
X104344643Y-61507557D01*
X104344643Y-61507557D02*
X104249405Y-61650414D01*
X104249405Y-61650414D02*
X104201786Y-61840890D01*
X104201786Y-61840890D02*
X104201786Y-62221842D01*
X104201786Y-62221842D02*
X104249405Y-62317080D01*
X104249405Y-62317080D02*
X104297024Y-62364700D01*
X104297024Y-62364700D02*
X104392262Y-62412319D01*
X104392262Y-62412319D02*
X104582738Y-62412319D01*
X104582738Y-62412319D02*
X104677976Y-62364700D01*
X104677976Y-62364700D02*
X104725595Y-62317080D01*
X104725595Y-62317080D02*
X104773214Y-62221842D01*
X104773214Y-62221842D02*
X104773214Y-61983747D01*
X104773214Y-61983747D02*
X104725595Y-61888509D01*
X104725595Y-61888509D02*
X104677976Y-61840890D01*
X104677976Y-61840890D02*
X104582738Y-61793271D01*
X104582738Y-61793271D02*
X104392262Y-61793271D01*
X104392262Y-61793271D02*
X104297024Y-61840890D01*
X104297024Y-61840890D02*
X104249405Y-61888509D01*
X104249405Y-61888509D02*
X104201786Y-61983747D01*
%TO.C,J1*%
D13*
X109990000Y-47800000D02*
X111100000Y-47800000D01*
X109990000Y-48910000D02*
X109990000Y-47800000D01*
X109990000Y-49910000D02*
X109990000Y-72020000D01*
X109990000Y-49910000D02*
X112210000Y-49910000D01*
X109990000Y-72020000D02*
X112210000Y-72020000D01*
X112210000Y-49910000D02*
X112210000Y-72020000D01*
%TO.C,C8*%
X101276920Y-59817500D02*
X101558080Y-59817500D01*
X101276920Y-60837500D02*
X101558080Y-60837500D01*
%TO.C,C9*%
X140670000Y-44850000D02*
X141870000Y-44850000D01*
X140670000Y-48305563D02*
X140670000Y-44850000D01*
X141120000Y-49860000D02*
X141620000Y-49860000D01*
X141370000Y-50110000D02*
X141370000Y-49610000D01*
X141734437Y-49370000D02*
X140670000Y-48305563D01*
X141734437Y-49370000D02*
X141870000Y-49370000D01*
X144125563Y-49370000D02*
X143990000Y-49370000D01*
X144125563Y-49370000D02*
X145190000Y-48305563D01*
X145190000Y-44850000D02*
X143990000Y-44850000D01*
X145190000Y-48305563D02*
X145190000Y-44850000D01*
%TO.C,C10*%
X107435580Y-62340000D02*
X107154420Y-62340000D01*
X107435580Y-63360000D02*
X107154420Y-63360000D01*
%TO.C,R3*%
X101180242Y-63085000D02*
X101654758Y-63085000D01*
X101180242Y-64130000D02*
X101654758Y-64130000D01*
%TO.C,R5*%
X96297742Y-66397500D02*
X96772258Y-66397500D01*
X96297742Y-67442500D02*
X96772258Y-67442500D01*
%TO.C,R4*%
X99717742Y-68387500D02*
X100192258Y-68387500D01*
X99717742Y-69432500D02*
X100192258Y-69432500D01*
%TO.C,U1*%
X124380000Y-62520000D02*
X124380000Y-72570000D01*
X140680000Y-50920000D02*
X124380000Y-50920000D01*
X140680000Y-62520000D02*
X140680000Y-72570000D01*
X140680000Y-77220000D02*
X124380000Y-77220000D01*
D14*
X124185000Y-51770000D02*
G75*
G02*
X123875000Y-51770000I-155000J0D01*
G01*
X123875000Y-51770000D02*
G75*
G02*
X124185000Y-51770000I155000J0D01*
G01*
%TO.C,R6*%
D13*
X107057742Y-60687500D02*
X107532258Y-60687500D01*
X107057742Y-61732500D02*
X107532258Y-61732500D01*
%TO.C,C5*%
X142420000Y-54974420D02*
X142420000Y-55255580D01*
X143440000Y-54974420D02*
X143440000Y-55255580D01*
%TO.C,IC2*%
D15*
X94997500Y-59247500D02*
G75*
G02*
X94797500Y-59247500I-100000J0D01*
G01*
X94797500Y-59247500D02*
G75*
G02*
X94997500Y-59247500I100000J0D01*
G01*
%TO.C,C6*%
D13*
X101558080Y-61457500D02*
X101276920Y-61457500D01*
X101558080Y-62477500D02*
X101276920Y-62477500D01*
%TD*%
M02*
