%TF.GenerationSoftware,KiCad,Pcbnew,10.0.6*%
%TF.CreationDate,2026-09-26T03:12:19+02:00*%
%TF.ProjectId,E80-900M2213S_SE050_Breakout,4538302d-3930-4304-9d32-323133535f53,rev?*%
%TF.SameCoordinates,Original*%
%TF.FileFunction,Paste,Top*%
%TF.FilePolarity,Positive*%
%FSLAX46Y46*%
G04 Gerber Fmt 4.6, Leading zero omitted, Abs format (unit mm)*
G04 Created by KiCad (PCBNEW 10.0.6) date 2026-09-26 03:12:19*
%MOMM*%
%LPD*%
G01*
G04 APERTURE LIST*
G04 Aperture macros list*
%AMRoundRect*
0 Rectangle with rounded corners*
0 $1 Rounding radius*
0 $2 $3 $4 $5 $6 $7 $8 $9 X,Y pos of 4 corners*
0 Add a 4 corners polygon primitive as box body*
4,1,4,$2,$3,$4,$5,$6,$7,$8,$9,$2,$3,0*
0 Add four circle primitives for the rounded corners*
1,1,$1+$1,$2,$3*
1,1,$1+$1,$4,$5*
1,1,$1+$1,$6,$7*
1,1,$1+$1,$8,$9*
0 Add four rect primitives between the rounded corners*
20,1,$1+$1,$2,$3,$4,$5,0*
20,1,$1+$1,$4,$5,$6,$7,0*
20,1,$1+$1,$6,$7,$8,$9,0*
20,1,$1+$1,$8,$9,$2,$3,0*%
G04 Aperture macros list end*
%ADD10RoundRect,0.225000X-0.225000X-0.250000X0.225000X-0.250000X0.225000X0.250000X-0.225000X0.250000X0*%
%ADD11RoundRect,0.250000X0.550000X-1.050000X0.550000X1.050000X-0.550000X1.050000X-0.550000X-1.050000X0*%
%ADD12RoundRect,0.225000X0.225000X0.250000X-0.225000X0.250000X-0.225000X-0.250000X0.225000X-0.250000X0*%
%ADD13RoundRect,0.200000X-0.200000X-0.275000X0.200000X-0.275000X0.200000X0.275000X-0.200000X0.275000X0*%
%ADD14R,1.500000X0.800000*%
%ADD15RoundRect,0.225000X-0.250000X0.225000X-0.250000X-0.225000X0.250000X-0.225000X0.250000X0.225000X0*%
%ADD16RoundRect,0.187500X-0.187500X-0.187500X0.187500X-0.187500X0.187500X0.187500X-0.187500X0.187500X0*%
%ADD17R,0.700000X0.200000*%
%ADD18R,0.200000X0.700000*%
G04 APERTURE END LIST*
D10*
%TO.C,C8*%
X100642500Y-60327500D03*
X102192500Y-60327500D03*
%TD*%
D11*
%TO.C,C9*%
X142930000Y-48910000D03*
X142930000Y-45310000D03*
%TD*%
D12*
%TO.C,C10*%
X108070000Y-62850000D03*
X106520000Y-62850000D03*
%TD*%
D13*
%TO.C,R3*%
X100592500Y-63607500D03*
X102242500Y-63607500D03*
%TD*%
%TO.C,R5*%
X95710000Y-66920000D03*
X97360000Y-66920000D03*
%TD*%
%TO.C,R4*%
X99130000Y-68910000D03*
X100780000Y-68910000D03*
%TD*%
D14*
%TO.C,U1*%
X124530000Y-53070000D03*
X124530000Y-54340000D03*
X124530000Y-55610000D03*
X124530000Y-56880000D03*
X124530000Y-58150000D03*
X124530000Y-59420000D03*
X124530000Y-60690000D03*
X124530000Y-61960000D03*
X124530000Y-73130000D03*
X124530000Y-74400000D03*
X124530000Y-75670000D03*
X140530000Y-75670000D03*
X140530000Y-74400000D03*
X140530000Y-73130000D03*
X140530000Y-61960000D03*
X140530000Y-60690000D03*
X140530000Y-59420000D03*
X140530000Y-58150000D03*
X140530000Y-56880000D03*
X140530000Y-55610000D03*
X140530000Y-54340000D03*
X140530000Y-53070000D03*
%TD*%
D13*
%TO.C,R6*%
X106470000Y-61210000D03*
X108120000Y-61210000D03*
%TD*%
D15*
%TO.C,C5*%
X142930000Y-54340000D03*
X142930000Y-55890000D03*
%TD*%
D16*
%TO.C,IC2*%
X96310000Y-60160000D03*
X96310000Y-61135000D03*
X97285000Y-60160000D03*
X97285000Y-61135000D03*
D17*
X95247500Y-59847500D03*
X95247500Y-60247500D03*
X95247500Y-60647500D03*
X95247500Y-61047500D03*
X95247500Y-61447500D03*
D18*
X95997500Y-62197500D03*
X96397500Y-62197500D03*
X96797500Y-62197500D03*
X97197500Y-62197500D03*
X97597500Y-62197500D03*
D17*
X98347500Y-61447500D03*
X98347500Y-61047500D03*
X98347500Y-60647500D03*
X98347500Y-60247500D03*
X98347500Y-59847500D03*
D18*
X97597500Y-59097500D03*
X97197500Y-59097500D03*
X96797500Y-59097500D03*
X96397500Y-59097500D03*
X95997500Y-59097500D03*
%TD*%
D12*
%TO.C,C6*%
X102192500Y-61967500D03*
X100642500Y-61967500D03*
%TD*%
M02*
