M48
; DRILL file KiCad 10.0.6 date 2026-09-26T03:12:20
; FORMAT={-:-/ absolute / metric / decimal}
; #@! TF.CreationDate,2026-09-26T03:12:20+02:00
; #@! TF.GenerationSoftware,Kicad,Pcbnew,10.0.6
; #@! TF.FileFunction,Plated,1,2,PTH
FMAT,2
METRIC
; #@! TA.AperFunction,Plated,PTH,ViaDrill
T1C0.300
; #@! TA.AperFunction,Plated,PTH,ComponentDrill
T2C0.500
; #@! TA.AperFunction,Plated,PTH,ComponentDrill
T3C0.800
; #@! TA.AperFunction,Plated,PTH,ComponentDrill
T4C1.300
; #@! TA.AperFunction,Plated,PTH,ComponentDrill
T5C1.550
; #@! TA.AperFunction,Plated,PTH,ComponentDrill
T6C2.700
%
G90
G05
T1
X93.99Y-42.802
X93.99Y-46.392
X93.99Y-49.983
X93.99Y-53.574
X93.99Y-57.165
X93.99Y-60.755
X93.99Y-64.346
X93.99Y-67.937
X93.99Y-76.285
X93.99Y-79.876
X93.99Y-83.467
X94.11Y-87.59
X96.045Y-68.645
X96.797Y-60.647
X98.39Y-87.83
X98.66Y-78.57
X98.79Y-66.91
X98.97Y-63.74
X99.09Y-52.36
X99.3Y-57.09
X100.642Y-59.3
X102.25Y-58.96
X103.48Y-60.34
X103.49Y-61.93
X103.56Y-63.68
X104.01Y-52.62
X104.31Y-47.35
X105.205Y-41.55
X105.44Y-62.75
X105.56Y-87.82
X105.6Y-78.57
X106.53Y-63.93
X109.26Y-50.85
X109.26Y-52.9
X109.26Y-56.93
X109.26Y-65.81
X109.27Y-63.93
X109.28Y-58.84
X109.29Y-54.91
X109.33Y-67.89
X109.34Y-70.82
X109.35Y-60.86
X109.587Y-41.55
X109.84Y-45.3
X111.19Y-72.69
X112.48Y-87.69
X112.54Y-78.57
X112.92Y-65.88
X112.94Y-59.97
X112.94Y-62.07
X112.94Y-63.92
X112.95Y-67.86
X112.97Y-53.88
X112.97Y-57.87
X112.97Y-71.04
X113.0Y-55.89
X113.02Y-51.93
X113.97Y-41.55
X115.85Y-75.52
X115.85Y-76.52
X115.86Y-77.52
X115.86Y-78.52
X115.86Y-79.66
X115.87Y-80.71
X116.1Y-74.37
X116.17Y-85.18
X116.26Y-85.93
X116.29Y-84.32
X116.8Y-76.56
X116.8Y-77.56
X116.81Y-73.41
X116.81Y-78.56
X116.83Y-79.79
X116.91Y-81.03
X117.05Y-75.41
X117.64Y-74.28
X117.8Y-87.43
X118.08Y-72.49
X118.352Y-41.55
X118.46Y-73.51
X118.58Y-87.59
X119.35Y-87.43
X119.43Y-72.02
X119.6Y-72.98
X120.1Y-77.61
X120.11Y-78.61
X120.11Y-79.84
X120.13Y-80.94
X120.22Y-76.6
X120.78Y-71.83
X120.82Y-72.81
X120.83Y-84.32
X120.88Y-75.99
X120.89Y-85.92
X121.0Y-85.09
X121.03Y-78.61
X121.03Y-79.61
X121.03Y-80.75
X121.06Y-77.58
X121.8Y-71.86
X121.82Y-72.81
X121.88Y-75.95
X121.88Y-77.01
X122.735Y-41.55
X122.82Y-71.85
X122.82Y-72.81
X122.86Y-53.01
X122.88Y-75.95
X122.88Y-77.01
X124.44Y-63.86
X124.45Y-51.76
X124.55Y-78.24
X125.09Y-45.3
X125.48Y-87.71
X126.33Y-52.72
X126.33Y-55.1
X126.35Y-57.53
X126.47Y-60.31
X126.79Y-71.57
X126.93Y-68.47
X126.95Y-65.53
X127.117Y-41.55
X128.528Y-78.24
X129.57Y-87.71
X129.88Y-52.68
X129.88Y-55.207
X129.88Y-57.733
X129.88Y-60.26
X130.75Y-71.57
X130.89Y-68.47
X130.91Y-65.53
X131.5Y-41.55
X132.505Y-78.24
X133.04Y-52.66
X133.04Y-55.187
X133.04Y-57.713
X133.04Y-60.24
X133.66Y-87.71
X134.71Y-71.57
X134.85Y-68.47
X134.87Y-65.53
X135.882Y-41.55
X136.482Y-78.24
X137.75Y-87.71
X138.57Y-45.3
X138.67Y-71.57
X138.81Y-68.47
X138.83Y-65.53
X138.94Y-53.0
X138.96Y-61.96
X140.265Y-41.55
X140.46Y-78.24
X140.59Y-63.47
X140.6Y-51.93
X141.54Y-45.33
X141.83Y-71.75
X141.85Y-72.77
X141.88Y-76.0
X141.88Y-77.06
X141.94Y-61.98
X142.0Y-87.65
X142.63Y-58.15
X142.63Y-59.42
X142.83Y-71.75
X142.85Y-72.77
X142.88Y-76.0
X142.88Y-77.06
X142.97Y-43.27
X143.01Y-56.92
X143.83Y-71.78
X143.85Y-72.8
X143.88Y-76.03
X143.88Y-77.09
X144.06Y-56.01
X144.29Y-45.38
X144.647Y-41.55
X144.83Y-71.78
X144.85Y-72.8
X144.88Y-76.03
X144.88Y-77.09
X145.71Y-77.56
X145.72Y-78.56
X145.72Y-79.56
X145.72Y-80.7
X145.75Y-71.78
X145.77Y-72.8
X145.8Y-76.03
X145.92Y-85.16
X146.0Y-85.87
X146.01Y-84.34
X146.64Y-78.56
X146.64Y-79.56
X146.64Y-80.7
X146.65Y-76.59
X146.67Y-77.53
X146.97Y-71.79
X147.0Y-72.87
X147.55Y-87.47
X148.07Y-72.15
X148.31Y-87.59
X148.42Y-73.5
X149.03Y-41.55
X149.08Y-87.44
X149.17Y-72.7
X149.43Y-74.47
X149.81Y-75.49
X149.89Y-73.52
X149.9Y-76.47
X149.91Y-77.47
X149.91Y-78.47
X149.91Y-79.61
X149.91Y-80.61
X150.46Y-74.39
X150.59Y-84.35
X150.62Y-85.91
X150.75Y-85.11
X150.81Y-75.48
X150.85Y-76.51
X150.85Y-77.51
X150.86Y-78.51
X150.86Y-79.51
X150.86Y-80.65
X153.05Y-51.49
X153.05Y-62.19
X153.412Y-41.55
X154.26Y-77.2
X154.44Y-87.57
X158.26Y-48.421
X158.26Y-54.684
X158.26Y-60.947
X158.26Y-67.21
X158.26Y-73.473
X158.26Y-79.736
T2
X96.475Y-43.94
X97.068Y-42.508
X97.068Y-45.372
X97.937Y-84.11
X98.5Y-41.915
X98.5Y-45.965
X98.53Y-82.678
X98.53Y-85.542
X99.932Y-42.508
X99.932Y-45.372
X99.962Y-82.085
X99.962Y-86.135
X100.525Y-43.94
X101.394Y-82.678
X101.394Y-85.542
X101.987Y-84.11
X154.935Y-44.09
X154.935Y-84.26
X155.528Y-42.658
X155.528Y-45.522
X155.528Y-82.828
X155.528Y-85.692
X156.96Y-42.065
X156.96Y-46.115
X156.96Y-82.235
X156.96Y-86.285
X158.392Y-42.658
X158.392Y-45.522
X158.392Y-82.828
X158.392Y-85.692
X158.985Y-44.09
X158.985Y-84.26
T3
X111.1Y-48.91
X111.1Y-50.91
X111.1Y-52.91
X111.1Y-54.91
X111.1Y-56.91
X111.1Y-58.91
X111.1Y-60.91
X111.1Y-62.91
X111.1Y-64.91
X111.1Y-66.91
X111.1Y-68.91
X111.1Y-70.91
T4
X118.53Y-85.13
X148.29Y-85.13
T5
X115.98Y-82.58
X115.98Y-87.68
X121.08Y-82.58
X121.08Y-87.68
X145.74Y-82.58
X145.74Y-87.68
X150.84Y-82.58
X150.84Y-87.68
T6
X98.5Y-43.94
X99.962Y-84.11
X156.96Y-44.09
X156.96Y-84.26
M30
