%TF.GenerationSoftware,KiCad,Pcbnew,10.0.6*%
%TF.CreationDate,2026-10-06T14:23:05+02:00*%
%TF.ProjectId,E80-900M2213S_SE050_Breakout,4538302d-3930-4304-9d32-323133535f53,rev?*%
%TF.SameCoordinates,Original*%
%TF.FileFunction,Legend,Top*%
%TF.FilePolarity,Positive*%
%FSLAX46Y46*%
G04 Gerber Fmt 4.6, Leading zero omitted, Abs format (unit mm)*
G04 Created by KiCad (PCBNEW 10.0.6) date 2026-10-06 14:23:05*
%MOMM*%
%LPD*%
G01*
G04 APERTURE LIST*
%ADD10C,0.150000*%
%ADD11C,0.180000*%
%ADD12C,0.170000*%
%ADD13C,0.120000*%
%ADD14C,0.310000*%
%ADD15C,0.200000*%
G04 APERTURE END LIST*
D10*
X107010588Y-81397438D02*
X106915350Y-81349819D01*
X106915350Y-81349819D02*
X106772493Y-81349819D01*
X106772493Y-81349819D02*
X106629636Y-81397438D01*
X106629636Y-81397438D02*
X106534398Y-81492676D01*
X106534398Y-81492676D02*
X106486779Y-81587914D01*
X106486779Y-81587914D02*
X106439160Y-81778390D01*
X106439160Y-81778390D02*
X106439160Y-81921247D01*
X106439160Y-81921247D02*
X106486779Y-82111723D01*
X106486779Y-82111723D02*
X106534398Y-82206961D01*
X106534398Y-82206961D02*
X106629636Y-82302200D01*
X106629636Y-82302200D02*
X106772493Y-82349819D01*
X106772493Y-82349819D02*
X106867731Y-82349819D01*
X106867731Y-82349819D02*
X107010588Y-82302200D01*
X107010588Y-82302200D02*
X107058207Y-82254580D01*
X107058207Y-82254580D02*
X107058207Y-81921247D01*
X107058207Y-81921247D02*
X106867731Y-81921247D01*
X107486779Y-82349819D02*
X107486779Y-81349819D01*
X107486779Y-81349819D02*
X108058207Y-82349819D01*
X108058207Y-82349819D02*
X108058207Y-81349819D01*
X108534398Y-82349819D02*
X108534398Y-81349819D01*
X108534398Y-81349819D02*
X108772493Y-81349819D01*
X108772493Y-81349819D02*
X108915350Y-81397438D01*
X108915350Y-81397438D02*
X109010588Y-81492676D01*
X109010588Y-81492676D02*
X109058207Y-81587914D01*
X109058207Y-81587914D02*
X109105826Y-81778390D01*
X109105826Y-81778390D02*
X109105826Y-81921247D01*
X109105826Y-81921247D02*
X109058207Y-82111723D01*
X109058207Y-82111723D02*
X109010588Y-82206961D01*
X109010588Y-82206961D02*
X108915350Y-82302200D01*
X108915350Y-82302200D02*
X108772493Y-82349819D01*
X108772493Y-82349819D02*
X108534398Y-82349819D01*
X106724874Y-74046009D02*
X107058207Y-74046009D01*
X107201064Y-74569819D02*
X106724874Y-74569819D01*
X106724874Y-74569819D02*
X106724874Y-73569819D01*
X106724874Y-73569819D02*
X107201064Y-73569819D01*
X107629636Y-74569819D02*
X107629636Y-73569819D01*
X107629636Y-73569819D02*
X108201064Y-74569819D01*
X108201064Y-74569819D02*
X108201064Y-73569819D01*
X108629636Y-74284104D02*
X109105826Y-74284104D01*
X108534398Y-74569819D02*
X108867731Y-73569819D01*
X108867731Y-73569819D02*
X109201064Y-74569819D01*
X106677255Y-77292200D02*
X106820112Y-77339819D01*
X106820112Y-77339819D02*
X107058207Y-77339819D01*
X107058207Y-77339819D02*
X107153445Y-77292200D01*
X107153445Y-77292200D02*
X107201064Y-77244580D01*
X107201064Y-77244580D02*
X107248683Y-77149342D01*
X107248683Y-77149342D02*
X107248683Y-77054104D01*
X107248683Y-77054104D02*
X107201064Y-76958866D01*
X107201064Y-76958866D02*
X107153445Y-76911247D01*
X107153445Y-76911247D02*
X107058207Y-76863628D01*
X107058207Y-76863628D02*
X106867731Y-76816009D01*
X106867731Y-76816009D02*
X106772493Y-76768390D01*
X106772493Y-76768390D02*
X106724874Y-76720771D01*
X106724874Y-76720771D02*
X106677255Y-76625533D01*
X106677255Y-76625533D02*
X106677255Y-76530295D01*
X106677255Y-76530295D02*
X106724874Y-76435057D01*
X106724874Y-76435057D02*
X106772493Y-76387438D01*
X106772493Y-76387438D02*
X106867731Y-76339819D01*
X106867731Y-76339819D02*
X107105826Y-76339819D01*
X107105826Y-76339819D02*
X107248683Y-76387438D01*
X107677255Y-77339819D02*
X107677255Y-76339819D01*
X107677255Y-76339819D02*
X107915350Y-76339819D01*
X107915350Y-76339819D02*
X108058207Y-76387438D01*
X108058207Y-76387438D02*
X108153445Y-76482676D01*
X108153445Y-76482676D02*
X108201064Y-76577914D01*
X108201064Y-76577914D02*
X108248683Y-76768390D01*
X108248683Y-76768390D02*
X108248683Y-76911247D01*
X108248683Y-76911247D02*
X108201064Y-77101723D01*
X108201064Y-77101723D02*
X108153445Y-77196961D01*
X108153445Y-77196961D02*
X108058207Y-77292200D01*
X108058207Y-77292200D02*
X107915350Y-77339819D01*
X107915350Y-77339819D02*
X107677255Y-77339819D01*
X108629636Y-77054104D02*
X109105826Y-77054104D01*
X108534398Y-77339819D02*
X108867731Y-76339819D01*
X108867731Y-76339819D02*
X109201064Y-77339819D01*
X106724874Y-79762200D02*
X106867731Y-79809819D01*
X106867731Y-79809819D02*
X107105826Y-79809819D01*
X107105826Y-79809819D02*
X107201064Y-79762200D01*
X107201064Y-79762200D02*
X107248683Y-79714580D01*
X107248683Y-79714580D02*
X107296302Y-79619342D01*
X107296302Y-79619342D02*
X107296302Y-79524104D01*
X107296302Y-79524104D02*
X107248683Y-79428866D01*
X107248683Y-79428866D02*
X107201064Y-79381247D01*
X107201064Y-79381247D02*
X107105826Y-79333628D01*
X107105826Y-79333628D02*
X106915350Y-79286009D01*
X106915350Y-79286009D02*
X106820112Y-79238390D01*
X106820112Y-79238390D02*
X106772493Y-79190771D01*
X106772493Y-79190771D02*
X106724874Y-79095533D01*
X106724874Y-79095533D02*
X106724874Y-79000295D01*
X106724874Y-79000295D02*
X106772493Y-78905057D01*
X106772493Y-78905057D02*
X106820112Y-78857438D01*
X106820112Y-78857438D02*
X106915350Y-78809819D01*
X106915350Y-78809819D02*
X107153445Y-78809819D01*
X107153445Y-78809819D02*
X107296302Y-78857438D01*
X108296302Y-79714580D02*
X108248683Y-79762200D01*
X108248683Y-79762200D02*
X108105826Y-79809819D01*
X108105826Y-79809819D02*
X108010588Y-79809819D01*
X108010588Y-79809819D02*
X107867731Y-79762200D01*
X107867731Y-79762200D02*
X107772493Y-79666961D01*
X107772493Y-79666961D02*
X107724874Y-79571723D01*
X107724874Y-79571723D02*
X107677255Y-79381247D01*
X107677255Y-79381247D02*
X107677255Y-79238390D01*
X107677255Y-79238390D02*
X107724874Y-79047914D01*
X107724874Y-79047914D02*
X107772493Y-78952676D01*
X107772493Y-78952676D02*
X107867731Y-78857438D01*
X107867731Y-78857438D02*
X108010588Y-78809819D01*
X108010588Y-78809819D02*
X108105826Y-78809819D01*
X108105826Y-78809819D02*
X108248683Y-78857438D01*
X108248683Y-78857438D02*
X108296302Y-78905057D01*
X109201064Y-79809819D02*
X108724874Y-79809819D01*
X108724874Y-79809819D02*
X108724874Y-78809819D01*
X113171541Y-48379819D02*
X113790588Y-48379819D01*
X113790588Y-48379819D02*
X113457255Y-48760771D01*
X113457255Y-48760771D02*
X113600112Y-48760771D01*
X113600112Y-48760771D02*
X113695350Y-48808390D01*
X113695350Y-48808390D02*
X113742969Y-48856009D01*
X113742969Y-48856009D02*
X113790588Y-48951247D01*
X113790588Y-48951247D02*
X113790588Y-49189342D01*
X113790588Y-49189342D02*
X113742969Y-49284580D01*
X113742969Y-49284580D02*
X113695350Y-49332200D01*
X113695350Y-49332200D02*
X113600112Y-49379819D01*
X113600112Y-49379819D02*
X113314398Y-49379819D01*
X113314398Y-49379819D02*
X113219160Y-49332200D01*
X113219160Y-49332200D02*
X113171541Y-49284580D01*
X114076303Y-48379819D02*
X114409636Y-49379819D01*
X114409636Y-49379819D02*
X114742969Y-48379819D01*
X114981065Y-48379819D02*
X115600112Y-48379819D01*
X115600112Y-48379819D02*
X115266779Y-48760771D01*
X115266779Y-48760771D02*
X115409636Y-48760771D01*
X115409636Y-48760771D02*
X115504874Y-48808390D01*
X115504874Y-48808390D02*
X115552493Y-48856009D01*
X115552493Y-48856009D02*
X115600112Y-48951247D01*
X115600112Y-48951247D02*
X115600112Y-49189342D01*
X115600112Y-49189342D02*
X115552493Y-49284580D01*
X115552493Y-49284580D02*
X115504874Y-49332200D01*
X115504874Y-49332200D02*
X115409636Y-49379819D01*
X115409636Y-49379819D02*
X115123922Y-49379819D01*
X115123922Y-49379819D02*
X115028684Y-49332200D01*
X115028684Y-49332200D02*
X114981065Y-49284580D01*
X113286779Y-51999819D02*
X113286779Y-50999819D01*
X113286779Y-50999819D02*
X113620112Y-51714104D01*
X113620112Y-51714104D02*
X113953445Y-50999819D01*
X113953445Y-50999819D02*
X113953445Y-51999819D01*
X114429636Y-51999819D02*
X114429636Y-50999819D01*
X114858207Y-51952200D02*
X115001064Y-51999819D01*
X115001064Y-51999819D02*
X115239159Y-51999819D01*
X115239159Y-51999819D02*
X115334397Y-51952200D01*
X115334397Y-51952200D02*
X115382016Y-51904580D01*
X115382016Y-51904580D02*
X115429635Y-51809342D01*
X115429635Y-51809342D02*
X115429635Y-51714104D01*
X115429635Y-51714104D02*
X115382016Y-51618866D01*
X115382016Y-51618866D02*
X115334397Y-51571247D01*
X115334397Y-51571247D02*
X115239159Y-51523628D01*
X115239159Y-51523628D02*
X115048683Y-51476009D01*
X115048683Y-51476009D02*
X114953445Y-51428390D01*
X114953445Y-51428390D02*
X114905826Y-51380771D01*
X114905826Y-51380771D02*
X114858207Y-51285533D01*
X114858207Y-51285533D02*
X114858207Y-51190295D01*
X114858207Y-51190295D02*
X114905826Y-51095057D01*
X114905826Y-51095057D02*
X114953445Y-51047438D01*
X114953445Y-51047438D02*
X115048683Y-50999819D01*
X115048683Y-50999819D02*
X115286778Y-50999819D01*
X115286778Y-50999819D02*
X115429635Y-51047438D01*
X116048683Y-50999819D02*
X116239159Y-50999819D01*
X116239159Y-50999819D02*
X116334397Y-51047438D01*
X116334397Y-51047438D02*
X116429635Y-51142676D01*
X116429635Y-51142676D02*
X116477254Y-51333152D01*
X116477254Y-51333152D02*
X116477254Y-51666485D01*
X116477254Y-51666485D02*
X116429635Y-51856961D01*
X116429635Y-51856961D02*
X116334397Y-51952200D01*
X116334397Y-51952200D02*
X116239159Y-51999819D01*
X116239159Y-51999819D02*
X116048683Y-51999819D01*
X116048683Y-51999819D02*
X115953445Y-51952200D01*
X115953445Y-51952200D02*
X115858207Y-51856961D01*
X115858207Y-51856961D02*
X115810588Y-51666485D01*
X115810588Y-51666485D02*
X115810588Y-51333152D01*
X115810588Y-51333152D02*
X115858207Y-51142676D01*
X115858207Y-51142676D02*
X115953445Y-51047438D01*
X115953445Y-51047438D02*
X116048683Y-50999819D01*
X113286779Y-54539819D02*
X113286779Y-53539819D01*
X113286779Y-53539819D02*
X113620112Y-54254104D01*
X113620112Y-54254104D02*
X113953445Y-53539819D01*
X113953445Y-53539819D02*
X113953445Y-54539819D01*
X114620112Y-53539819D02*
X114810588Y-53539819D01*
X114810588Y-53539819D02*
X114905826Y-53587438D01*
X114905826Y-53587438D02*
X115001064Y-53682676D01*
X115001064Y-53682676D02*
X115048683Y-53873152D01*
X115048683Y-53873152D02*
X115048683Y-54206485D01*
X115048683Y-54206485D02*
X115001064Y-54396961D01*
X115001064Y-54396961D02*
X114905826Y-54492200D01*
X114905826Y-54492200D02*
X114810588Y-54539819D01*
X114810588Y-54539819D02*
X114620112Y-54539819D01*
X114620112Y-54539819D02*
X114524874Y-54492200D01*
X114524874Y-54492200D02*
X114429636Y-54396961D01*
X114429636Y-54396961D02*
X114382017Y-54206485D01*
X114382017Y-54206485D02*
X114382017Y-53873152D01*
X114382017Y-53873152D02*
X114429636Y-53682676D01*
X114429636Y-53682676D02*
X114524874Y-53587438D01*
X114524874Y-53587438D02*
X114620112Y-53539819D01*
X115429636Y-54492200D02*
X115572493Y-54539819D01*
X115572493Y-54539819D02*
X115810588Y-54539819D01*
X115810588Y-54539819D02*
X115905826Y-54492200D01*
X115905826Y-54492200D02*
X115953445Y-54444580D01*
X115953445Y-54444580D02*
X116001064Y-54349342D01*
X116001064Y-54349342D02*
X116001064Y-54254104D01*
X116001064Y-54254104D02*
X115953445Y-54158866D01*
X115953445Y-54158866D02*
X115905826Y-54111247D01*
X115905826Y-54111247D02*
X115810588Y-54063628D01*
X115810588Y-54063628D02*
X115620112Y-54016009D01*
X115620112Y-54016009D02*
X115524874Y-53968390D01*
X115524874Y-53968390D02*
X115477255Y-53920771D01*
X115477255Y-53920771D02*
X115429636Y-53825533D01*
X115429636Y-53825533D02*
X115429636Y-53730295D01*
X115429636Y-53730295D02*
X115477255Y-53635057D01*
X115477255Y-53635057D02*
X115524874Y-53587438D01*
X115524874Y-53587438D02*
X115620112Y-53539819D01*
X115620112Y-53539819D02*
X115858207Y-53539819D01*
X115858207Y-53539819D02*
X116001064Y-53587438D01*
X116429636Y-54539819D02*
X116429636Y-53539819D01*
X113239160Y-56922200D02*
X113382017Y-56969819D01*
X113382017Y-56969819D02*
X113620112Y-56969819D01*
X113620112Y-56969819D02*
X113715350Y-56922200D01*
X113715350Y-56922200D02*
X113762969Y-56874580D01*
X113762969Y-56874580D02*
X113810588Y-56779342D01*
X113810588Y-56779342D02*
X113810588Y-56684104D01*
X113810588Y-56684104D02*
X113762969Y-56588866D01*
X113762969Y-56588866D02*
X113715350Y-56541247D01*
X113715350Y-56541247D02*
X113620112Y-56493628D01*
X113620112Y-56493628D02*
X113429636Y-56446009D01*
X113429636Y-56446009D02*
X113334398Y-56398390D01*
X113334398Y-56398390D02*
X113286779Y-56350771D01*
X113286779Y-56350771D02*
X113239160Y-56255533D01*
X113239160Y-56255533D02*
X113239160Y-56160295D01*
X113239160Y-56160295D02*
X113286779Y-56065057D01*
X113286779Y-56065057D02*
X113334398Y-56017438D01*
X113334398Y-56017438D02*
X113429636Y-55969819D01*
X113429636Y-55969819D02*
X113667731Y-55969819D01*
X113667731Y-55969819D02*
X113810588Y-56017438D01*
X114810588Y-56874580D02*
X114762969Y-56922200D01*
X114762969Y-56922200D02*
X114620112Y-56969819D01*
X114620112Y-56969819D02*
X114524874Y-56969819D01*
X114524874Y-56969819D02*
X114382017Y-56922200D01*
X114382017Y-56922200D02*
X114286779Y-56826961D01*
X114286779Y-56826961D02*
X114239160Y-56731723D01*
X114239160Y-56731723D02*
X114191541Y-56541247D01*
X114191541Y-56541247D02*
X114191541Y-56398390D01*
X114191541Y-56398390D02*
X114239160Y-56207914D01*
X114239160Y-56207914D02*
X114286779Y-56112676D01*
X114286779Y-56112676D02*
X114382017Y-56017438D01*
X114382017Y-56017438D02*
X114524874Y-55969819D01*
X114524874Y-55969819D02*
X114620112Y-55969819D01*
X114620112Y-55969819D02*
X114762969Y-56017438D01*
X114762969Y-56017438D02*
X114810588Y-56065057D01*
X115239160Y-56969819D02*
X115239160Y-55969819D01*
X115810588Y-56969819D02*
X115382017Y-56398390D01*
X115810588Y-55969819D02*
X115239160Y-56541247D01*
X113286779Y-59739819D02*
X113286779Y-58739819D01*
X113286779Y-58739819D02*
X113858207Y-59739819D01*
X113858207Y-59739819D02*
X113858207Y-58739819D01*
X114286779Y-59692200D02*
X114429636Y-59739819D01*
X114429636Y-59739819D02*
X114667731Y-59739819D01*
X114667731Y-59739819D02*
X114762969Y-59692200D01*
X114762969Y-59692200D02*
X114810588Y-59644580D01*
X114810588Y-59644580D02*
X114858207Y-59549342D01*
X114858207Y-59549342D02*
X114858207Y-59454104D01*
X114858207Y-59454104D02*
X114810588Y-59358866D01*
X114810588Y-59358866D02*
X114762969Y-59311247D01*
X114762969Y-59311247D02*
X114667731Y-59263628D01*
X114667731Y-59263628D02*
X114477255Y-59216009D01*
X114477255Y-59216009D02*
X114382017Y-59168390D01*
X114382017Y-59168390D02*
X114334398Y-59120771D01*
X114334398Y-59120771D02*
X114286779Y-59025533D01*
X114286779Y-59025533D02*
X114286779Y-58930295D01*
X114286779Y-58930295D02*
X114334398Y-58835057D01*
X114334398Y-58835057D02*
X114382017Y-58787438D01*
X114382017Y-58787438D02*
X114477255Y-58739819D01*
X114477255Y-58739819D02*
X114715350Y-58739819D01*
X114715350Y-58739819D02*
X114858207Y-58787438D01*
X115239160Y-59692200D02*
X115382017Y-59739819D01*
X115382017Y-59739819D02*
X115620112Y-59739819D01*
X115620112Y-59739819D02*
X115715350Y-59692200D01*
X115715350Y-59692200D02*
X115762969Y-59644580D01*
X115762969Y-59644580D02*
X115810588Y-59549342D01*
X115810588Y-59549342D02*
X115810588Y-59454104D01*
X115810588Y-59454104D02*
X115762969Y-59358866D01*
X115762969Y-59358866D02*
X115715350Y-59311247D01*
X115715350Y-59311247D02*
X115620112Y-59263628D01*
X115620112Y-59263628D02*
X115429636Y-59216009D01*
X115429636Y-59216009D02*
X115334398Y-59168390D01*
X115334398Y-59168390D02*
X115286779Y-59120771D01*
X115286779Y-59120771D02*
X115239160Y-59025533D01*
X115239160Y-59025533D02*
X115239160Y-58930295D01*
X115239160Y-58930295D02*
X115286779Y-58835057D01*
X115286779Y-58835057D02*
X115334398Y-58787438D01*
X115334398Y-58787438D02*
X115429636Y-58739819D01*
X115429636Y-58739819D02*
X115667731Y-58739819D01*
X115667731Y-58739819D02*
X115810588Y-58787438D01*
X113620112Y-61496009D02*
X113762969Y-61543628D01*
X113762969Y-61543628D02*
X113810588Y-61591247D01*
X113810588Y-61591247D02*
X113858207Y-61686485D01*
X113858207Y-61686485D02*
X113858207Y-61829342D01*
X113858207Y-61829342D02*
X113810588Y-61924580D01*
X113810588Y-61924580D02*
X113762969Y-61972200D01*
X113762969Y-61972200D02*
X113667731Y-62019819D01*
X113667731Y-62019819D02*
X113286779Y-62019819D01*
X113286779Y-62019819D02*
X113286779Y-61019819D01*
X113286779Y-61019819D02*
X113620112Y-61019819D01*
X113620112Y-61019819D02*
X113715350Y-61067438D01*
X113715350Y-61067438D02*
X113762969Y-61115057D01*
X113762969Y-61115057D02*
X113810588Y-61210295D01*
X113810588Y-61210295D02*
X113810588Y-61305533D01*
X113810588Y-61305533D02*
X113762969Y-61400771D01*
X113762969Y-61400771D02*
X113715350Y-61448390D01*
X113715350Y-61448390D02*
X113620112Y-61496009D01*
X113620112Y-61496009D02*
X113286779Y-61496009D01*
X114286779Y-61019819D02*
X114286779Y-61829342D01*
X114286779Y-61829342D02*
X114334398Y-61924580D01*
X114334398Y-61924580D02*
X114382017Y-61972200D01*
X114382017Y-61972200D02*
X114477255Y-62019819D01*
X114477255Y-62019819D02*
X114667731Y-62019819D01*
X114667731Y-62019819D02*
X114762969Y-61972200D01*
X114762969Y-61972200D02*
X114810588Y-61924580D01*
X114810588Y-61924580D02*
X114858207Y-61829342D01*
X114858207Y-61829342D02*
X114858207Y-61019819D01*
X115286779Y-61972200D02*
X115429636Y-62019819D01*
X115429636Y-62019819D02*
X115667731Y-62019819D01*
X115667731Y-62019819D02*
X115762969Y-61972200D01*
X115762969Y-61972200D02*
X115810588Y-61924580D01*
X115810588Y-61924580D02*
X115858207Y-61829342D01*
X115858207Y-61829342D02*
X115858207Y-61734104D01*
X115858207Y-61734104D02*
X115810588Y-61638866D01*
X115810588Y-61638866D02*
X115762969Y-61591247D01*
X115762969Y-61591247D02*
X115667731Y-61543628D01*
X115667731Y-61543628D02*
X115477255Y-61496009D01*
X115477255Y-61496009D02*
X115382017Y-61448390D01*
X115382017Y-61448390D02*
X115334398Y-61400771D01*
X115334398Y-61400771D02*
X115286779Y-61305533D01*
X115286779Y-61305533D02*
X115286779Y-61210295D01*
X115286779Y-61210295D02*
X115334398Y-61115057D01*
X115334398Y-61115057D02*
X115382017Y-61067438D01*
X115382017Y-61067438D02*
X115477255Y-61019819D01*
X115477255Y-61019819D02*
X115715350Y-61019819D01*
X115715350Y-61019819D02*
X115858207Y-61067438D01*
X116477255Y-61543628D02*
X116477255Y-62019819D01*
X116143922Y-61019819D02*
X116477255Y-61543628D01*
X116477255Y-61543628D02*
X116810588Y-61019819D01*
X113286779Y-64579819D02*
X113286779Y-63579819D01*
X113286779Y-63579819D02*
X113524874Y-63579819D01*
X113524874Y-63579819D02*
X113667731Y-63627438D01*
X113667731Y-63627438D02*
X113762969Y-63722676D01*
X113762969Y-63722676D02*
X113810588Y-63817914D01*
X113810588Y-63817914D02*
X113858207Y-64008390D01*
X113858207Y-64008390D02*
X113858207Y-64151247D01*
X113858207Y-64151247D02*
X113810588Y-64341723D01*
X113810588Y-64341723D02*
X113762969Y-64436961D01*
X113762969Y-64436961D02*
X113667731Y-64532200D01*
X113667731Y-64532200D02*
X113524874Y-64579819D01*
X113524874Y-64579819D02*
X113286779Y-64579819D01*
X114286779Y-64579819D02*
X114286779Y-63579819D01*
X114953445Y-63579819D02*
X115143921Y-63579819D01*
X115143921Y-63579819D02*
X115239159Y-63627438D01*
X115239159Y-63627438D02*
X115334397Y-63722676D01*
X115334397Y-63722676D02*
X115382016Y-63913152D01*
X115382016Y-63913152D02*
X115382016Y-64246485D01*
X115382016Y-64246485D02*
X115334397Y-64436961D01*
X115334397Y-64436961D02*
X115239159Y-64532200D01*
X115239159Y-64532200D02*
X115143921Y-64579819D01*
X115143921Y-64579819D02*
X114953445Y-64579819D01*
X114953445Y-64579819D02*
X114858207Y-64532200D01*
X114858207Y-64532200D02*
X114762969Y-64436961D01*
X114762969Y-64436961D02*
X114715350Y-64246485D01*
X114715350Y-64246485D02*
X114715350Y-63913152D01*
X114715350Y-63913152D02*
X114762969Y-63722676D01*
X114762969Y-63722676D02*
X114858207Y-63627438D01*
X114858207Y-63627438D02*
X114953445Y-63579819D01*
X115715350Y-63579819D02*
X116382016Y-63579819D01*
X116382016Y-63579819D02*
X115953445Y-64579819D01*
X113286779Y-67159819D02*
X113286779Y-66159819D01*
X113286779Y-66159819D02*
X113524874Y-66159819D01*
X113524874Y-66159819D02*
X113667731Y-66207438D01*
X113667731Y-66207438D02*
X113762969Y-66302676D01*
X113762969Y-66302676D02*
X113810588Y-66397914D01*
X113810588Y-66397914D02*
X113858207Y-66588390D01*
X113858207Y-66588390D02*
X113858207Y-66731247D01*
X113858207Y-66731247D02*
X113810588Y-66921723D01*
X113810588Y-66921723D02*
X113762969Y-67016961D01*
X113762969Y-67016961D02*
X113667731Y-67112200D01*
X113667731Y-67112200D02*
X113524874Y-67159819D01*
X113524874Y-67159819D02*
X113286779Y-67159819D01*
X114286779Y-67159819D02*
X114286779Y-66159819D01*
X114953445Y-66159819D02*
X115143921Y-66159819D01*
X115143921Y-66159819D02*
X115239159Y-66207438D01*
X115239159Y-66207438D02*
X115334397Y-66302676D01*
X115334397Y-66302676D02*
X115382016Y-66493152D01*
X115382016Y-66493152D02*
X115382016Y-66826485D01*
X115382016Y-66826485D02*
X115334397Y-67016961D01*
X115334397Y-67016961D02*
X115239159Y-67112200D01*
X115239159Y-67112200D02*
X115143921Y-67159819D01*
X115143921Y-67159819D02*
X114953445Y-67159819D01*
X114953445Y-67159819D02*
X114858207Y-67112200D01*
X114858207Y-67112200D02*
X114762969Y-67016961D01*
X114762969Y-67016961D02*
X114715350Y-66826485D01*
X114715350Y-66826485D02*
X114715350Y-66493152D01*
X114715350Y-66493152D02*
X114762969Y-66302676D01*
X114762969Y-66302676D02*
X114858207Y-66207438D01*
X114858207Y-66207438D02*
X114953445Y-66159819D01*
X115953445Y-66588390D02*
X115858207Y-66540771D01*
X115858207Y-66540771D02*
X115810588Y-66493152D01*
X115810588Y-66493152D02*
X115762969Y-66397914D01*
X115762969Y-66397914D02*
X115762969Y-66350295D01*
X115762969Y-66350295D02*
X115810588Y-66255057D01*
X115810588Y-66255057D02*
X115858207Y-66207438D01*
X115858207Y-66207438D02*
X115953445Y-66159819D01*
X115953445Y-66159819D02*
X116143921Y-66159819D01*
X116143921Y-66159819D02*
X116239159Y-66207438D01*
X116239159Y-66207438D02*
X116286778Y-66255057D01*
X116286778Y-66255057D02*
X116334397Y-66350295D01*
X116334397Y-66350295D02*
X116334397Y-66397914D01*
X116334397Y-66397914D02*
X116286778Y-66493152D01*
X116286778Y-66493152D02*
X116239159Y-66540771D01*
X116239159Y-66540771D02*
X116143921Y-66588390D01*
X116143921Y-66588390D02*
X115953445Y-66588390D01*
X115953445Y-66588390D02*
X115858207Y-66636009D01*
X115858207Y-66636009D02*
X115810588Y-66683628D01*
X115810588Y-66683628D02*
X115762969Y-66778866D01*
X115762969Y-66778866D02*
X115762969Y-66969342D01*
X115762969Y-66969342D02*
X115810588Y-67064580D01*
X115810588Y-67064580D02*
X115858207Y-67112200D01*
X115858207Y-67112200D02*
X115953445Y-67159819D01*
X115953445Y-67159819D02*
X116143921Y-67159819D01*
X116143921Y-67159819D02*
X116239159Y-67112200D01*
X116239159Y-67112200D02*
X116286778Y-67064580D01*
X116286778Y-67064580D02*
X116334397Y-66969342D01*
X116334397Y-66969342D02*
X116334397Y-66778866D01*
X116334397Y-66778866D02*
X116286778Y-66683628D01*
X116286778Y-66683628D02*
X116239159Y-66636009D01*
X116239159Y-66636009D02*
X116143921Y-66588390D01*
X113286779Y-69759819D02*
X113286779Y-68759819D01*
X113286779Y-68759819D02*
X113524874Y-68759819D01*
X113524874Y-68759819D02*
X113667731Y-68807438D01*
X113667731Y-68807438D02*
X113762969Y-68902676D01*
X113762969Y-68902676D02*
X113810588Y-68997914D01*
X113810588Y-68997914D02*
X113858207Y-69188390D01*
X113858207Y-69188390D02*
X113858207Y-69331247D01*
X113858207Y-69331247D02*
X113810588Y-69521723D01*
X113810588Y-69521723D02*
X113762969Y-69616961D01*
X113762969Y-69616961D02*
X113667731Y-69712200D01*
X113667731Y-69712200D02*
X113524874Y-69759819D01*
X113524874Y-69759819D02*
X113286779Y-69759819D01*
X114286779Y-69759819D02*
X114286779Y-68759819D01*
X114953445Y-68759819D02*
X115143921Y-68759819D01*
X115143921Y-68759819D02*
X115239159Y-68807438D01*
X115239159Y-68807438D02*
X115334397Y-68902676D01*
X115334397Y-68902676D02*
X115382016Y-69093152D01*
X115382016Y-69093152D02*
X115382016Y-69426485D01*
X115382016Y-69426485D02*
X115334397Y-69616961D01*
X115334397Y-69616961D02*
X115239159Y-69712200D01*
X115239159Y-69712200D02*
X115143921Y-69759819D01*
X115143921Y-69759819D02*
X114953445Y-69759819D01*
X114953445Y-69759819D02*
X114858207Y-69712200D01*
X114858207Y-69712200D02*
X114762969Y-69616961D01*
X114762969Y-69616961D02*
X114715350Y-69426485D01*
X114715350Y-69426485D02*
X114715350Y-69093152D01*
X114715350Y-69093152D02*
X114762969Y-68902676D01*
X114762969Y-68902676D02*
X114858207Y-68807438D01*
X114858207Y-68807438D02*
X114953445Y-68759819D01*
X115858207Y-69759819D02*
X116048683Y-69759819D01*
X116048683Y-69759819D02*
X116143921Y-69712200D01*
X116143921Y-69712200D02*
X116191540Y-69664580D01*
X116191540Y-69664580D02*
X116286778Y-69521723D01*
X116286778Y-69521723D02*
X116334397Y-69331247D01*
X116334397Y-69331247D02*
X116334397Y-68950295D01*
X116334397Y-68950295D02*
X116286778Y-68855057D01*
X116286778Y-68855057D02*
X116239159Y-68807438D01*
X116239159Y-68807438D02*
X116143921Y-68759819D01*
X116143921Y-68759819D02*
X115953445Y-68759819D01*
X115953445Y-68759819D02*
X115858207Y-68807438D01*
X115858207Y-68807438D02*
X115810588Y-68855057D01*
X115810588Y-68855057D02*
X115762969Y-68950295D01*
X115762969Y-68950295D02*
X115762969Y-69188390D01*
X115762969Y-69188390D02*
X115810588Y-69283628D01*
X115810588Y-69283628D02*
X115858207Y-69331247D01*
X115858207Y-69331247D02*
X115953445Y-69378866D01*
X115953445Y-69378866D02*
X116143921Y-69378866D01*
X116143921Y-69378866D02*
X116239159Y-69331247D01*
X116239159Y-69331247D02*
X116286778Y-69283628D01*
X116286778Y-69283628D02*
X116334397Y-69188390D01*
X113286779Y-72219819D02*
X113286779Y-71219819D01*
X113286779Y-71219819D02*
X113858207Y-72219819D01*
X113858207Y-72219819D02*
X113858207Y-71219819D01*
X114905826Y-72219819D02*
X114572493Y-71743628D01*
X114334398Y-72219819D02*
X114334398Y-71219819D01*
X114334398Y-71219819D02*
X114715350Y-71219819D01*
X114715350Y-71219819D02*
X114810588Y-71267438D01*
X114810588Y-71267438D02*
X114858207Y-71315057D01*
X114858207Y-71315057D02*
X114905826Y-71410295D01*
X114905826Y-71410295D02*
X114905826Y-71553152D01*
X114905826Y-71553152D02*
X114858207Y-71648390D01*
X114858207Y-71648390D02*
X114810588Y-71696009D01*
X114810588Y-71696009D02*
X114715350Y-71743628D01*
X114715350Y-71743628D02*
X114334398Y-71743628D01*
X115286779Y-72172200D02*
X115429636Y-72219819D01*
X115429636Y-72219819D02*
X115667731Y-72219819D01*
X115667731Y-72219819D02*
X115762969Y-72172200D01*
X115762969Y-72172200D02*
X115810588Y-72124580D01*
X115810588Y-72124580D02*
X115858207Y-72029342D01*
X115858207Y-72029342D02*
X115858207Y-71934104D01*
X115858207Y-71934104D02*
X115810588Y-71838866D01*
X115810588Y-71838866D02*
X115762969Y-71791247D01*
X115762969Y-71791247D02*
X115667731Y-71743628D01*
X115667731Y-71743628D02*
X115477255Y-71696009D01*
X115477255Y-71696009D02*
X115382017Y-71648390D01*
X115382017Y-71648390D02*
X115334398Y-71600771D01*
X115334398Y-71600771D02*
X115286779Y-71505533D01*
X115286779Y-71505533D02*
X115286779Y-71410295D01*
X115286779Y-71410295D02*
X115334398Y-71315057D01*
X115334398Y-71315057D02*
X115382017Y-71267438D01*
X115382017Y-71267438D02*
X115477255Y-71219819D01*
X115477255Y-71219819D02*
X115715350Y-71219819D01*
X115715350Y-71219819D02*
X115858207Y-71267438D01*
X116143922Y-71219819D02*
X116715350Y-71219819D01*
X116429636Y-72219819D02*
X116429636Y-71219819D01*
X123665057Y-87360839D02*
X123617438Y-87313220D01*
X123617438Y-87313220D02*
X123569819Y-87217982D01*
X123569819Y-87217982D02*
X123569819Y-86979887D01*
X123569819Y-86979887D02*
X123617438Y-86884649D01*
X123617438Y-86884649D02*
X123665057Y-86837030D01*
X123665057Y-86837030D02*
X123760295Y-86789411D01*
X123760295Y-86789411D02*
X123855533Y-86789411D01*
X123855533Y-86789411D02*
X123998390Y-86837030D01*
X123998390Y-86837030D02*
X124569819Y-87408458D01*
X124569819Y-87408458D02*
X124569819Y-86789411D01*
X124474580Y-86360839D02*
X124522200Y-86313220D01*
X124522200Y-86313220D02*
X124569819Y-86360839D01*
X124569819Y-86360839D02*
X124522200Y-86408458D01*
X124522200Y-86408458D02*
X124474580Y-86360839D01*
X124474580Y-86360839D02*
X124569819Y-86360839D01*
X123903152Y-85456078D02*
X124569819Y-85456078D01*
X123522200Y-85694173D02*
X124236485Y-85932268D01*
X124236485Y-85932268D02*
X124236485Y-85313221D01*
X123617438Y-84408459D02*
X123569819Y-84503697D01*
X123569819Y-84503697D02*
X123569819Y-84646554D01*
X123569819Y-84646554D02*
X123617438Y-84789411D01*
X123617438Y-84789411D02*
X123712676Y-84884649D01*
X123712676Y-84884649D02*
X123807914Y-84932268D01*
X123807914Y-84932268D02*
X123998390Y-84979887D01*
X123998390Y-84979887D02*
X124141247Y-84979887D01*
X124141247Y-84979887D02*
X124331723Y-84932268D01*
X124331723Y-84932268D02*
X124426961Y-84884649D01*
X124426961Y-84884649D02*
X124522200Y-84789411D01*
X124522200Y-84789411D02*
X124569819Y-84646554D01*
X124569819Y-84646554D02*
X124569819Y-84551316D01*
X124569819Y-84551316D02*
X124522200Y-84408459D01*
X124522200Y-84408459D02*
X124474580Y-84360840D01*
X124474580Y-84360840D02*
X124141247Y-84360840D01*
X124141247Y-84360840D02*
X124141247Y-84551316D01*
X124569819Y-83932268D02*
X123569819Y-83932268D01*
X124569819Y-83503697D02*
X124046009Y-83503697D01*
X124046009Y-83503697D02*
X123950771Y-83551316D01*
X123950771Y-83551316D02*
X123903152Y-83646554D01*
X123903152Y-83646554D02*
X123903152Y-83789411D01*
X123903152Y-83789411D02*
X123950771Y-83884649D01*
X123950771Y-83884649D02*
X123998390Y-83932268D01*
X123903152Y-83122744D02*
X123903152Y-82598935D01*
X123903152Y-82598935D02*
X124569819Y-83122744D01*
X124569819Y-83122744D02*
X124569819Y-82598935D01*
X142948390Y-87300363D02*
X142900771Y-87395601D01*
X142900771Y-87395601D02*
X142853152Y-87443220D01*
X142853152Y-87443220D02*
X142757914Y-87490839D01*
X142757914Y-87490839D02*
X142710295Y-87490839D01*
X142710295Y-87490839D02*
X142615057Y-87443220D01*
X142615057Y-87443220D02*
X142567438Y-87395601D01*
X142567438Y-87395601D02*
X142519819Y-87300363D01*
X142519819Y-87300363D02*
X142519819Y-87109887D01*
X142519819Y-87109887D02*
X142567438Y-87014649D01*
X142567438Y-87014649D02*
X142615057Y-86967030D01*
X142615057Y-86967030D02*
X142710295Y-86919411D01*
X142710295Y-86919411D02*
X142757914Y-86919411D01*
X142757914Y-86919411D02*
X142853152Y-86967030D01*
X142853152Y-86967030D02*
X142900771Y-87014649D01*
X142900771Y-87014649D02*
X142948390Y-87109887D01*
X142948390Y-87109887D02*
X142948390Y-87300363D01*
X142948390Y-87300363D02*
X142996009Y-87395601D01*
X142996009Y-87395601D02*
X143043628Y-87443220D01*
X143043628Y-87443220D02*
X143138866Y-87490839D01*
X143138866Y-87490839D02*
X143329342Y-87490839D01*
X143329342Y-87490839D02*
X143424580Y-87443220D01*
X143424580Y-87443220D02*
X143472200Y-87395601D01*
X143472200Y-87395601D02*
X143519819Y-87300363D01*
X143519819Y-87300363D02*
X143519819Y-87109887D01*
X143519819Y-87109887D02*
X143472200Y-87014649D01*
X143472200Y-87014649D02*
X143424580Y-86967030D01*
X143424580Y-86967030D02*
X143329342Y-86919411D01*
X143329342Y-86919411D02*
X143138866Y-86919411D01*
X143138866Y-86919411D02*
X143043628Y-86967030D01*
X143043628Y-86967030D02*
X142996009Y-87014649D01*
X142996009Y-87014649D02*
X142948390Y-87109887D01*
X142519819Y-86062268D02*
X142519819Y-86252744D01*
X142519819Y-86252744D02*
X142567438Y-86347982D01*
X142567438Y-86347982D02*
X142615057Y-86395601D01*
X142615057Y-86395601D02*
X142757914Y-86490839D01*
X142757914Y-86490839D02*
X142948390Y-86538458D01*
X142948390Y-86538458D02*
X143329342Y-86538458D01*
X143329342Y-86538458D02*
X143424580Y-86490839D01*
X143424580Y-86490839D02*
X143472200Y-86443220D01*
X143472200Y-86443220D02*
X143519819Y-86347982D01*
X143519819Y-86347982D02*
X143519819Y-86157506D01*
X143519819Y-86157506D02*
X143472200Y-86062268D01*
X143472200Y-86062268D02*
X143424580Y-86014649D01*
X143424580Y-86014649D02*
X143329342Y-85967030D01*
X143329342Y-85967030D02*
X143091247Y-85967030D01*
X143091247Y-85967030D02*
X142996009Y-86014649D01*
X142996009Y-86014649D02*
X142948390Y-86062268D01*
X142948390Y-86062268D02*
X142900771Y-86157506D01*
X142900771Y-86157506D02*
X142900771Y-86347982D01*
X142900771Y-86347982D02*
X142948390Y-86443220D01*
X142948390Y-86443220D02*
X142996009Y-86490839D01*
X142996009Y-86490839D02*
X143091247Y-86538458D01*
X142948390Y-85395601D02*
X142900771Y-85490839D01*
X142900771Y-85490839D02*
X142853152Y-85538458D01*
X142853152Y-85538458D02*
X142757914Y-85586077D01*
X142757914Y-85586077D02*
X142710295Y-85586077D01*
X142710295Y-85586077D02*
X142615057Y-85538458D01*
X142615057Y-85538458D02*
X142567438Y-85490839D01*
X142567438Y-85490839D02*
X142519819Y-85395601D01*
X142519819Y-85395601D02*
X142519819Y-85205125D01*
X142519819Y-85205125D02*
X142567438Y-85109887D01*
X142567438Y-85109887D02*
X142615057Y-85062268D01*
X142615057Y-85062268D02*
X142710295Y-85014649D01*
X142710295Y-85014649D02*
X142757914Y-85014649D01*
X142757914Y-85014649D02*
X142853152Y-85062268D01*
X142853152Y-85062268D02*
X142900771Y-85109887D01*
X142900771Y-85109887D02*
X142948390Y-85205125D01*
X142948390Y-85205125D02*
X142948390Y-85395601D01*
X142948390Y-85395601D02*
X142996009Y-85490839D01*
X142996009Y-85490839D02*
X143043628Y-85538458D01*
X143043628Y-85538458D02*
X143138866Y-85586077D01*
X143138866Y-85586077D02*
X143329342Y-85586077D01*
X143329342Y-85586077D02*
X143424580Y-85538458D01*
X143424580Y-85538458D02*
X143472200Y-85490839D01*
X143472200Y-85490839D02*
X143519819Y-85395601D01*
X143519819Y-85395601D02*
X143519819Y-85205125D01*
X143519819Y-85205125D02*
X143472200Y-85109887D01*
X143472200Y-85109887D02*
X143424580Y-85062268D01*
X143424580Y-85062268D02*
X143329342Y-85014649D01*
X143329342Y-85014649D02*
X143138866Y-85014649D01*
X143138866Y-85014649D02*
X143043628Y-85062268D01*
X143043628Y-85062268D02*
X142996009Y-85109887D01*
X142996009Y-85109887D02*
X142948390Y-85205125D01*
X143519819Y-84586077D02*
X142519819Y-84586077D01*
X142519819Y-84586077D02*
X143234104Y-84252744D01*
X143234104Y-84252744D02*
X142519819Y-83919411D01*
X142519819Y-83919411D02*
X143519819Y-83919411D01*
X143519819Y-83443220D02*
X142519819Y-83443220D01*
X143519819Y-83014649D02*
X142996009Y-83014649D01*
X142996009Y-83014649D02*
X142900771Y-83062268D01*
X142900771Y-83062268D02*
X142853152Y-83157506D01*
X142853152Y-83157506D02*
X142853152Y-83300363D01*
X142853152Y-83300363D02*
X142900771Y-83395601D01*
X142900771Y-83395601D02*
X142948390Y-83443220D01*
X142853152Y-82633696D02*
X142853152Y-82109887D01*
X142853152Y-82109887D02*
X143519819Y-82633696D01*
X143519819Y-82633696D02*
X143519819Y-82109887D01*
D11*
X112266516Y-43314449D02*
X112599849Y-43314449D01*
X112742706Y-43838259D02*
X112266516Y-43838259D01*
X112266516Y-43838259D02*
X112266516Y-42838259D01*
X112266516Y-42838259D02*
X112742706Y-42838259D01*
X113314135Y-43266830D02*
X113218897Y-43219211D01*
X113218897Y-43219211D02*
X113171278Y-43171592D01*
X113171278Y-43171592D02*
X113123659Y-43076354D01*
X113123659Y-43076354D02*
X113123659Y-43028735D01*
X113123659Y-43028735D02*
X113171278Y-42933497D01*
X113171278Y-42933497D02*
X113218897Y-42885878D01*
X113218897Y-42885878D02*
X113314135Y-42838259D01*
X113314135Y-42838259D02*
X113504611Y-42838259D01*
X113504611Y-42838259D02*
X113599849Y-42885878D01*
X113599849Y-42885878D02*
X113647468Y-42933497D01*
X113647468Y-42933497D02*
X113695087Y-43028735D01*
X113695087Y-43028735D02*
X113695087Y-43076354D01*
X113695087Y-43076354D02*
X113647468Y-43171592D01*
X113647468Y-43171592D02*
X113599849Y-43219211D01*
X113599849Y-43219211D02*
X113504611Y-43266830D01*
X113504611Y-43266830D02*
X113314135Y-43266830D01*
X113314135Y-43266830D02*
X113218897Y-43314449D01*
X113218897Y-43314449D02*
X113171278Y-43362068D01*
X113171278Y-43362068D02*
X113123659Y-43457306D01*
X113123659Y-43457306D02*
X113123659Y-43647782D01*
X113123659Y-43647782D02*
X113171278Y-43743020D01*
X113171278Y-43743020D02*
X113218897Y-43790640D01*
X113218897Y-43790640D02*
X113314135Y-43838259D01*
X113314135Y-43838259D02*
X113504611Y-43838259D01*
X113504611Y-43838259D02*
X113599849Y-43790640D01*
X113599849Y-43790640D02*
X113647468Y-43743020D01*
X113647468Y-43743020D02*
X113695087Y-43647782D01*
X113695087Y-43647782D02*
X113695087Y-43457306D01*
X113695087Y-43457306D02*
X113647468Y-43362068D01*
X113647468Y-43362068D02*
X113599849Y-43314449D01*
X113599849Y-43314449D02*
X113504611Y-43266830D01*
X114314135Y-42838259D02*
X114409373Y-42838259D01*
X114409373Y-42838259D02*
X114504611Y-42885878D01*
X114504611Y-42885878D02*
X114552230Y-42933497D01*
X114552230Y-42933497D02*
X114599849Y-43028735D01*
X114599849Y-43028735D02*
X114647468Y-43219211D01*
X114647468Y-43219211D02*
X114647468Y-43457306D01*
X114647468Y-43457306D02*
X114599849Y-43647782D01*
X114599849Y-43647782D02*
X114552230Y-43743020D01*
X114552230Y-43743020D02*
X114504611Y-43790640D01*
X114504611Y-43790640D02*
X114409373Y-43838259D01*
X114409373Y-43838259D02*
X114314135Y-43838259D01*
X114314135Y-43838259D02*
X114218897Y-43790640D01*
X114218897Y-43790640D02*
X114171278Y-43743020D01*
X114171278Y-43743020D02*
X114123659Y-43647782D01*
X114123659Y-43647782D02*
X114076040Y-43457306D01*
X114076040Y-43457306D02*
X114076040Y-43219211D01*
X114076040Y-43219211D02*
X114123659Y-43028735D01*
X114123659Y-43028735D02*
X114171278Y-42933497D01*
X114171278Y-42933497D02*
X114218897Y-42885878D01*
X114218897Y-42885878D02*
X114314135Y-42838259D01*
X115076040Y-43457306D02*
X115837945Y-43457306D01*
X116361754Y-43838259D02*
X116552230Y-43838259D01*
X116552230Y-43838259D02*
X116647468Y-43790640D01*
X116647468Y-43790640D02*
X116695087Y-43743020D01*
X116695087Y-43743020D02*
X116790325Y-43600163D01*
X116790325Y-43600163D02*
X116837944Y-43409687D01*
X116837944Y-43409687D02*
X116837944Y-43028735D01*
X116837944Y-43028735D02*
X116790325Y-42933497D01*
X116790325Y-42933497D02*
X116742706Y-42885878D01*
X116742706Y-42885878D02*
X116647468Y-42838259D01*
X116647468Y-42838259D02*
X116456992Y-42838259D01*
X116456992Y-42838259D02*
X116361754Y-42885878D01*
X116361754Y-42885878D02*
X116314135Y-42933497D01*
X116314135Y-42933497D02*
X116266516Y-43028735D01*
X116266516Y-43028735D02*
X116266516Y-43266830D01*
X116266516Y-43266830D02*
X116314135Y-43362068D01*
X116314135Y-43362068D02*
X116361754Y-43409687D01*
X116361754Y-43409687D02*
X116456992Y-43457306D01*
X116456992Y-43457306D02*
X116647468Y-43457306D01*
X116647468Y-43457306D02*
X116742706Y-43409687D01*
X116742706Y-43409687D02*
X116790325Y-43362068D01*
X116790325Y-43362068D02*
X116837944Y-43266830D01*
X117456992Y-42838259D02*
X117552230Y-42838259D01*
X117552230Y-42838259D02*
X117647468Y-42885878D01*
X117647468Y-42885878D02*
X117695087Y-42933497D01*
X117695087Y-42933497D02*
X117742706Y-43028735D01*
X117742706Y-43028735D02*
X117790325Y-43219211D01*
X117790325Y-43219211D02*
X117790325Y-43457306D01*
X117790325Y-43457306D02*
X117742706Y-43647782D01*
X117742706Y-43647782D02*
X117695087Y-43743020D01*
X117695087Y-43743020D02*
X117647468Y-43790640D01*
X117647468Y-43790640D02*
X117552230Y-43838259D01*
X117552230Y-43838259D02*
X117456992Y-43838259D01*
X117456992Y-43838259D02*
X117361754Y-43790640D01*
X117361754Y-43790640D02*
X117314135Y-43743020D01*
X117314135Y-43743020D02*
X117266516Y-43647782D01*
X117266516Y-43647782D02*
X117218897Y-43457306D01*
X117218897Y-43457306D02*
X117218897Y-43219211D01*
X117218897Y-43219211D02*
X117266516Y-43028735D01*
X117266516Y-43028735D02*
X117314135Y-42933497D01*
X117314135Y-42933497D02*
X117361754Y-42885878D01*
X117361754Y-42885878D02*
X117456992Y-42838259D01*
X118409373Y-42838259D02*
X118504611Y-42838259D01*
X118504611Y-42838259D02*
X118599849Y-42885878D01*
X118599849Y-42885878D02*
X118647468Y-42933497D01*
X118647468Y-42933497D02*
X118695087Y-43028735D01*
X118695087Y-43028735D02*
X118742706Y-43219211D01*
X118742706Y-43219211D02*
X118742706Y-43457306D01*
X118742706Y-43457306D02*
X118695087Y-43647782D01*
X118695087Y-43647782D02*
X118647468Y-43743020D01*
X118647468Y-43743020D02*
X118599849Y-43790640D01*
X118599849Y-43790640D02*
X118504611Y-43838259D01*
X118504611Y-43838259D02*
X118409373Y-43838259D01*
X118409373Y-43838259D02*
X118314135Y-43790640D01*
X118314135Y-43790640D02*
X118266516Y-43743020D01*
X118266516Y-43743020D02*
X118218897Y-43647782D01*
X118218897Y-43647782D02*
X118171278Y-43457306D01*
X118171278Y-43457306D02*
X118171278Y-43219211D01*
X118171278Y-43219211D02*
X118218897Y-43028735D01*
X118218897Y-43028735D02*
X118266516Y-42933497D01*
X118266516Y-42933497D02*
X118314135Y-42885878D01*
X118314135Y-42885878D02*
X118409373Y-42838259D01*
X119171278Y-43838259D02*
X119171278Y-42838259D01*
X119171278Y-42838259D02*
X119504611Y-43552544D01*
X119504611Y-43552544D02*
X119837944Y-42838259D01*
X119837944Y-42838259D02*
X119837944Y-43838259D01*
X120266516Y-42933497D02*
X120314135Y-42885878D01*
X120314135Y-42885878D02*
X120409373Y-42838259D01*
X120409373Y-42838259D02*
X120647468Y-42838259D01*
X120647468Y-42838259D02*
X120742706Y-42885878D01*
X120742706Y-42885878D02*
X120790325Y-42933497D01*
X120790325Y-42933497D02*
X120837944Y-43028735D01*
X120837944Y-43028735D02*
X120837944Y-43123973D01*
X120837944Y-43123973D02*
X120790325Y-43266830D01*
X120790325Y-43266830D02*
X120218897Y-43838259D01*
X120218897Y-43838259D02*
X120837944Y-43838259D01*
X121218897Y-42933497D02*
X121266516Y-42885878D01*
X121266516Y-42885878D02*
X121361754Y-42838259D01*
X121361754Y-42838259D02*
X121599849Y-42838259D01*
X121599849Y-42838259D02*
X121695087Y-42885878D01*
X121695087Y-42885878D02*
X121742706Y-42933497D01*
X121742706Y-42933497D02*
X121790325Y-43028735D01*
X121790325Y-43028735D02*
X121790325Y-43123973D01*
X121790325Y-43123973D02*
X121742706Y-43266830D01*
X121742706Y-43266830D02*
X121171278Y-43838259D01*
X121171278Y-43838259D02*
X121790325Y-43838259D01*
X122742706Y-43838259D02*
X122171278Y-43838259D01*
X122456992Y-43838259D02*
X122456992Y-42838259D01*
X122456992Y-42838259D02*
X122361754Y-42981116D01*
X122361754Y-42981116D02*
X122266516Y-43076354D01*
X122266516Y-43076354D02*
X122171278Y-43123973D01*
X123076040Y-42838259D02*
X123695087Y-42838259D01*
X123695087Y-42838259D02*
X123361754Y-43219211D01*
X123361754Y-43219211D02*
X123504611Y-43219211D01*
X123504611Y-43219211D02*
X123599849Y-43266830D01*
X123599849Y-43266830D02*
X123647468Y-43314449D01*
X123647468Y-43314449D02*
X123695087Y-43409687D01*
X123695087Y-43409687D02*
X123695087Y-43647782D01*
X123695087Y-43647782D02*
X123647468Y-43743020D01*
X123647468Y-43743020D02*
X123599849Y-43790640D01*
X123599849Y-43790640D02*
X123504611Y-43838259D01*
X123504611Y-43838259D02*
X123218897Y-43838259D01*
X123218897Y-43838259D02*
X123123659Y-43790640D01*
X123123659Y-43790640D02*
X123076040Y-43743020D01*
X124076040Y-43790640D02*
X124218897Y-43838259D01*
X124218897Y-43838259D02*
X124456992Y-43838259D01*
X124456992Y-43838259D02*
X124552230Y-43790640D01*
X124552230Y-43790640D02*
X124599849Y-43743020D01*
X124599849Y-43743020D02*
X124647468Y-43647782D01*
X124647468Y-43647782D02*
X124647468Y-43552544D01*
X124647468Y-43552544D02*
X124599849Y-43457306D01*
X124599849Y-43457306D02*
X124552230Y-43409687D01*
X124552230Y-43409687D02*
X124456992Y-43362068D01*
X124456992Y-43362068D02*
X124266516Y-43314449D01*
X124266516Y-43314449D02*
X124171278Y-43266830D01*
X124171278Y-43266830D02*
X124123659Y-43219211D01*
X124123659Y-43219211D02*
X124076040Y-43123973D01*
X124076040Y-43123973D02*
X124076040Y-43028735D01*
X124076040Y-43028735D02*
X124123659Y-42933497D01*
X124123659Y-42933497D02*
X124171278Y-42885878D01*
X124171278Y-42885878D02*
X124266516Y-42838259D01*
X124266516Y-42838259D02*
X124504611Y-42838259D01*
X124504611Y-42838259D02*
X124647468Y-42885878D01*
X124837945Y-43933497D02*
X125599849Y-43933497D01*
X125790326Y-43790640D02*
X125933183Y-43838259D01*
X125933183Y-43838259D02*
X126171278Y-43838259D01*
X126171278Y-43838259D02*
X126266516Y-43790640D01*
X126266516Y-43790640D02*
X126314135Y-43743020D01*
X126314135Y-43743020D02*
X126361754Y-43647782D01*
X126361754Y-43647782D02*
X126361754Y-43552544D01*
X126361754Y-43552544D02*
X126314135Y-43457306D01*
X126314135Y-43457306D02*
X126266516Y-43409687D01*
X126266516Y-43409687D02*
X126171278Y-43362068D01*
X126171278Y-43362068D02*
X125980802Y-43314449D01*
X125980802Y-43314449D02*
X125885564Y-43266830D01*
X125885564Y-43266830D02*
X125837945Y-43219211D01*
X125837945Y-43219211D02*
X125790326Y-43123973D01*
X125790326Y-43123973D02*
X125790326Y-43028735D01*
X125790326Y-43028735D02*
X125837945Y-42933497D01*
X125837945Y-42933497D02*
X125885564Y-42885878D01*
X125885564Y-42885878D02*
X125980802Y-42838259D01*
X125980802Y-42838259D02*
X126218897Y-42838259D01*
X126218897Y-42838259D02*
X126361754Y-42885878D01*
X126790326Y-43314449D02*
X127123659Y-43314449D01*
X127266516Y-43838259D02*
X126790326Y-43838259D01*
X126790326Y-43838259D02*
X126790326Y-42838259D01*
X126790326Y-42838259D02*
X127266516Y-42838259D01*
X127885564Y-42838259D02*
X127980802Y-42838259D01*
X127980802Y-42838259D02*
X128076040Y-42885878D01*
X128076040Y-42885878D02*
X128123659Y-42933497D01*
X128123659Y-42933497D02*
X128171278Y-43028735D01*
X128171278Y-43028735D02*
X128218897Y-43219211D01*
X128218897Y-43219211D02*
X128218897Y-43457306D01*
X128218897Y-43457306D02*
X128171278Y-43647782D01*
X128171278Y-43647782D02*
X128123659Y-43743020D01*
X128123659Y-43743020D02*
X128076040Y-43790640D01*
X128076040Y-43790640D02*
X127980802Y-43838259D01*
X127980802Y-43838259D02*
X127885564Y-43838259D01*
X127885564Y-43838259D02*
X127790326Y-43790640D01*
X127790326Y-43790640D02*
X127742707Y-43743020D01*
X127742707Y-43743020D02*
X127695088Y-43647782D01*
X127695088Y-43647782D02*
X127647469Y-43457306D01*
X127647469Y-43457306D02*
X127647469Y-43219211D01*
X127647469Y-43219211D02*
X127695088Y-43028735D01*
X127695088Y-43028735D02*
X127742707Y-42933497D01*
X127742707Y-42933497D02*
X127790326Y-42885878D01*
X127790326Y-42885878D02*
X127885564Y-42838259D01*
X129123659Y-42838259D02*
X128647469Y-42838259D01*
X128647469Y-42838259D02*
X128599850Y-43314449D01*
X128599850Y-43314449D02*
X128647469Y-43266830D01*
X128647469Y-43266830D02*
X128742707Y-43219211D01*
X128742707Y-43219211D02*
X128980802Y-43219211D01*
X128980802Y-43219211D02*
X129076040Y-43266830D01*
X129076040Y-43266830D02*
X129123659Y-43314449D01*
X129123659Y-43314449D02*
X129171278Y-43409687D01*
X129171278Y-43409687D02*
X129171278Y-43647782D01*
X129171278Y-43647782D02*
X129123659Y-43743020D01*
X129123659Y-43743020D02*
X129076040Y-43790640D01*
X129076040Y-43790640D02*
X128980802Y-43838259D01*
X128980802Y-43838259D02*
X128742707Y-43838259D01*
X128742707Y-43838259D02*
X128647469Y-43790640D01*
X128647469Y-43790640D02*
X128599850Y-43743020D01*
X129790326Y-42838259D02*
X129885564Y-42838259D01*
X129885564Y-42838259D02*
X129980802Y-42885878D01*
X129980802Y-42885878D02*
X130028421Y-42933497D01*
X130028421Y-42933497D02*
X130076040Y-43028735D01*
X130076040Y-43028735D02*
X130123659Y-43219211D01*
X130123659Y-43219211D02*
X130123659Y-43457306D01*
X130123659Y-43457306D02*
X130076040Y-43647782D01*
X130076040Y-43647782D02*
X130028421Y-43743020D01*
X130028421Y-43743020D02*
X129980802Y-43790640D01*
X129980802Y-43790640D02*
X129885564Y-43838259D01*
X129885564Y-43838259D02*
X129790326Y-43838259D01*
X129790326Y-43838259D02*
X129695088Y-43790640D01*
X129695088Y-43790640D02*
X129647469Y-43743020D01*
X129647469Y-43743020D02*
X129599850Y-43647782D01*
X129599850Y-43647782D02*
X129552231Y-43457306D01*
X129552231Y-43457306D02*
X129552231Y-43219211D01*
X129552231Y-43219211D02*
X129599850Y-43028735D01*
X129599850Y-43028735D02*
X129647469Y-42933497D01*
X129647469Y-42933497D02*
X129695088Y-42885878D01*
X129695088Y-42885878D02*
X129790326Y-42838259D01*
X130314136Y-43933497D02*
X131076040Y-43933497D01*
X131647469Y-43314449D02*
X131790326Y-43362068D01*
X131790326Y-43362068D02*
X131837945Y-43409687D01*
X131837945Y-43409687D02*
X131885564Y-43504925D01*
X131885564Y-43504925D02*
X131885564Y-43647782D01*
X131885564Y-43647782D02*
X131837945Y-43743020D01*
X131837945Y-43743020D02*
X131790326Y-43790640D01*
X131790326Y-43790640D02*
X131695088Y-43838259D01*
X131695088Y-43838259D02*
X131314136Y-43838259D01*
X131314136Y-43838259D02*
X131314136Y-42838259D01*
X131314136Y-42838259D02*
X131647469Y-42838259D01*
X131647469Y-42838259D02*
X131742707Y-42885878D01*
X131742707Y-42885878D02*
X131790326Y-42933497D01*
X131790326Y-42933497D02*
X131837945Y-43028735D01*
X131837945Y-43028735D02*
X131837945Y-43123973D01*
X131837945Y-43123973D02*
X131790326Y-43219211D01*
X131790326Y-43219211D02*
X131742707Y-43266830D01*
X131742707Y-43266830D02*
X131647469Y-43314449D01*
X131647469Y-43314449D02*
X131314136Y-43314449D01*
X132314136Y-43838259D02*
X132314136Y-43171592D01*
X132314136Y-43362068D02*
X132361755Y-43266830D01*
X132361755Y-43266830D02*
X132409374Y-43219211D01*
X132409374Y-43219211D02*
X132504612Y-43171592D01*
X132504612Y-43171592D02*
X132599850Y-43171592D01*
X133314136Y-43790640D02*
X133218898Y-43838259D01*
X133218898Y-43838259D02*
X133028422Y-43838259D01*
X133028422Y-43838259D02*
X132933184Y-43790640D01*
X132933184Y-43790640D02*
X132885565Y-43695401D01*
X132885565Y-43695401D02*
X132885565Y-43314449D01*
X132885565Y-43314449D02*
X132933184Y-43219211D01*
X132933184Y-43219211D02*
X133028422Y-43171592D01*
X133028422Y-43171592D02*
X133218898Y-43171592D01*
X133218898Y-43171592D02*
X133314136Y-43219211D01*
X133314136Y-43219211D02*
X133361755Y-43314449D01*
X133361755Y-43314449D02*
X133361755Y-43409687D01*
X133361755Y-43409687D02*
X132885565Y-43504925D01*
X134218898Y-43838259D02*
X134218898Y-43314449D01*
X134218898Y-43314449D02*
X134171279Y-43219211D01*
X134171279Y-43219211D02*
X134076041Y-43171592D01*
X134076041Y-43171592D02*
X133885565Y-43171592D01*
X133885565Y-43171592D02*
X133790327Y-43219211D01*
X134218898Y-43790640D02*
X134123660Y-43838259D01*
X134123660Y-43838259D02*
X133885565Y-43838259D01*
X133885565Y-43838259D02*
X133790327Y-43790640D01*
X133790327Y-43790640D02*
X133742708Y-43695401D01*
X133742708Y-43695401D02*
X133742708Y-43600163D01*
X133742708Y-43600163D02*
X133790327Y-43504925D01*
X133790327Y-43504925D02*
X133885565Y-43457306D01*
X133885565Y-43457306D02*
X134123660Y-43457306D01*
X134123660Y-43457306D02*
X134218898Y-43409687D01*
X134695089Y-43838259D02*
X134695089Y-42838259D01*
X134790327Y-43457306D02*
X135076041Y-43838259D01*
X135076041Y-43171592D02*
X134695089Y-43552544D01*
X135647470Y-43838259D02*
X135552232Y-43790640D01*
X135552232Y-43790640D02*
X135504613Y-43743020D01*
X135504613Y-43743020D02*
X135456994Y-43647782D01*
X135456994Y-43647782D02*
X135456994Y-43362068D01*
X135456994Y-43362068D02*
X135504613Y-43266830D01*
X135504613Y-43266830D02*
X135552232Y-43219211D01*
X135552232Y-43219211D02*
X135647470Y-43171592D01*
X135647470Y-43171592D02*
X135790327Y-43171592D01*
X135790327Y-43171592D02*
X135885565Y-43219211D01*
X135885565Y-43219211D02*
X135933184Y-43266830D01*
X135933184Y-43266830D02*
X135980803Y-43362068D01*
X135980803Y-43362068D02*
X135980803Y-43647782D01*
X135980803Y-43647782D02*
X135933184Y-43743020D01*
X135933184Y-43743020D02*
X135885565Y-43790640D01*
X135885565Y-43790640D02*
X135790327Y-43838259D01*
X135790327Y-43838259D02*
X135647470Y-43838259D01*
X136837946Y-43171592D02*
X136837946Y-43838259D01*
X136409375Y-43171592D02*
X136409375Y-43695401D01*
X136409375Y-43695401D02*
X136456994Y-43790640D01*
X136456994Y-43790640D02*
X136552232Y-43838259D01*
X136552232Y-43838259D02*
X136695089Y-43838259D01*
X136695089Y-43838259D02*
X136790327Y-43790640D01*
X136790327Y-43790640D02*
X136837946Y-43743020D01*
X137171280Y-43171592D02*
X137552232Y-43171592D01*
X137314137Y-42838259D02*
X137314137Y-43695401D01*
X137314137Y-43695401D02*
X137361756Y-43790640D01*
X137361756Y-43790640D02*
X137456994Y-43838259D01*
X137456994Y-43838259D02*
X137552232Y-43838259D01*
X97928897Y-57110640D02*
X98071754Y-57158259D01*
X98071754Y-57158259D02*
X98309849Y-57158259D01*
X98309849Y-57158259D02*
X98405087Y-57110640D01*
X98405087Y-57110640D02*
X98452706Y-57063020D01*
X98452706Y-57063020D02*
X98500325Y-56967782D01*
X98500325Y-56967782D02*
X98500325Y-56872544D01*
X98500325Y-56872544D02*
X98452706Y-56777306D01*
X98452706Y-56777306D02*
X98405087Y-56729687D01*
X98405087Y-56729687D02*
X98309849Y-56682068D01*
X98309849Y-56682068D02*
X98119373Y-56634449D01*
X98119373Y-56634449D02*
X98024135Y-56586830D01*
X98024135Y-56586830D02*
X97976516Y-56539211D01*
X97976516Y-56539211D02*
X97928897Y-56443973D01*
X97928897Y-56443973D02*
X97928897Y-56348735D01*
X97928897Y-56348735D02*
X97976516Y-56253497D01*
X97976516Y-56253497D02*
X98024135Y-56205878D01*
X98024135Y-56205878D02*
X98119373Y-56158259D01*
X98119373Y-56158259D02*
X98357468Y-56158259D01*
X98357468Y-56158259D02*
X98500325Y-56205878D01*
X98928897Y-56634449D02*
X99262230Y-56634449D01*
X99405087Y-57158259D02*
X98928897Y-57158259D01*
X98928897Y-57158259D02*
X98928897Y-56158259D01*
X98928897Y-56158259D02*
X99405087Y-56158259D01*
X100024135Y-56158259D02*
X100119373Y-56158259D01*
X100119373Y-56158259D02*
X100214611Y-56205878D01*
X100214611Y-56205878D02*
X100262230Y-56253497D01*
X100262230Y-56253497D02*
X100309849Y-56348735D01*
X100309849Y-56348735D02*
X100357468Y-56539211D01*
X100357468Y-56539211D02*
X100357468Y-56777306D01*
X100357468Y-56777306D02*
X100309849Y-56967782D01*
X100309849Y-56967782D02*
X100262230Y-57063020D01*
X100262230Y-57063020D02*
X100214611Y-57110640D01*
X100214611Y-57110640D02*
X100119373Y-57158259D01*
X100119373Y-57158259D02*
X100024135Y-57158259D01*
X100024135Y-57158259D02*
X99928897Y-57110640D01*
X99928897Y-57110640D02*
X99881278Y-57063020D01*
X99881278Y-57063020D02*
X99833659Y-56967782D01*
X99833659Y-56967782D02*
X99786040Y-56777306D01*
X99786040Y-56777306D02*
X99786040Y-56539211D01*
X99786040Y-56539211D02*
X99833659Y-56348735D01*
X99833659Y-56348735D02*
X99881278Y-56253497D01*
X99881278Y-56253497D02*
X99928897Y-56205878D01*
X99928897Y-56205878D02*
X100024135Y-56158259D01*
X101262230Y-56158259D02*
X100786040Y-56158259D01*
X100786040Y-56158259D02*
X100738421Y-56634449D01*
X100738421Y-56634449D02*
X100786040Y-56586830D01*
X100786040Y-56586830D02*
X100881278Y-56539211D01*
X100881278Y-56539211D02*
X101119373Y-56539211D01*
X101119373Y-56539211D02*
X101214611Y-56586830D01*
X101214611Y-56586830D02*
X101262230Y-56634449D01*
X101262230Y-56634449D02*
X101309849Y-56729687D01*
X101309849Y-56729687D02*
X101309849Y-56967782D01*
X101309849Y-56967782D02*
X101262230Y-57063020D01*
X101262230Y-57063020D02*
X101214611Y-57110640D01*
X101214611Y-57110640D02*
X101119373Y-57158259D01*
X101119373Y-57158259D02*
X100881278Y-57158259D01*
X100881278Y-57158259D02*
X100786040Y-57110640D01*
X100786040Y-57110640D02*
X100738421Y-57063020D01*
X101928897Y-56158259D02*
X102024135Y-56158259D01*
X102024135Y-56158259D02*
X102119373Y-56205878D01*
X102119373Y-56205878D02*
X102166992Y-56253497D01*
X102166992Y-56253497D02*
X102214611Y-56348735D01*
X102214611Y-56348735D02*
X102262230Y-56539211D01*
X102262230Y-56539211D02*
X102262230Y-56777306D01*
X102262230Y-56777306D02*
X102214611Y-56967782D01*
X102214611Y-56967782D02*
X102166992Y-57063020D01*
X102166992Y-57063020D02*
X102119373Y-57110640D01*
X102119373Y-57110640D02*
X102024135Y-57158259D01*
X102024135Y-57158259D02*
X101928897Y-57158259D01*
X101928897Y-57158259D02*
X101833659Y-57110640D01*
X101833659Y-57110640D02*
X101786040Y-57063020D01*
X101786040Y-57063020D02*
X101738421Y-56967782D01*
X101738421Y-56967782D02*
X101690802Y-56777306D01*
X101690802Y-56777306D02*
X101690802Y-56539211D01*
X101690802Y-56539211D02*
X101738421Y-56348735D01*
X101738421Y-56348735D02*
X101786040Y-56253497D01*
X101786040Y-56253497D02*
X101833659Y-56205878D01*
X101833659Y-56205878D02*
X101928897Y-56158259D01*
X117205087Y-46450640D02*
X117109849Y-46498259D01*
X117109849Y-46498259D02*
X116919373Y-46498259D01*
X116919373Y-46498259D02*
X116824135Y-46450640D01*
X116824135Y-46450640D02*
X116776516Y-46403020D01*
X116776516Y-46403020D02*
X116728897Y-46307782D01*
X116728897Y-46307782D02*
X116728897Y-46022068D01*
X116728897Y-46022068D02*
X116776516Y-45926830D01*
X116776516Y-45926830D02*
X116824135Y-45879211D01*
X116824135Y-45879211D02*
X116919373Y-45831592D01*
X116919373Y-45831592D02*
X117109849Y-45831592D01*
X117109849Y-45831592D02*
X117205087Y-45879211D01*
X117538421Y-45831592D02*
X117776516Y-46498259D01*
X117776516Y-46498259D02*
X118014611Y-45831592D01*
X118824135Y-46498259D02*
X118824135Y-45974449D01*
X118824135Y-45974449D02*
X118776516Y-45879211D01*
X118776516Y-45879211D02*
X118681278Y-45831592D01*
X118681278Y-45831592D02*
X118490802Y-45831592D01*
X118490802Y-45831592D02*
X118395564Y-45879211D01*
X118824135Y-46450640D02*
X118728897Y-46498259D01*
X118728897Y-46498259D02*
X118490802Y-46498259D01*
X118490802Y-46498259D02*
X118395564Y-46450640D01*
X118395564Y-46450640D02*
X118347945Y-46355401D01*
X118347945Y-46355401D02*
X118347945Y-46260163D01*
X118347945Y-46260163D02*
X118395564Y-46164925D01*
X118395564Y-46164925D02*
X118490802Y-46117306D01*
X118490802Y-46117306D02*
X118728897Y-46117306D01*
X118728897Y-46117306D02*
X118824135Y-46069687D01*
X119443183Y-46498259D02*
X119347945Y-46450640D01*
X119347945Y-46450640D02*
X119300326Y-46355401D01*
X119300326Y-46355401D02*
X119300326Y-45498259D01*
X120252707Y-46498259D02*
X120252707Y-45498259D01*
X120252707Y-46450640D02*
X120157469Y-46498259D01*
X120157469Y-46498259D02*
X119966993Y-46498259D01*
X119966993Y-46498259D02*
X119871755Y-46450640D01*
X119871755Y-46450640D02*
X119824136Y-46403020D01*
X119824136Y-46403020D02*
X119776517Y-46307782D01*
X119776517Y-46307782D02*
X119776517Y-46022068D01*
X119776517Y-46022068D02*
X119824136Y-45926830D01*
X119824136Y-45926830D02*
X119871755Y-45879211D01*
X119871755Y-45879211D02*
X119966993Y-45831592D01*
X119966993Y-45831592D02*
X120157469Y-45831592D01*
X120157469Y-45831592D02*
X120252707Y-45879211D01*
X121109850Y-46450640D02*
X121014612Y-46498259D01*
X121014612Y-46498259D02*
X120824136Y-46498259D01*
X120824136Y-46498259D02*
X120728898Y-46450640D01*
X120728898Y-46450640D02*
X120681279Y-46355401D01*
X120681279Y-46355401D02*
X120681279Y-45974449D01*
X120681279Y-45974449D02*
X120728898Y-45879211D01*
X120728898Y-45879211D02*
X120824136Y-45831592D01*
X120824136Y-45831592D02*
X121014612Y-45831592D01*
X121014612Y-45831592D02*
X121109850Y-45879211D01*
X121109850Y-45879211D02*
X121157469Y-45974449D01*
X121157469Y-45974449D02*
X121157469Y-46069687D01*
X121157469Y-46069687D02*
X120681279Y-46164925D01*
X121538422Y-46450640D02*
X121633660Y-46498259D01*
X121633660Y-46498259D02*
X121824136Y-46498259D01*
X121824136Y-46498259D02*
X121919374Y-46450640D01*
X121919374Y-46450640D02*
X121966993Y-46355401D01*
X121966993Y-46355401D02*
X121966993Y-46307782D01*
X121966993Y-46307782D02*
X121919374Y-46212544D01*
X121919374Y-46212544D02*
X121824136Y-46164925D01*
X121824136Y-46164925D02*
X121681279Y-46164925D01*
X121681279Y-46164925D02*
X121586041Y-46117306D01*
X121586041Y-46117306D02*
X121538422Y-46022068D01*
X121538422Y-46022068D02*
X121538422Y-45974449D01*
X121538422Y-45974449D02*
X121586041Y-45879211D01*
X121586041Y-45879211D02*
X121681279Y-45831592D01*
X121681279Y-45831592D02*
X121824136Y-45831592D01*
X121824136Y-45831592D02*
X121919374Y-45879211D01*
X122347946Y-46450640D02*
X122443184Y-46498259D01*
X122443184Y-46498259D02*
X122633660Y-46498259D01*
X122633660Y-46498259D02*
X122728898Y-46450640D01*
X122728898Y-46450640D02*
X122776517Y-46355401D01*
X122776517Y-46355401D02*
X122776517Y-46307782D01*
X122776517Y-46307782D02*
X122728898Y-46212544D01*
X122728898Y-46212544D02*
X122633660Y-46164925D01*
X122633660Y-46164925D02*
X122490803Y-46164925D01*
X122490803Y-46164925D02*
X122395565Y-46117306D01*
X122395565Y-46117306D02*
X122347946Y-46022068D01*
X122347946Y-46022068D02*
X122347946Y-45974449D01*
X122347946Y-45974449D02*
X122395565Y-45879211D01*
X122395565Y-45879211D02*
X122490803Y-45831592D01*
X122490803Y-45831592D02*
X122633660Y-45831592D01*
X122633660Y-45831592D02*
X122728898Y-45879211D01*
X123824136Y-46022068D02*
X123776517Y-45974449D01*
X123776517Y-45974449D02*
X123681279Y-45926830D01*
X123681279Y-45926830D02*
X123586041Y-45926830D01*
X123586041Y-45926830D02*
X123490803Y-45974449D01*
X123490803Y-45974449D02*
X123443184Y-46022068D01*
X123443184Y-46022068D02*
X123395565Y-46117306D01*
X123395565Y-46117306D02*
X123395565Y-46212544D01*
X123395565Y-46212544D02*
X123443184Y-46307782D01*
X123443184Y-46307782D02*
X123490803Y-46355401D01*
X123490803Y-46355401D02*
X123586041Y-46403020D01*
X123586041Y-46403020D02*
X123681279Y-46403020D01*
X123681279Y-46403020D02*
X123776517Y-46355401D01*
X123776517Y-46355401D02*
X123824136Y-46307782D01*
X123824136Y-45926830D02*
X123824136Y-46307782D01*
X123824136Y-46307782D02*
X123871755Y-46355401D01*
X123871755Y-46355401D02*
X123919374Y-46355401D01*
X123919374Y-46355401D02*
X124014613Y-46307782D01*
X124014613Y-46307782D02*
X124062232Y-46212544D01*
X124062232Y-46212544D02*
X124062232Y-45974449D01*
X124062232Y-45974449D02*
X123966994Y-45831592D01*
X123966994Y-45831592D02*
X123824136Y-45736354D01*
X123824136Y-45736354D02*
X123633660Y-45688735D01*
X123633660Y-45688735D02*
X123443184Y-45736354D01*
X123443184Y-45736354D02*
X123300327Y-45831592D01*
X123300327Y-45831592D02*
X123205089Y-45974449D01*
X123205089Y-45974449D02*
X123157470Y-46164925D01*
X123157470Y-46164925D02*
X123205089Y-46355401D01*
X123205089Y-46355401D02*
X123300327Y-46498259D01*
X123300327Y-46498259D02*
X123443184Y-46593497D01*
X123443184Y-46593497D02*
X123633660Y-46641116D01*
X123633660Y-46641116D02*
X123824136Y-46593497D01*
X123824136Y-46593497D02*
X123966994Y-46498259D01*
X124919374Y-46450640D02*
X124824136Y-46498259D01*
X124824136Y-46498259D02*
X124633660Y-46498259D01*
X124633660Y-46498259D02*
X124538422Y-46450640D01*
X124538422Y-46450640D02*
X124490803Y-46403020D01*
X124490803Y-46403020D02*
X124443184Y-46307782D01*
X124443184Y-46307782D02*
X124443184Y-46022068D01*
X124443184Y-46022068D02*
X124490803Y-45926830D01*
X124490803Y-45926830D02*
X124538422Y-45879211D01*
X124538422Y-45879211D02*
X124633660Y-45831592D01*
X124633660Y-45831592D02*
X124824136Y-45831592D01*
X124824136Y-45831592D02*
X124919374Y-45879211D01*
X125252708Y-45831592D02*
X125490803Y-46498259D01*
X125490803Y-46498259D02*
X125728898Y-45831592D01*
X126538422Y-46498259D02*
X126538422Y-45974449D01*
X126538422Y-45974449D02*
X126490803Y-45879211D01*
X126490803Y-45879211D02*
X126395565Y-45831592D01*
X126395565Y-45831592D02*
X126205089Y-45831592D01*
X126205089Y-45831592D02*
X126109851Y-45879211D01*
X126538422Y-46450640D02*
X126443184Y-46498259D01*
X126443184Y-46498259D02*
X126205089Y-46498259D01*
X126205089Y-46498259D02*
X126109851Y-46450640D01*
X126109851Y-46450640D02*
X126062232Y-46355401D01*
X126062232Y-46355401D02*
X126062232Y-46260163D01*
X126062232Y-46260163D02*
X126109851Y-46164925D01*
X126109851Y-46164925D02*
X126205089Y-46117306D01*
X126205089Y-46117306D02*
X126443184Y-46117306D01*
X126443184Y-46117306D02*
X126538422Y-46069687D01*
X127157470Y-46498259D02*
X127062232Y-46450640D01*
X127062232Y-46450640D02*
X127014613Y-46355401D01*
X127014613Y-46355401D02*
X127014613Y-45498259D01*
X127966994Y-46498259D02*
X127966994Y-45498259D01*
X127966994Y-46450640D02*
X127871756Y-46498259D01*
X127871756Y-46498259D02*
X127681280Y-46498259D01*
X127681280Y-46498259D02*
X127586042Y-46450640D01*
X127586042Y-46450640D02*
X127538423Y-46403020D01*
X127538423Y-46403020D02*
X127490804Y-46307782D01*
X127490804Y-46307782D02*
X127490804Y-46022068D01*
X127490804Y-46022068D02*
X127538423Y-45926830D01*
X127538423Y-45926830D02*
X127586042Y-45879211D01*
X127586042Y-45879211D02*
X127681280Y-45831592D01*
X127681280Y-45831592D02*
X127871756Y-45831592D01*
X127871756Y-45831592D02*
X127966994Y-45879211D01*
X128824137Y-46450640D02*
X128728899Y-46498259D01*
X128728899Y-46498259D02*
X128538423Y-46498259D01*
X128538423Y-46498259D02*
X128443185Y-46450640D01*
X128443185Y-46450640D02*
X128395566Y-46355401D01*
X128395566Y-46355401D02*
X128395566Y-45974449D01*
X128395566Y-45974449D02*
X128443185Y-45879211D01*
X128443185Y-45879211D02*
X128538423Y-45831592D01*
X128538423Y-45831592D02*
X128728899Y-45831592D01*
X128728899Y-45831592D02*
X128824137Y-45879211D01*
X128824137Y-45879211D02*
X128871756Y-45974449D01*
X128871756Y-45974449D02*
X128871756Y-46069687D01*
X128871756Y-46069687D02*
X128395566Y-46164925D01*
X129252709Y-46450640D02*
X129347947Y-46498259D01*
X129347947Y-46498259D02*
X129538423Y-46498259D01*
X129538423Y-46498259D02*
X129633661Y-46450640D01*
X129633661Y-46450640D02*
X129681280Y-46355401D01*
X129681280Y-46355401D02*
X129681280Y-46307782D01*
X129681280Y-46307782D02*
X129633661Y-46212544D01*
X129633661Y-46212544D02*
X129538423Y-46164925D01*
X129538423Y-46164925D02*
X129395566Y-46164925D01*
X129395566Y-46164925D02*
X129300328Y-46117306D01*
X129300328Y-46117306D02*
X129252709Y-46022068D01*
X129252709Y-46022068D02*
X129252709Y-45974449D01*
X129252709Y-45974449D02*
X129300328Y-45879211D01*
X129300328Y-45879211D02*
X129395566Y-45831592D01*
X129395566Y-45831592D02*
X129538423Y-45831592D01*
X129538423Y-45831592D02*
X129633661Y-45879211D01*
X130062233Y-46450640D02*
X130157471Y-46498259D01*
X130157471Y-46498259D02*
X130347947Y-46498259D01*
X130347947Y-46498259D02*
X130443185Y-46450640D01*
X130443185Y-46450640D02*
X130490804Y-46355401D01*
X130490804Y-46355401D02*
X130490804Y-46307782D01*
X130490804Y-46307782D02*
X130443185Y-46212544D01*
X130443185Y-46212544D02*
X130347947Y-46164925D01*
X130347947Y-46164925D02*
X130205090Y-46164925D01*
X130205090Y-46164925D02*
X130109852Y-46117306D01*
X130109852Y-46117306D02*
X130062233Y-46022068D01*
X130062233Y-46022068D02*
X130062233Y-45974449D01*
X130062233Y-45974449D02*
X130109852Y-45879211D01*
X130109852Y-45879211D02*
X130205090Y-45831592D01*
X130205090Y-45831592D02*
X130347947Y-45831592D01*
X130347947Y-45831592D02*
X130443185Y-45879211D01*
X130919376Y-46403020D02*
X130966995Y-46450640D01*
X130966995Y-46450640D02*
X130919376Y-46498259D01*
X130919376Y-46498259D02*
X130871757Y-46450640D01*
X130871757Y-46450640D02*
X130919376Y-46403020D01*
X130919376Y-46403020D02*
X130919376Y-46498259D01*
X131824137Y-46450640D02*
X131728899Y-46498259D01*
X131728899Y-46498259D02*
X131538423Y-46498259D01*
X131538423Y-46498259D02*
X131443185Y-46450640D01*
X131443185Y-46450640D02*
X131395566Y-46403020D01*
X131395566Y-46403020D02*
X131347947Y-46307782D01*
X131347947Y-46307782D02*
X131347947Y-46022068D01*
X131347947Y-46022068D02*
X131395566Y-45926830D01*
X131395566Y-45926830D02*
X131443185Y-45879211D01*
X131443185Y-45879211D02*
X131538423Y-45831592D01*
X131538423Y-45831592D02*
X131728899Y-45831592D01*
X131728899Y-45831592D02*
X131824137Y-45879211D01*
X132395566Y-46498259D02*
X132300328Y-46450640D01*
X132300328Y-46450640D02*
X132252709Y-46403020D01*
X132252709Y-46403020D02*
X132205090Y-46307782D01*
X132205090Y-46307782D02*
X132205090Y-46022068D01*
X132205090Y-46022068D02*
X132252709Y-45926830D01*
X132252709Y-45926830D02*
X132300328Y-45879211D01*
X132300328Y-45879211D02*
X132395566Y-45831592D01*
X132395566Y-45831592D02*
X132538423Y-45831592D01*
X132538423Y-45831592D02*
X132633661Y-45879211D01*
X132633661Y-45879211D02*
X132681280Y-45926830D01*
X132681280Y-45926830D02*
X132728899Y-46022068D01*
X132728899Y-46022068D02*
X132728899Y-46307782D01*
X132728899Y-46307782D02*
X132681280Y-46403020D01*
X132681280Y-46403020D02*
X132633661Y-46450640D01*
X132633661Y-46450640D02*
X132538423Y-46498259D01*
X132538423Y-46498259D02*
X132395566Y-46498259D01*
X133157471Y-46498259D02*
X133157471Y-45831592D01*
X133157471Y-45926830D02*
X133205090Y-45879211D01*
X133205090Y-45879211D02*
X133300328Y-45831592D01*
X133300328Y-45831592D02*
X133443185Y-45831592D01*
X133443185Y-45831592D02*
X133538423Y-45879211D01*
X133538423Y-45879211D02*
X133586042Y-45974449D01*
X133586042Y-45974449D02*
X133586042Y-46498259D01*
X133586042Y-45974449D02*
X133633661Y-45879211D01*
X133633661Y-45879211D02*
X133728899Y-45831592D01*
X133728899Y-45831592D02*
X133871756Y-45831592D01*
X133871756Y-45831592D02*
X133966995Y-45879211D01*
X133966995Y-45879211D02*
X134014614Y-45974449D01*
X134014614Y-45974449D02*
X134014614Y-46498259D01*
X127286516Y-79214449D02*
X127619849Y-79214449D01*
X127762706Y-79738259D02*
X127286516Y-79738259D01*
X127286516Y-79738259D02*
X127286516Y-78738259D01*
X127286516Y-78738259D02*
X127762706Y-78738259D01*
X128334135Y-79166830D02*
X128238897Y-79119211D01*
X128238897Y-79119211D02*
X128191278Y-79071592D01*
X128191278Y-79071592D02*
X128143659Y-78976354D01*
X128143659Y-78976354D02*
X128143659Y-78928735D01*
X128143659Y-78928735D02*
X128191278Y-78833497D01*
X128191278Y-78833497D02*
X128238897Y-78785878D01*
X128238897Y-78785878D02*
X128334135Y-78738259D01*
X128334135Y-78738259D02*
X128524611Y-78738259D01*
X128524611Y-78738259D02*
X128619849Y-78785878D01*
X128619849Y-78785878D02*
X128667468Y-78833497D01*
X128667468Y-78833497D02*
X128715087Y-78928735D01*
X128715087Y-78928735D02*
X128715087Y-78976354D01*
X128715087Y-78976354D02*
X128667468Y-79071592D01*
X128667468Y-79071592D02*
X128619849Y-79119211D01*
X128619849Y-79119211D02*
X128524611Y-79166830D01*
X128524611Y-79166830D02*
X128334135Y-79166830D01*
X128334135Y-79166830D02*
X128238897Y-79214449D01*
X128238897Y-79214449D02*
X128191278Y-79262068D01*
X128191278Y-79262068D02*
X128143659Y-79357306D01*
X128143659Y-79357306D02*
X128143659Y-79547782D01*
X128143659Y-79547782D02*
X128191278Y-79643020D01*
X128191278Y-79643020D02*
X128238897Y-79690640D01*
X128238897Y-79690640D02*
X128334135Y-79738259D01*
X128334135Y-79738259D02*
X128524611Y-79738259D01*
X128524611Y-79738259D02*
X128619849Y-79690640D01*
X128619849Y-79690640D02*
X128667468Y-79643020D01*
X128667468Y-79643020D02*
X128715087Y-79547782D01*
X128715087Y-79547782D02*
X128715087Y-79357306D01*
X128715087Y-79357306D02*
X128667468Y-79262068D01*
X128667468Y-79262068D02*
X128619849Y-79214449D01*
X128619849Y-79214449D02*
X128524611Y-79166830D01*
X129334135Y-78738259D02*
X129429373Y-78738259D01*
X129429373Y-78738259D02*
X129524611Y-78785878D01*
X129524611Y-78785878D02*
X129572230Y-78833497D01*
X129572230Y-78833497D02*
X129619849Y-78928735D01*
X129619849Y-78928735D02*
X129667468Y-79119211D01*
X129667468Y-79119211D02*
X129667468Y-79357306D01*
X129667468Y-79357306D02*
X129619849Y-79547782D01*
X129619849Y-79547782D02*
X129572230Y-79643020D01*
X129572230Y-79643020D02*
X129524611Y-79690640D01*
X129524611Y-79690640D02*
X129429373Y-79738259D01*
X129429373Y-79738259D02*
X129334135Y-79738259D01*
X129334135Y-79738259D02*
X129238897Y-79690640D01*
X129238897Y-79690640D02*
X129191278Y-79643020D01*
X129191278Y-79643020D02*
X129143659Y-79547782D01*
X129143659Y-79547782D02*
X129096040Y-79357306D01*
X129096040Y-79357306D02*
X129096040Y-79119211D01*
X129096040Y-79119211D02*
X129143659Y-78928735D01*
X129143659Y-78928735D02*
X129191278Y-78833497D01*
X129191278Y-78833497D02*
X129238897Y-78785878D01*
X129238897Y-78785878D02*
X129334135Y-78738259D01*
X130096040Y-79357306D02*
X130857945Y-79357306D01*
X131381754Y-79738259D02*
X131572230Y-79738259D01*
X131572230Y-79738259D02*
X131667468Y-79690640D01*
X131667468Y-79690640D02*
X131715087Y-79643020D01*
X131715087Y-79643020D02*
X131810325Y-79500163D01*
X131810325Y-79500163D02*
X131857944Y-79309687D01*
X131857944Y-79309687D02*
X131857944Y-78928735D01*
X131857944Y-78928735D02*
X131810325Y-78833497D01*
X131810325Y-78833497D02*
X131762706Y-78785878D01*
X131762706Y-78785878D02*
X131667468Y-78738259D01*
X131667468Y-78738259D02*
X131476992Y-78738259D01*
X131476992Y-78738259D02*
X131381754Y-78785878D01*
X131381754Y-78785878D02*
X131334135Y-78833497D01*
X131334135Y-78833497D02*
X131286516Y-78928735D01*
X131286516Y-78928735D02*
X131286516Y-79166830D01*
X131286516Y-79166830D02*
X131334135Y-79262068D01*
X131334135Y-79262068D02*
X131381754Y-79309687D01*
X131381754Y-79309687D02*
X131476992Y-79357306D01*
X131476992Y-79357306D02*
X131667468Y-79357306D01*
X131667468Y-79357306D02*
X131762706Y-79309687D01*
X131762706Y-79309687D02*
X131810325Y-79262068D01*
X131810325Y-79262068D02*
X131857944Y-79166830D01*
X132476992Y-78738259D02*
X132572230Y-78738259D01*
X132572230Y-78738259D02*
X132667468Y-78785878D01*
X132667468Y-78785878D02*
X132715087Y-78833497D01*
X132715087Y-78833497D02*
X132762706Y-78928735D01*
X132762706Y-78928735D02*
X132810325Y-79119211D01*
X132810325Y-79119211D02*
X132810325Y-79357306D01*
X132810325Y-79357306D02*
X132762706Y-79547782D01*
X132762706Y-79547782D02*
X132715087Y-79643020D01*
X132715087Y-79643020D02*
X132667468Y-79690640D01*
X132667468Y-79690640D02*
X132572230Y-79738259D01*
X132572230Y-79738259D02*
X132476992Y-79738259D01*
X132476992Y-79738259D02*
X132381754Y-79690640D01*
X132381754Y-79690640D02*
X132334135Y-79643020D01*
X132334135Y-79643020D02*
X132286516Y-79547782D01*
X132286516Y-79547782D02*
X132238897Y-79357306D01*
X132238897Y-79357306D02*
X132238897Y-79119211D01*
X132238897Y-79119211D02*
X132286516Y-78928735D01*
X132286516Y-78928735D02*
X132334135Y-78833497D01*
X132334135Y-78833497D02*
X132381754Y-78785878D01*
X132381754Y-78785878D02*
X132476992Y-78738259D01*
X133429373Y-78738259D02*
X133524611Y-78738259D01*
X133524611Y-78738259D02*
X133619849Y-78785878D01*
X133619849Y-78785878D02*
X133667468Y-78833497D01*
X133667468Y-78833497D02*
X133715087Y-78928735D01*
X133715087Y-78928735D02*
X133762706Y-79119211D01*
X133762706Y-79119211D02*
X133762706Y-79357306D01*
X133762706Y-79357306D02*
X133715087Y-79547782D01*
X133715087Y-79547782D02*
X133667468Y-79643020D01*
X133667468Y-79643020D02*
X133619849Y-79690640D01*
X133619849Y-79690640D02*
X133524611Y-79738259D01*
X133524611Y-79738259D02*
X133429373Y-79738259D01*
X133429373Y-79738259D02*
X133334135Y-79690640D01*
X133334135Y-79690640D02*
X133286516Y-79643020D01*
X133286516Y-79643020D02*
X133238897Y-79547782D01*
X133238897Y-79547782D02*
X133191278Y-79357306D01*
X133191278Y-79357306D02*
X133191278Y-79119211D01*
X133191278Y-79119211D02*
X133238897Y-78928735D01*
X133238897Y-78928735D02*
X133286516Y-78833497D01*
X133286516Y-78833497D02*
X133334135Y-78785878D01*
X133334135Y-78785878D02*
X133429373Y-78738259D01*
X134191278Y-79738259D02*
X134191278Y-78738259D01*
X134191278Y-78738259D02*
X134524611Y-79452544D01*
X134524611Y-79452544D02*
X134857944Y-78738259D01*
X134857944Y-78738259D02*
X134857944Y-79738259D01*
X135286516Y-78833497D02*
X135334135Y-78785878D01*
X135334135Y-78785878D02*
X135429373Y-78738259D01*
X135429373Y-78738259D02*
X135667468Y-78738259D01*
X135667468Y-78738259D02*
X135762706Y-78785878D01*
X135762706Y-78785878D02*
X135810325Y-78833497D01*
X135810325Y-78833497D02*
X135857944Y-78928735D01*
X135857944Y-78928735D02*
X135857944Y-79023973D01*
X135857944Y-79023973D02*
X135810325Y-79166830D01*
X135810325Y-79166830D02*
X135238897Y-79738259D01*
X135238897Y-79738259D02*
X135857944Y-79738259D01*
X136238897Y-78833497D02*
X136286516Y-78785878D01*
X136286516Y-78785878D02*
X136381754Y-78738259D01*
X136381754Y-78738259D02*
X136619849Y-78738259D01*
X136619849Y-78738259D02*
X136715087Y-78785878D01*
X136715087Y-78785878D02*
X136762706Y-78833497D01*
X136762706Y-78833497D02*
X136810325Y-78928735D01*
X136810325Y-78928735D02*
X136810325Y-79023973D01*
X136810325Y-79023973D02*
X136762706Y-79166830D01*
X136762706Y-79166830D02*
X136191278Y-79738259D01*
X136191278Y-79738259D02*
X136810325Y-79738259D01*
X137762706Y-79738259D02*
X137191278Y-79738259D01*
X137476992Y-79738259D02*
X137476992Y-78738259D01*
X137476992Y-78738259D02*
X137381754Y-78881116D01*
X137381754Y-78881116D02*
X137286516Y-78976354D01*
X137286516Y-78976354D02*
X137191278Y-79023973D01*
X138096040Y-78738259D02*
X138715087Y-78738259D01*
X138715087Y-78738259D02*
X138381754Y-79119211D01*
X138381754Y-79119211D02*
X138524611Y-79119211D01*
X138524611Y-79119211D02*
X138619849Y-79166830D01*
X138619849Y-79166830D02*
X138667468Y-79214449D01*
X138667468Y-79214449D02*
X138715087Y-79309687D01*
X138715087Y-79309687D02*
X138715087Y-79547782D01*
X138715087Y-79547782D02*
X138667468Y-79643020D01*
X138667468Y-79643020D02*
X138619849Y-79690640D01*
X138619849Y-79690640D02*
X138524611Y-79738259D01*
X138524611Y-79738259D02*
X138238897Y-79738259D01*
X138238897Y-79738259D02*
X138143659Y-79690640D01*
X138143659Y-79690640D02*
X138096040Y-79643020D01*
X139096040Y-79690640D02*
X139238897Y-79738259D01*
X139238897Y-79738259D02*
X139476992Y-79738259D01*
X139476992Y-79738259D02*
X139572230Y-79690640D01*
X139572230Y-79690640D02*
X139619849Y-79643020D01*
X139619849Y-79643020D02*
X139667468Y-79547782D01*
X139667468Y-79547782D02*
X139667468Y-79452544D01*
X139667468Y-79452544D02*
X139619849Y-79357306D01*
X139619849Y-79357306D02*
X139572230Y-79309687D01*
X139572230Y-79309687D02*
X139476992Y-79262068D01*
X139476992Y-79262068D02*
X139286516Y-79214449D01*
X139286516Y-79214449D02*
X139191278Y-79166830D01*
X139191278Y-79166830D02*
X139143659Y-79119211D01*
X139143659Y-79119211D02*
X139096040Y-79023973D01*
X139096040Y-79023973D02*
X139096040Y-78928735D01*
X139096040Y-78928735D02*
X139143659Y-78833497D01*
X139143659Y-78833497D02*
X139191278Y-78785878D01*
X139191278Y-78785878D02*
X139286516Y-78738259D01*
X139286516Y-78738259D02*
X139524611Y-78738259D01*
X139524611Y-78738259D02*
X139667468Y-78785878D01*
D10*
X103870833Y-60737080D02*
X103823214Y-60784700D01*
X103823214Y-60784700D02*
X103680357Y-60832319D01*
X103680357Y-60832319D02*
X103585119Y-60832319D01*
X103585119Y-60832319D02*
X103442262Y-60784700D01*
X103442262Y-60784700D02*
X103347024Y-60689461D01*
X103347024Y-60689461D02*
X103299405Y-60594223D01*
X103299405Y-60594223D02*
X103251786Y-60403747D01*
X103251786Y-60403747D02*
X103251786Y-60260890D01*
X103251786Y-60260890D02*
X103299405Y-60070414D01*
X103299405Y-60070414D02*
X103347024Y-59975176D01*
X103347024Y-59975176D02*
X103442262Y-59879938D01*
X103442262Y-59879938D02*
X103585119Y-59832319D01*
X103585119Y-59832319D02*
X103680357Y-59832319D01*
X103680357Y-59832319D02*
X103823214Y-59879938D01*
X103823214Y-59879938D02*
X103870833Y-59927557D01*
X104442262Y-60260890D02*
X104347024Y-60213271D01*
X104347024Y-60213271D02*
X104299405Y-60165652D01*
X104299405Y-60165652D02*
X104251786Y-60070414D01*
X104251786Y-60070414D02*
X104251786Y-60022795D01*
X104251786Y-60022795D02*
X104299405Y-59927557D01*
X104299405Y-59927557D02*
X104347024Y-59879938D01*
X104347024Y-59879938D02*
X104442262Y-59832319D01*
X104442262Y-59832319D02*
X104632738Y-59832319D01*
X104632738Y-59832319D02*
X104727976Y-59879938D01*
X104727976Y-59879938D02*
X104775595Y-59927557D01*
X104775595Y-59927557D02*
X104823214Y-60022795D01*
X104823214Y-60022795D02*
X104823214Y-60070414D01*
X104823214Y-60070414D02*
X104775595Y-60165652D01*
X104775595Y-60165652D02*
X104727976Y-60213271D01*
X104727976Y-60213271D02*
X104632738Y-60260890D01*
X104632738Y-60260890D02*
X104442262Y-60260890D01*
X104442262Y-60260890D02*
X104347024Y-60308509D01*
X104347024Y-60308509D02*
X104299405Y-60356128D01*
X104299405Y-60356128D02*
X104251786Y-60451366D01*
X104251786Y-60451366D02*
X104251786Y-60641842D01*
X104251786Y-60641842D02*
X104299405Y-60737080D01*
X104299405Y-60737080D02*
X104347024Y-60784700D01*
X104347024Y-60784700D02*
X104442262Y-60832319D01*
X104442262Y-60832319D02*
X104632738Y-60832319D01*
X104632738Y-60832319D02*
X104727976Y-60784700D01*
X104727976Y-60784700D02*
X104775595Y-60737080D01*
X104775595Y-60737080D02*
X104823214Y-60641842D01*
X104823214Y-60641842D02*
X104823214Y-60451366D01*
X104823214Y-60451366D02*
X104775595Y-60356128D01*
X104775595Y-60356128D02*
X104727976Y-60308509D01*
X104727976Y-60308509D02*
X104632738Y-60260890D01*
X146529580Y-47246666D02*
X146577200Y-47294285D01*
X146577200Y-47294285D02*
X146624819Y-47437142D01*
X146624819Y-47437142D02*
X146624819Y-47532380D01*
X146624819Y-47532380D02*
X146577200Y-47675237D01*
X146577200Y-47675237D02*
X146481961Y-47770475D01*
X146481961Y-47770475D02*
X146386723Y-47818094D01*
X146386723Y-47818094D02*
X146196247Y-47865713D01*
X146196247Y-47865713D02*
X146053390Y-47865713D01*
X146053390Y-47865713D02*
X145862914Y-47818094D01*
X145862914Y-47818094D02*
X145767676Y-47770475D01*
X145767676Y-47770475D02*
X145672438Y-47675237D01*
X145672438Y-47675237D02*
X145624819Y-47532380D01*
X145624819Y-47532380D02*
X145624819Y-47437142D01*
X145624819Y-47437142D02*
X145672438Y-47294285D01*
X145672438Y-47294285D02*
X145720057Y-47246666D01*
X146624819Y-46770475D02*
X146624819Y-46579999D01*
X146624819Y-46579999D02*
X146577200Y-46484761D01*
X146577200Y-46484761D02*
X146529580Y-46437142D01*
X146529580Y-46437142D02*
X146386723Y-46341904D01*
X146386723Y-46341904D02*
X146196247Y-46294285D01*
X146196247Y-46294285D02*
X145815295Y-46294285D01*
X145815295Y-46294285D02*
X145720057Y-46341904D01*
X145720057Y-46341904D02*
X145672438Y-46389523D01*
X145672438Y-46389523D02*
X145624819Y-46484761D01*
X145624819Y-46484761D02*
X145624819Y-46675237D01*
X145624819Y-46675237D02*
X145672438Y-46770475D01*
X145672438Y-46770475D02*
X145720057Y-46818094D01*
X145720057Y-46818094D02*
X145815295Y-46865713D01*
X145815295Y-46865713D02*
X146053390Y-46865713D01*
X146053390Y-46865713D02*
X146148628Y-46818094D01*
X146148628Y-46818094D02*
X146196247Y-46770475D01*
X146196247Y-46770475D02*
X146243866Y-46675237D01*
X146243866Y-46675237D02*
X146243866Y-46484761D01*
X146243866Y-46484761D02*
X146196247Y-46389523D01*
X146196247Y-46389523D02*
X146148628Y-46341904D01*
X146148628Y-46341904D02*
X146053390Y-46294285D01*
X103197142Y-69199580D02*
X103149523Y-69247200D01*
X103149523Y-69247200D02*
X103006666Y-69294819D01*
X103006666Y-69294819D02*
X102911428Y-69294819D01*
X102911428Y-69294819D02*
X102768571Y-69247200D01*
X102768571Y-69247200D02*
X102673333Y-69151961D01*
X102673333Y-69151961D02*
X102625714Y-69056723D01*
X102625714Y-69056723D02*
X102578095Y-68866247D01*
X102578095Y-68866247D02*
X102578095Y-68723390D01*
X102578095Y-68723390D02*
X102625714Y-68532914D01*
X102625714Y-68532914D02*
X102673333Y-68437676D01*
X102673333Y-68437676D02*
X102768571Y-68342438D01*
X102768571Y-68342438D02*
X102911428Y-68294819D01*
X102911428Y-68294819D02*
X103006666Y-68294819D01*
X103006666Y-68294819D02*
X103149523Y-68342438D01*
X103149523Y-68342438D02*
X103197142Y-68390057D01*
X104149523Y-69294819D02*
X103578095Y-69294819D01*
X103863809Y-69294819D02*
X103863809Y-68294819D01*
X103863809Y-68294819D02*
X103768571Y-68437676D01*
X103768571Y-68437676D02*
X103673333Y-68532914D01*
X103673333Y-68532914D02*
X103578095Y-68580533D01*
X104768571Y-68294819D02*
X104863809Y-68294819D01*
X104863809Y-68294819D02*
X104959047Y-68342438D01*
X104959047Y-68342438D02*
X105006666Y-68390057D01*
X105006666Y-68390057D02*
X105054285Y-68485295D01*
X105054285Y-68485295D02*
X105101904Y-68675771D01*
X105101904Y-68675771D02*
X105101904Y-68913866D01*
X105101904Y-68913866D02*
X105054285Y-69104342D01*
X105054285Y-69104342D02*
X105006666Y-69199580D01*
X105006666Y-69199580D02*
X104959047Y-69247200D01*
X104959047Y-69247200D02*
X104863809Y-69294819D01*
X104863809Y-69294819D02*
X104768571Y-69294819D01*
X104768571Y-69294819D02*
X104673333Y-69247200D01*
X104673333Y-69247200D02*
X104625714Y-69199580D01*
X104625714Y-69199580D02*
X104578095Y-69104342D01*
X104578095Y-69104342D02*
X104530476Y-68913866D01*
X104530476Y-68913866D02*
X104530476Y-68675771D01*
X104530476Y-68675771D02*
X104578095Y-68485295D01*
X104578095Y-68485295D02*
X104625714Y-68390057D01*
X104625714Y-68390057D02*
X104673333Y-68342438D01*
X104673333Y-68342438D02*
X104768571Y-68294819D01*
X103940833Y-64132319D02*
X103607500Y-63656128D01*
X103369405Y-64132319D02*
X103369405Y-63132319D01*
X103369405Y-63132319D02*
X103750357Y-63132319D01*
X103750357Y-63132319D02*
X103845595Y-63179938D01*
X103845595Y-63179938D02*
X103893214Y-63227557D01*
X103893214Y-63227557D02*
X103940833Y-63322795D01*
X103940833Y-63322795D02*
X103940833Y-63465652D01*
X103940833Y-63465652D02*
X103893214Y-63560890D01*
X103893214Y-63560890D02*
X103845595Y-63608509D01*
X103845595Y-63608509D02*
X103750357Y-63656128D01*
X103750357Y-63656128D02*
X103369405Y-63656128D01*
X104274167Y-63132319D02*
X104893214Y-63132319D01*
X104893214Y-63132319D02*
X104559881Y-63513271D01*
X104559881Y-63513271D02*
X104702738Y-63513271D01*
X104702738Y-63513271D02*
X104797976Y-63560890D01*
X104797976Y-63560890D02*
X104845595Y-63608509D01*
X104845595Y-63608509D02*
X104893214Y-63703747D01*
X104893214Y-63703747D02*
X104893214Y-63941842D01*
X104893214Y-63941842D02*
X104845595Y-64037080D01*
X104845595Y-64037080D02*
X104797976Y-64084700D01*
X104797976Y-64084700D02*
X104702738Y-64132319D01*
X104702738Y-64132319D02*
X104417024Y-64132319D01*
X104417024Y-64132319D02*
X104321786Y-64084700D01*
X104321786Y-64084700D02*
X104274167Y-64037080D01*
X110766666Y-45984819D02*
X110766666Y-46699104D01*
X110766666Y-46699104D02*
X110719047Y-46841961D01*
X110719047Y-46841961D02*
X110623809Y-46937200D01*
X110623809Y-46937200D02*
X110480952Y-46984819D01*
X110480952Y-46984819D02*
X110385714Y-46984819D01*
X111195238Y-46080057D02*
X111242857Y-46032438D01*
X111242857Y-46032438D02*
X111338095Y-45984819D01*
X111338095Y-45984819D02*
X111576190Y-45984819D01*
X111576190Y-45984819D02*
X111671428Y-46032438D01*
X111671428Y-46032438D02*
X111719047Y-46080057D01*
X111719047Y-46080057D02*
X111766666Y-46175295D01*
X111766666Y-46175295D02*
X111766666Y-46270533D01*
X111766666Y-46270533D02*
X111719047Y-46413390D01*
X111719047Y-46413390D02*
X111147619Y-46984819D01*
X111147619Y-46984819D02*
X111766666Y-46984819D01*
X93903333Y-67374819D02*
X93570000Y-66898628D01*
X93331905Y-67374819D02*
X93331905Y-66374819D01*
X93331905Y-66374819D02*
X93712857Y-66374819D01*
X93712857Y-66374819D02*
X93808095Y-66422438D01*
X93808095Y-66422438D02*
X93855714Y-66470057D01*
X93855714Y-66470057D02*
X93903333Y-66565295D01*
X93903333Y-66565295D02*
X93903333Y-66708152D01*
X93903333Y-66708152D02*
X93855714Y-66803390D01*
X93855714Y-66803390D02*
X93808095Y-66851009D01*
X93808095Y-66851009D02*
X93712857Y-66898628D01*
X93712857Y-66898628D02*
X93331905Y-66898628D01*
X94808095Y-66374819D02*
X94331905Y-66374819D01*
X94331905Y-66374819D02*
X94284286Y-66851009D01*
X94284286Y-66851009D02*
X94331905Y-66803390D01*
X94331905Y-66803390D02*
X94427143Y-66755771D01*
X94427143Y-66755771D02*
X94665238Y-66755771D01*
X94665238Y-66755771D02*
X94760476Y-66803390D01*
X94760476Y-66803390D02*
X94808095Y-66851009D01*
X94808095Y-66851009D02*
X94855714Y-66946247D01*
X94855714Y-66946247D02*
X94855714Y-67184342D01*
X94855714Y-67184342D02*
X94808095Y-67279580D01*
X94808095Y-67279580D02*
X94760476Y-67327200D01*
X94760476Y-67327200D02*
X94665238Y-67374819D01*
X94665238Y-67374819D02*
X94427143Y-67374819D01*
X94427143Y-67374819D02*
X94331905Y-67327200D01*
X94331905Y-67327200D02*
X94284286Y-67279580D01*
X96658333Y-69434819D02*
X96325000Y-68958628D01*
X96086905Y-69434819D02*
X96086905Y-68434819D01*
X96086905Y-68434819D02*
X96467857Y-68434819D01*
X96467857Y-68434819D02*
X96563095Y-68482438D01*
X96563095Y-68482438D02*
X96610714Y-68530057D01*
X96610714Y-68530057D02*
X96658333Y-68625295D01*
X96658333Y-68625295D02*
X96658333Y-68768152D01*
X96658333Y-68768152D02*
X96610714Y-68863390D01*
X96610714Y-68863390D02*
X96563095Y-68911009D01*
X96563095Y-68911009D02*
X96467857Y-68958628D01*
X96467857Y-68958628D02*
X96086905Y-68958628D01*
X97515476Y-68768152D02*
X97515476Y-69434819D01*
X97277381Y-68387200D02*
X97039286Y-69101485D01*
X97039286Y-69101485D02*
X97658333Y-69101485D01*
X132058095Y-48734819D02*
X132058095Y-49544342D01*
X132058095Y-49544342D02*
X132105714Y-49639580D01*
X132105714Y-49639580D02*
X132153333Y-49687200D01*
X132153333Y-49687200D02*
X132248571Y-49734819D01*
X132248571Y-49734819D02*
X132439047Y-49734819D01*
X132439047Y-49734819D02*
X132534285Y-49687200D01*
X132534285Y-49687200D02*
X132581904Y-49639580D01*
X132581904Y-49639580D02*
X132629523Y-49544342D01*
X132629523Y-49544342D02*
X132629523Y-48734819D01*
X133629523Y-49734819D02*
X133058095Y-49734819D01*
X133343809Y-49734819D02*
X133343809Y-48734819D01*
X133343809Y-48734819D02*
X133248571Y-48877676D01*
X133248571Y-48877676D02*
X133153333Y-48972914D01*
X133153333Y-48972914D02*
X133058095Y-49020533D01*
X104143333Y-67674819D02*
X103810000Y-67198628D01*
X103571905Y-67674819D02*
X103571905Y-66674819D01*
X103571905Y-66674819D02*
X103952857Y-66674819D01*
X103952857Y-66674819D02*
X104048095Y-66722438D01*
X104048095Y-66722438D02*
X104095714Y-66770057D01*
X104095714Y-66770057D02*
X104143333Y-66865295D01*
X104143333Y-66865295D02*
X104143333Y-67008152D01*
X104143333Y-67008152D02*
X104095714Y-67103390D01*
X104095714Y-67103390D02*
X104048095Y-67151009D01*
X104048095Y-67151009D02*
X103952857Y-67198628D01*
X103952857Y-67198628D02*
X103571905Y-67198628D01*
X105000476Y-66674819D02*
X104810000Y-66674819D01*
X104810000Y-66674819D02*
X104714762Y-66722438D01*
X104714762Y-66722438D02*
X104667143Y-66770057D01*
X104667143Y-66770057D02*
X104571905Y-66912914D01*
X104571905Y-66912914D02*
X104524286Y-67103390D01*
X104524286Y-67103390D02*
X104524286Y-67484342D01*
X104524286Y-67484342D02*
X104571905Y-67579580D01*
X104571905Y-67579580D02*
X104619524Y-67627200D01*
X104619524Y-67627200D02*
X104714762Y-67674819D01*
X104714762Y-67674819D02*
X104905238Y-67674819D01*
X104905238Y-67674819D02*
X105000476Y-67627200D01*
X105000476Y-67627200D02*
X105048095Y-67579580D01*
X105048095Y-67579580D02*
X105095714Y-67484342D01*
X105095714Y-67484342D02*
X105095714Y-67246247D01*
X105095714Y-67246247D02*
X105048095Y-67151009D01*
X105048095Y-67151009D02*
X105000476Y-67103390D01*
X105000476Y-67103390D02*
X104905238Y-67055771D01*
X104905238Y-67055771D02*
X104714762Y-67055771D01*
X104714762Y-67055771D02*
X104619524Y-67103390D01*
X104619524Y-67103390D02*
X104571905Y-67151009D01*
X104571905Y-67151009D02*
X104524286Y-67246247D01*
X146213333Y-54729580D02*
X146165714Y-54777200D01*
X146165714Y-54777200D02*
X146022857Y-54824819D01*
X146022857Y-54824819D02*
X145927619Y-54824819D01*
X145927619Y-54824819D02*
X145784762Y-54777200D01*
X145784762Y-54777200D02*
X145689524Y-54681961D01*
X145689524Y-54681961D02*
X145641905Y-54586723D01*
X145641905Y-54586723D02*
X145594286Y-54396247D01*
X145594286Y-54396247D02*
X145594286Y-54253390D01*
X145594286Y-54253390D02*
X145641905Y-54062914D01*
X145641905Y-54062914D02*
X145689524Y-53967676D01*
X145689524Y-53967676D02*
X145784762Y-53872438D01*
X145784762Y-53872438D02*
X145927619Y-53824819D01*
X145927619Y-53824819D02*
X146022857Y-53824819D01*
X146022857Y-53824819D02*
X146165714Y-53872438D01*
X146165714Y-53872438D02*
X146213333Y-53920057D01*
X147118095Y-53824819D02*
X146641905Y-53824819D01*
X146641905Y-53824819D02*
X146594286Y-54301009D01*
X146594286Y-54301009D02*
X146641905Y-54253390D01*
X146641905Y-54253390D02*
X146737143Y-54205771D01*
X146737143Y-54205771D02*
X146975238Y-54205771D01*
X146975238Y-54205771D02*
X147070476Y-54253390D01*
X147070476Y-54253390D02*
X147118095Y-54301009D01*
X147118095Y-54301009D02*
X147165714Y-54396247D01*
X147165714Y-54396247D02*
X147165714Y-54634342D01*
X147165714Y-54634342D02*
X147118095Y-54729580D01*
X147118095Y-54729580D02*
X147070476Y-54777200D01*
X147070476Y-54777200D02*
X146975238Y-54824819D01*
X146975238Y-54824819D02*
X146737143Y-54824819D01*
X146737143Y-54824819D02*
X146641905Y-54777200D01*
X146641905Y-54777200D02*
X146594286Y-54729580D01*
D12*
X94183810Y-57783779D02*
X94183810Y-56783779D01*
X95231428Y-57688540D02*
X95183809Y-57736160D01*
X95183809Y-57736160D02*
X95040952Y-57783779D01*
X95040952Y-57783779D02*
X94945714Y-57783779D01*
X94945714Y-57783779D02*
X94802857Y-57736160D01*
X94802857Y-57736160D02*
X94707619Y-57640921D01*
X94707619Y-57640921D02*
X94660000Y-57545683D01*
X94660000Y-57545683D02*
X94612381Y-57355207D01*
X94612381Y-57355207D02*
X94612381Y-57212350D01*
X94612381Y-57212350D02*
X94660000Y-57021874D01*
X94660000Y-57021874D02*
X94707619Y-56926636D01*
X94707619Y-56926636D02*
X94802857Y-56831398D01*
X94802857Y-56831398D02*
X94945714Y-56783779D01*
X94945714Y-56783779D02*
X95040952Y-56783779D01*
X95040952Y-56783779D02*
X95183809Y-56831398D01*
X95183809Y-56831398D02*
X95231428Y-56879017D01*
X95612381Y-56879017D02*
X95660000Y-56831398D01*
X95660000Y-56831398D02*
X95755238Y-56783779D01*
X95755238Y-56783779D02*
X95993333Y-56783779D01*
X95993333Y-56783779D02*
X96088571Y-56831398D01*
X96088571Y-56831398D02*
X96136190Y-56879017D01*
X96136190Y-56879017D02*
X96183809Y-56974255D01*
X96183809Y-56974255D02*
X96183809Y-57069493D01*
X96183809Y-57069493D02*
X96136190Y-57212350D01*
X96136190Y-57212350D02*
X95564762Y-57783779D01*
X95564762Y-57783779D02*
X96183809Y-57783779D01*
D10*
X103820833Y-62317080D02*
X103773214Y-62364700D01*
X103773214Y-62364700D02*
X103630357Y-62412319D01*
X103630357Y-62412319D02*
X103535119Y-62412319D01*
X103535119Y-62412319D02*
X103392262Y-62364700D01*
X103392262Y-62364700D02*
X103297024Y-62269461D01*
X103297024Y-62269461D02*
X103249405Y-62174223D01*
X103249405Y-62174223D02*
X103201786Y-61983747D01*
X103201786Y-61983747D02*
X103201786Y-61840890D01*
X103201786Y-61840890D02*
X103249405Y-61650414D01*
X103249405Y-61650414D02*
X103297024Y-61555176D01*
X103297024Y-61555176D02*
X103392262Y-61459938D01*
X103392262Y-61459938D02*
X103535119Y-61412319D01*
X103535119Y-61412319D02*
X103630357Y-61412319D01*
X103630357Y-61412319D02*
X103773214Y-61459938D01*
X103773214Y-61459938D02*
X103820833Y-61507557D01*
X104677976Y-61412319D02*
X104487500Y-61412319D01*
X104487500Y-61412319D02*
X104392262Y-61459938D01*
X104392262Y-61459938D02*
X104344643Y-61507557D01*
X104344643Y-61507557D02*
X104249405Y-61650414D01*
X104249405Y-61650414D02*
X104201786Y-61840890D01*
X104201786Y-61840890D02*
X104201786Y-62221842D01*
X104201786Y-62221842D02*
X104249405Y-62317080D01*
X104249405Y-62317080D02*
X104297024Y-62364700D01*
X104297024Y-62364700D02*
X104392262Y-62412319D01*
X104392262Y-62412319D02*
X104582738Y-62412319D01*
X104582738Y-62412319D02*
X104677976Y-62364700D01*
X104677976Y-62364700D02*
X104725595Y-62317080D01*
X104725595Y-62317080D02*
X104773214Y-62221842D01*
X104773214Y-62221842D02*
X104773214Y-61983747D01*
X104773214Y-61983747D02*
X104725595Y-61888509D01*
X104725595Y-61888509D02*
X104677976Y-61840890D01*
X104677976Y-61840890D02*
X104582738Y-61793271D01*
X104582738Y-61793271D02*
X104392262Y-61793271D01*
X104392262Y-61793271D02*
X104297024Y-61840890D01*
X104297024Y-61840890D02*
X104249405Y-61888509D01*
X104249405Y-61888509D02*
X104201786Y-61983747D01*
%TO.C,C8*%
D13*
X101276920Y-59817500D02*
X101558080Y-59817500D01*
X101276920Y-60837500D02*
X101558080Y-60837500D01*
%TO.C,C9*%
X140670000Y-44850000D02*
X141870000Y-44850000D01*
X140670000Y-48305563D02*
X140670000Y-44850000D01*
X141120000Y-49860000D02*
X141620000Y-49860000D01*
X141370000Y-50110000D02*
X141370000Y-49610000D01*
X141734437Y-49370000D02*
X140670000Y-48305563D01*
X141734437Y-49370000D02*
X141870000Y-49370000D01*
X144125563Y-49370000D02*
X143990000Y-49370000D01*
X144125563Y-49370000D02*
X145190000Y-48305563D01*
X145190000Y-44850000D02*
X143990000Y-44850000D01*
X145190000Y-48305563D02*
X145190000Y-44850000D01*
%TO.C,C10*%
X106985580Y-68340000D02*
X106704420Y-68340000D01*
X106985580Y-69360000D02*
X106704420Y-69360000D01*
%TO.C,R3*%
X101180242Y-63085000D02*
X101654758Y-63085000D01*
X101180242Y-64130000D02*
X101654758Y-64130000D01*
%TO.C,J2*%
X109720000Y-47530000D02*
X111100000Y-47530000D01*
X109720000Y-48910000D02*
X109720000Y-47530000D01*
X109720000Y-50180000D02*
X109720000Y-83310000D01*
X109720000Y-50180000D02*
X112480000Y-50180000D01*
X109720000Y-83310000D02*
X112480000Y-83310000D01*
X112480000Y-50180000D02*
X112480000Y-83310000D01*
%TO.C,R5*%
X96297742Y-66397500D02*
X96772258Y-66397500D01*
X96297742Y-67442500D02*
X96772258Y-67442500D01*
%TO.C,R4*%
X99122742Y-68427500D02*
X99597258Y-68427500D01*
X99122742Y-69472500D02*
X99597258Y-69472500D01*
%TO.C,U1*%
X124380000Y-62520000D02*
X124380000Y-72570000D01*
X140680000Y-50920000D02*
X124380000Y-50920000D01*
X140680000Y-62520000D02*
X140680000Y-72570000D01*
X140680000Y-77220000D02*
X124380000Y-77220000D01*
D14*
X124185000Y-51770000D02*
G75*
G02*
X123875000Y-51770000I-155000J0D01*
G01*
X123875000Y-51770000D02*
G75*
G02*
X124185000Y-51770000I155000J0D01*
G01*
%TO.C,R6*%
D13*
X106607742Y-66687500D02*
X107082258Y-66687500D01*
X106607742Y-67732500D02*
X107082258Y-67732500D01*
%TO.C,C5*%
X143559420Y-53840000D02*
X143840580Y-53840000D01*
X143559420Y-54860000D02*
X143840580Y-54860000D01*
%TO.C,IC2*%
D15*
X94997500Y-59247500D02*
G75*
G02*
X94797500Y-59247500I-100000J0D01*
G01*
X94797500Y-59247500D02*
G75*
G02*
X94997500Y-59247500I100000J0D01*
G01*
%TO.C,C6*%
D13*
X101558080Y-61457500D02*
X101276920Y-61457500D01*
X101558080Y-62477500D02*
X101276920Y-62477500D01*
%TD*%
M02*
