%TF.GenerationSoftware,KiCad,Pcbnew,10.0.6*%
%TF.CreationDate,2026-10-06T14:23:05+02:00*%
%TF.ProjectId,E80-900M2213S_SE050_Breakout,4538302d-3930-4304-9d32-323133535f53,rev?*%
%TF.SameCoordinates,Original*%
%TF.FileFunction,Copper,L2,Bot*%
%TF.FilePolarity,Positive*%
%FSLAX46Y46*%
G04 Gerber Fmt 4.6, Leading zero omitted, Abs format (unit mm)*
G04 Created by KiCad (PCBNEW 10.0.6) date 2026-10-06 14:23:05*
%MOMM*%
%LPD*%
G01*
G04 APERTURE LIST*
%TA.AperFunction,ComponentPad*%
%ADD10C,0.800000*%
%TD*%
%TA.AperFunction,ComponentPad*%
%ADD11C,5.400000*%
%TD*%
%TA.AperFunction,ComponentPad*%
%ADD12C,2.000000*%
%TD*%
%TA.AperFunction,ComponentPad*%
%ADD13C,2.500000*%
%TD*%
%TA.AperFunction,ComponentPad*%
%ADD14R,1.700000X1.700000*%
%TD*%
%TA.AperFunction,ComponentPad*%
%ADD15C,1.700000*%
%TD*%
%TA.AperFunction,ViaPad*%
%ADD16C,0.600000*%
%TD*%
%TA.AperFunction,Conductor*%
%ADD17C,0.300000*%
%TD*%
%TA.AperFunction,Conductor*%
%ADD18C,0.350000*%
%TD*%
%TA.AperFunction,Conductor*%
%ADD19C,0.200000*%
%TD*%
G04 APERTURE END LIST*
D10*
%TO.P,H2,1,1_1*%
%TO.N,GND*%
X154855000Y-44090000D03*
X155448109Y-42658109D03*
X155448109Y-45521891D03*
X156880000Y-42065000D03*
D11*
X156880000Y-44090000D03*
D10*
X156880000Y-46115000D03*
X158311891Y-42658109D03*
X158311891Y-45521891D03*
X158905000Y-44090000D03*
%TD*%
%TO.P,H1,1,1_1*%
%TO.N,GND*%
X95705000Y-43940000D03*
X96298109Y-42508109D03*
X96298109Y-45371891D03*
X97730000Y-41915000D03*
D11*
X97730000Y-43940000D03*
D10*
X97730000Y-45965000D03*
X99161891Y-42508109D03*
X99161891Y-45371891D03*
X99755000Y-43940000D03*
%TD*%
D12*
%TO.P,SMA1,1,SIG_1*%
%TO.N,Net-(SMA1-SIG)*%
X118530000Y-85130000D03*
D13*
%TO.P,SMA1,2,GND_2*%
%TO.N,GND*%
X115980000Y-87680000D03*
%TO.P,SMA1,3,GND_3*%
X121080000Y-87680000D03*
%TO.P,SMA1,4,GND_4*%
X121080000Y-82580000D03*
%TO.P,SMA1,5,GND_5*%
X115980000Y-82580000D03*
%TD*%
D10*
%TO.P,H4,1,1_1*%
%TO.N,GND*%
X154855000Y-86370000D03*
X155448109Y-84938109D03*
X155448109Y-87801891D03*
X156880000Y-84345000D03*
D11*
X156880000Y-86370000D03*
D10*
X156880000Y-88395000D03*
X158311891Y-84938109D03*
X158311891Y-87801891D03*
X158905000Y-86370000D03*
%TD*%
D12*
%TO.P,SMA2,1,SIG_1*%
%TO.N,Net-(SMA2-SIG)*%
X148290000Y-85130000D03*
D13*
%TO.P,SMA2,2,GND_2*%
%TO.N,GND*%
X145740000Y-87680000D03*
%TO.P,SMA2,3,GND_3*%
X150840000Y-87680000D03*
%TO.P,SMA2,4,GND_4*%
X150840000Y-82580000D03*
%TO.P,SMA2,5,GND_5*%
X145740000Y-82580000D03*
%TD*%
D14*
%TO.P,J2,1,Pin_1_1*%
%TO.N,+3.3V*%
X111100000Y-48910000D03*
D15*
%TO.P,J2,2,Pin_2_2*%
%TO.N,LMISO*%
X111100000Y-51450000D03*
%TO.P,J2,3,Pin_3_3*%
%TO.N,LMOSI*%
X111100000Y-53990000D03*
%TO.P,J2,4,Pin_4_4*%
%TO.N,LSCK*%
X111100000Y-56530000D03*
%TO.P,J2,5,Pin_5_5*%
%TO.N,LNSS*%
X111100000Y-59070000D03*
%TO.P,J2,6,Pin_6_6*%
%TO.N,LBUSY*%
X111100000Y-61610000D03*
%TO.P,J2,7,Pin_7_7*%
%TO.N,LDIO7*%
X111100000Y-64150000D03*
%TO.P,J2,8,Pin_8_8*%
%TO.N,LDIO8*%
X111100000Y-66690000D03*
%TO.P,J2,9,Pin_9_9*%
%TO.N,LDI09*%
X111100000Y-69230000D03*
%TO.P,J2,10,Pin_10_10*%
%TO.N,LNRST*%
X111100000Y-71770000D03*
%TO.P,J2,11,Pin_11_11*%
%TO.N,SE_ENA*%
X111100000Y-74310000D03*
%TO.P,J2,12,Pin_12_12*%
%TO.N,SDA*%
X111100000Y-76850000D03*
%TO.P,J2,13,Pin_13_13*%
%TO.N,SCL*%
X111100000Y-79390000D03*
%TO.P,J2,14,Pin_14_14*%
%TO.N,GND*%
X111100000Y-81930000D03*
%TD*%
D10*
%TO.P,H3,1,1_1*%
%TO.N,GND*%
X95705000Y-86370000D03*
X96298109Y-84938109D03*
X96298109Y-87801891D03*
X97730000Y-84345000D03*
D11*
X97730000Y-86370000D03*
D10*
X97730000Y-88395000D03*
X99161891Y-84938109D03*
X99161891Y-87801891D03*
X99755000Y-86370000D03*
%TD*%
D16*
%TO.N,+3.3V*%
X95790000Y-68390000D03*
X100642500Y-59300000D03*
%TO.N,LDI09*%
X142630000Y-58150000D03*
%TO.N,LNRST*%
X142630000Y-59420000D03*
%TO.N,SDA*%
X98790000Y-66910000D03*
%TO.N,GND*%
X93990000Y-60755477D03*
X120820000Y-72810000D03*
X154260000Y-77200000D03*
X149910000Y-78470000D03*
X145720000Y-79560000D03*
X105205000Y-41550000D03*
X141880000Y-76000000D03*
X140460000Y-78240000D03*
X144850000Y-72800000D03*
X109320000Y-70510000D03*
X149910000Y-79610000D03*
X150850000Y-76510000D03*
X150810000Y-75480000D03*
X141540000Y-45330000D03*
X143880000Y-77090000D03*
X149910000Y-77470000D03*
X150860000Y-78510000D03*
X145620000Y-54390000D03*
X149030000Y-41550000D03*
X109320000Y-75600000D03*
X118460000Y-73510000D03*
X145920000Y-85160000D03*
X120110000Y-79840000D03*
X104010000Y-52620000D03*
X135882500Y-41550000D03*
X148070000Y-72150000D03*
X109340000Y-78160000D03*
X116800000Y-77560000D03*
X143850000Y-72800000D03*
X122820000Y-72810000D03*
X133660000Y-87710000D03*
X121030000Y-78610000D03*
X125480000Y-87710000D03*
X112900000Y-52740000D03*
X124550000Y-78240000D03*
X146640000Y-79560000D03*
X145800000Y-76030000D03*
X142880000Y-77060000D03*
X129880000Y-52680000D03*
X116810000Y-78560000D03*
X158260000Y-67210000D03*
X119350000Y-87430000D03*
X150460000Y-74390000D03*
X146640000Y-78560000D03*
X146000000Y-85870000D03*
X117050000Y-75410000D03*
X122880000Y-75950000D03*
X112880000Y-65420000D03*
X109280000Y-50470000D03*
X145710000Y-77560000D03*
X118352500Y-41550000D03*
X149170000Y-72700000D03*
X102250000Y-58960000D03*
X93990000Y-49983130D03*
X111170000Y-83750000D03*
X133040000Y-52660000D03*
X116800000Y-76560000D03*
X112920000Y-80810000D03*
X115850000Y-75520000D03*
X138940000Y-53000000D03*
X93980000Y-72030000D03*
X142970000Y-43270000D03*
X115860000Y-78520000D03*
X142830000Y-71750000D03*
X144647500Y-41550000D03*
X116100000Y-74370000D03*
X117800000Y-87430000D03*
X109320000Y-52720000D03*
X120110000Y-78610000D03*
X123040000Y-62010000D03*
X98970000Y-63740000D03*
X96797500Y-60647500D03*
X96310000Y-60160000D03*
X96310000Y-61135000D03*
X97285000Y-60160000D03*
X97285000Y-61135000D03*
X120130000Y-80940000D03*
X150860000Y-79510000D03*
X129570000Y-87710000D03*
X125090000Y-45300000D03*
X112930000Y-75760000D03*
X134870000Y-65530000D03*
X112850000Y-62870000D03*
X142000000Y-87650000D03*
X138670000Y-71570000D03*
X112890000Y-60330000D03*
X93990000Y-79876088D03*
X146970000Y-71790000D03*
X148420000Y-73500000D03*
X149810000Y-75490000D03*
X109587500Y-41550000D03*
X143830000Y-71780000D03*
X121820000Y-72810000D03*
X158260000Y-54684000D03*
X134850000Y-68470000D03*
X125930000Y-61970000D03*
X146640000Y-80700000D03*
X133040000Y-55186667D03*
X138960000Y-61960000D03*
X99300000Y-57090000D03*
X93990000Y-76285306D03*
X150850000Y-77510000D03*
X112900000Y-70520000D03*
X120100000Y-77610000D03*
X112890000Y-78140000D03*
X118080000Y-72490000D03*
X104790000Y-71910000D03*
X144460000Y-53250000D03*
X149890000Y-73520000D03*
X158260000Y-73473000D03*
X138630000Y-58950000D03*
X126180000Y-64850000D03*
X93990000Y-64346259D03*
X121030000Y-79610000D03*
X128527500Y-78240000D03*
X137670000Y-57620000D03*
X146670000Y-77530000D03*
X126350000Y-57530000D03*
X138810000Y-68470000D03*
X121030000Y-80750000D03*
X129880000Y-57733333D03*
X126330000Y-52720000D03*
X145720000Y-78560000D03*
X153050000Y-51490000D03*
X113970000Y-41550000D03*
X124450000Y-51760000D03*
X109320000Y-67950000D03*
X144290000Y-45380000D03*
X145770000Y-72800000D03*
X115860000Y-77520000D03*
X109320000Y-55180000D03*
X144830000Y-71780000D03*
X126330000Y-55100000D03*
X122820000Y-71850000D03*
X121000000Y-85090000D03*
X116290000Y-84320000D03*
X118580000Y-87590000D03*
X144880000Y-77090000D03*
X150590000Y-84350000D03*
X142880000Y-76000000D03*
X105560000Y-87820000D03*
X138570000Y-45300000D03*
X149080000Y-87440000D03*
X113110000Y-73050000D03*
X112890000Y-68000000D03*
X115860000Y-79660000D03*
X138830000Y-65530000D03*
X141880000Y-77060000D03*
X130600000Y-71530000D03*
X119600000Y-72980000D03*
X120780000Y-71830000D03*
X120830000Y-84320000D03*
X116810000Y-73410000D03*
X147000000Y-72870000D03*
X120890000Y-85920000D03*
X141940000Y-61980000D03*
X144490000Y-55460000D03*
X116170000Y-85180000D03*
X93990000Y-67937042D03*
X153050000Y-62190000D03*
X103480000Y-60340000D03*
X149430000Y-74470000D03*
X116830000Y-79790000D03*
X121880000Y-75950000D03*
X146650000Y-76590000D03*
X119430000Y-72020000D03*
X141850000Y-72770000D03*
X116910000Y-81030000D03*
X129880000Y-60260000D03*
X109840000Y-45300000D03*
X134710000Y-71570000D03*
X121880000Y-77010000D03*
X116260000Y-85930000D03*
X115850000Y-76520000D03*
X158260000Y-79736000D03*
X112480000Y-87690000D03*
X126470000Y-67970000D03*
X158260000Y-60947000D03*
X145750000Y-71780000D03*
X145720000Y-80700000D03*
X115870000Y-80710000D03*
X104310000Y-47350000D03*
X99590000Y-72930000D03*
X109300000Y-60310000D03*
X150860000Y-80650000D03*
X117640000Y-74280000D03*
X136482500Y-78240000D03*
X120880000Y-75990000D03*
X109290000Y-57790000D03*
X141830000Y-71750000D03*
X105040000Y-68670000D03*
X109350000Y-62830000D03*
X122880000Y-77010000D03*
X148310000Y-87590000D03*
X112890000Y-50440000D03*
X149910000Y-80610000D03*
X103490000Y-61930000D03*
X140590000Y-63470000D03*
X143880000Y-76030000D03*
X121060000Y-77580000D03*
X140600000Y-51930000D03*
X103560000Y-63680000D03*
X106100000Y-69930000D03*
X109290000Y-65400000D03*
X142850000Y-72770000D03*
X109330000Y-72980000D03*
X126480000Y-70070000D03*
X93990000Y-57164694D03*
X146010000Y-84340000D03*
X150620000Y-85910000D03*
X137750000Y-87710000D03*
X112930000Y-57870000D03*
X127117500Y-41550000D03*
X109330000Y-80710000D03*
X122860000Y-53010000D03*
X99090000Y-52360000D03*
X121800000Y-71860000D03*
X129880000Y-55206667D03*
X120220000Y-76600000D03*
X147550000Y-87470000D03*
X131500000Y-41550000D03*
X93990000Y-53573912D03*
X112890000Y-55280000D03*
X132505000Y-78240000D03*
X140265000Y-41550000D03*
X149900000Y-76470000D03*
X150750000Y-85110000D03*
X126470000Y-60310000D03*
X144880000Y-76030000D03*
X122735000Y-41550000D03*
%TO.N,LDIO8*%
X142630000Y-56880000D03*
%TO.N,LDIO7*%
X142630000Y-55610000D03*
%TD*%
%TO.N,+3.3V*%
D17*
X100642500Y-60397500D02*
X100642500Y-59300000D01*
X95760000Y-65280000D02*
X100642500Y-60397500D01*
X95760000Y-68360000D02*
X95760000Y-65280000D01*
X95790000Y-68390000D02*
X95760000Y-68360000D01*
%TO.N,LDI09*%
D18*
X111100000Y-69230000D02*
X127190000Y-69230000D01*
X127190000Y-69230000D02*
X135100000Y-61320000D01*
X142630000Y-58150000D02*
X138270000Y-58150000D01*
X138270000Y-58150000D02*
X135100000Y-61320000D01*
%TO.N,LNRST*%
X135400000Y-63280000D02*
X127730000Y-70950000D01*
X116580000Y-70950000D02*
X115760000Y-71770000D01*
X135975000Y-62715000D02*
X139270000Y-59420000D01*
D19*
X135410000Y-63280000D02*
X135400000Y-63280000D01*
D18*
X127730000Y-70950000D02*
X116580000Y-70950000D01*
X135975000Y-62715000D02*
X135410000Y-63280000D01*
X139270000Y-59420000D02*
X142630000Y-59420000D01*
X115760000Y-71770000D02*
X111100000Y-71770000D01*
%TO.N,SDA*%
D17*
X103630000Y-72300000D02*
X103630000Y-69980000D01*
X100560000Y-66910000D02*
X98790000Y-66910000D01*
X108180000Y-76850000D02*
X103630000Y-72300000D01*
X111100000Y-76850000D02*
X108180000Y-76850000D01*
X103630000Y-69980000D02*
X100560000Y-66910000D01*
%TO.N,LDIO8*%
D18*
X137248529Y-56880000D02*
X127438529Y-66690000D01*
X127438529Y-66690000D02*
X111100000Y-66690000D01*
X142630000Y-56880000D02*
X137248529Y-56880000D01*
%TO.N,LDIO7*%
X142630000Y-55610000D02*
X136320000Y-55610000D01*
X114600000Y-63180000D02*
X113630000Y-64150000D01*
X113630000Y-64150000D02*
X111100000Y-64150000D01*
X136320000Y-55610000D02*
X128750000Y-63180000D01*
X128750000Y-63180000D02*
X114600000Y-63180000D01*
%TD*%
%TA.AperFunction,Conductor*%
%TO.N,GND*%
G36*
X127751064Y-69741367D02*
G01*
X127802636Y-69788506D01*
X127820536Y-69856044D01*
X127799081Y-69922538D01*
X127784261Y-69940437D01*
X127486518Y-70238181D01*
X127425195Y-70271666D01*
X127398837Y-70274500D01*
X116513467Y-70274500D01*
X116382969Y-70300458D01*
X116382959Y-70300461D01*
X116260038Y-70351376D01*
X116260020Y-70351386D01*
X116149398Y-70425301D01*
X116149390Y-70425307D01*
X115516518Y-71058181D01*
X115455195Y-71091666D01*
X115428837Y-71094500D01*
X112341712Y-71094500D01*
X112274673Y-71074815D01*
X112241394Y-71043385D01*
X112130109Y-70890214D01*
X112130105Y-70890209D01*
X111979786Y-70739890D01*
X111807820Y-70614951D01*
X111807115Y-70614591D01*
X111799054Y-70610485D01*
X111748259Y-70562512D01*
X111731463Y-70494692D01*
X111753999Y-70428556D01*
X111799054Y-70389515D01*
X111807816Y-70385051D01*
X111854152Y-70351386D01*
X111979786Y-70260109D01*
X111979788Y-70260106D01*
X111979792Y-70260104D01*
X112130104Y-70109792D01*
X112137666Y-70099382D01*
X112241394Y-69956615D01*
X112296724Y-69913949D01*
X112341712Y-69905500D01*
X127256532Y-69905500D01*
X127256533Y-69905499D01*
X127387036Y-69879541D01*
X127509969Y-69828620D01*
X127567385Y-69790256D01*
X127625671Y-69751311D01*
X127626870Y-69753106D01*
X127682193Y-69729593D01*
X127751064Y-69741367D01*
G37*
%TD.AperFunction*%
%TA.AperFunction,Conductor*%
G36*
X137676875Y-57575185D02*
G01*
X137722630Y-57627989D01*
X137732574Y-57697147D01*
X137703549Y-57760703D01*
X137697517Y-57767181D01*
X134669394Y-60795305D01*
X126946518Y-68518181D01*
X126885195Y-68551666D01*
X126858837Y-68554500D01*
X112341712Y-68554500D01*
X112274673Y-68534815D01*
X112241394Y-68503385D01*
X112130109Y-68350214D01*
X112130105Y-68350209D01*
X111979786Y-68199890D01*
X111807820Y-68074951D01*
X111807115Y-68074591D01*
X111799054Y-68070485D01*
X111748259Y-68022512D01*
X111731463Y-67954692D01*
X111753999Y-67888556D01*
X111799054Y-67849515D01*
X111807816Y-67845051D01*
X111829789Y-67829086D01*
X111979786Y-67720109D01*
X111979788Y-67720106D01*
X111979792Y-67720104D01*
X112130104Y-67569792D01*
X112157717Y-67531786D01*
X112241394Y-67416615D01*
X112296724Y-67373949D01*
X112341712Y-67365500D01*
X127505061Y-67365500D01*
X127505062Y-67365499D01*
X127635565Y-67339541D01*
X127758498Y-67288620D01*
X127869135Y-67214695D01*
X137492011Y-57591819D01*
X137553334Y-57558334D01*
X137579692Y-57555500D01*
X137609836Y-57555500D01*
X137676875Y-57575185D01*
G37*
%TD.AperFunction*%
%TA.AperFunction,Conductor*%
G36*
X129180172Y-63811431D02*
G01*
X129215825Y-63871520D01*
X129213332Y-63941345D01*
X129183358Y-63989868D01*
X127195047Y-65978181D01*
X127133724Y-66011666D01*
X127107366Y-66014500D01*
X112341712Y-66014500D01*
X112274673Y-65994815D01*
X112241394Y-65963385D01*
X112130109Y-65810214D01*
X112130105Y-65810209D01*
X111979786Y-65659890D01*
X111807820Y-65534951D01*
X111805500Y-65533769D01*
X111799054Y-65530485D01*
X111748259Y-65482512D01*
X111731463Y-65414692D01*
X111753999Y-65348556D01*
X111799054Y-65309515D01*
X111807816Y-65305051D01*
X111829789Y-65289086D01*
X111979786Y-65180109D01*
X111979788Y-65180106D01*
X111979792Y-65180104D01*
X112130104Y-65029792D01*
X112172184Y-64971874D01*
X112241394Y-64876615D01*
X112296724Y-64833949D01*
X112341712Y-64825500D01*
X113696532Y-64825500D01*
X113696533Y-64825499D01*
X113827036Y-64799541D01*
X113949969Y-64748620D01*
X114060606Y-64674695D01*
X114843482Y-63891819D01*
X114904805Y-63858334D01*
X114931163Y-63855500D01*
X128816532Y-63855500D01*
X128816533Y-63855499D01*
X128947036Y-63829541D01*
X129048228Y-63787625D01*
X129117692Y-63780157D01*
X129180172Y-63811431D01*
G37*
%TD.AperFunction*%
%TA.AperFunction,Conductor*%
G36*
X138676875Y-58845185D02*
G01*
X138722630Y-58897989D01*
X138732574Y-58967147D01*
X138703549Y-59030703D01*
X138697517Y-59037181D01*
X135544394Y-62190305D01*
X135008167Y-62726530D01*
X134989382Y-62741948D01*
X134964333Y-62758687D01*
X134963136Y-62756897D01*
X134907775Y-62780411D01*
X134838907Y-62768621D01*
X134787346Y-62721469D01*
X134769462Y-62653927D01*
X134790934Y-62587438D01*
X134805737Y-62569564D01*
X138513482Y-58861819D01*
X138574805Y-58828334D01*
X138601163Y-58825500D01*
X138609836Y-58825500D01*
X138676875Y-58845185D01*
G37*
%TD.AperFunction*%
%TA.AperFunction,Conductor*%
G36*
X159930394Y-40060972D02*
G01*
X159960721Y-40063625D01*
X160087755Y-40074739D01*
X160109035Y-40078491D01*
X160226188Y-40109882D01*
X160256369Y-40117969D01*
X160276681Y-40125362D01*
X160414915Y-40189822D01*
X160433633Y-40200629D01*
X160558582Y-40288119D01*
X160575140Y-40302013D01*
X160682986Y-40409859D01*
X160696880Y-40426417D01*
X160784370Y-40551366D01*
X160795177Y-40570084D01*
X160859637Y-40708318D01*
X160867030Y-40728630D01*
X160906507Y-40875961D01*
X160910260Y-40897246D01*
X160924028Y-41054605D01*
X160924500Y-41065413D01*
X160924500Y-89804586D01*
X160924028Y-89815394D01*
X160910260Y-89972753D01*
X160906507Y-89994038D01*
X160867030Y-90141369D01*
X160859637Y-90161681D01*
X160795177Y-90299915D01*
X160784370Y-90318633D01*
X160696880Y-90443582D01*
X160682986Y-90460140D01*
X160575140Y-90567986D01*
X160558582Y-90581880D01*
X160433633Y-90669370D01*
X160414915Y-90680177D01*
X160276681Y-90744637D01*
X160256369Y-90752030D01*
X160109038Y-90791507D01*
X160087753Y-90795260D01*
X159930395Y-90809028D01*
X159919587Y-90809500D01*
X94060413Y-90809500D01*
X94049605Y-90809028D01*
X93892246Y-90795260D01*
X93870961Y-90791507D01*
X93723630Y-90752030D01*
X93703318Y-90744637D01*
X93565084Y-90680177D01*
X93546366Y-90669370D01*
X93421417Y-90581880D01*
X93404859Y-90567986D01*
X93297013Y-90460140D01*
X93283119Y-90443582D01*
X93195629Y-90318633D01*
X93184822Y-90299915D01*
X93120362Y-90161681D01*
X93112969Y-90141369D01*
X93073492Y-89994038D01*
X93069739Y-89972752D01*
X93055972Y-89815393D01*
X93055500Y-89804586D01*
X93055500Y-84998872D01*
X116529500Y-84998872D01*
X116529500Y-85261127D01*
X116556123Y-85463339D01*
X116563730Y-85521116D01*
X116631602Y-85774418D01*
X116631605Y-85774428D01*
X116731953Y-86016690D01*
X116731958Y-86016700D01*
X116863075Y-86243803D01*
X117022718Y-86451851D01*
X117022726Y-86451860D01*
X117208140Y-86637274D01*
X117208148Y-86637281D01*
X117416196Y-86796924D01*
X117643299Y-86928041D01*
X117643309Y-86928046D01*
X117885571Y-87028394D01*
X117885581Y-87028398D01*
X118138884Y-87096270D01*
X118398880Y-87130500D01*
X118398887Y-87130500D01*
X118661113Y-87130500D01*
X118661120Y-87130500D01*
X118921116Y-87096270D01*
X119174419Y-87028398D01*
X119416697Y-86928043D01*
X119643803Y-86796924D01*
X119851851Y-86637282D01*
X119851855Y-86637277D01*
X119851860Y-86637274D01*
X120037274Y-86451860D01*
X120037277Y-86451855D01*
X120037282Y-86451851D01*
X120196924Y-86243803D01*
X120328043Y-86016697D01*
X120428398Y-85774419D01*
X120496270Y-85521116D01*
X120530500Y-85261120D01*
X120530500Y-84998880D01*
X120530499Y-84998872D01*
X146289500Y-84998872D01*
X146289500Y-85261127D01*
X146316123Y-85463339D01*
X146323730Y-85521116D01*
X146391602Y-85774418D01*
X146391605Y-85774428D01*
X146491953Y-86016690D01*
X146491958Y-86016700D01*
X146623075Y-86243803D01*
X146782718Y-86451851D01*
X146782726Y-86451860D01*
X146968140Y-86637274D01*
X146968148Y-86637281D01*
X147176196Y-86796924D01*
X147403299Y-86928041D01*
X147403309Y-86928046D01*
X147645571Y-87028394D01*
X147645581Y-87028398D01*
X147898884Y-87096270D01*
X148158880Y-87130500D01*
X148158887Y-87130500D01*
X148421113Y-87130500D01*
X148421120Y-87130500D01*
X148681116Y-87096270D01*
X148934419Y-87028398D01*
X149176697Y-86928043D01*
X149403803Y-86796924D01*
X149611851Y-86637282D01*
X149611855Y-86637277D01*
X149611860Y-86637274D01*
X149797274Y-86451860D01*
X149797277Y-86451855D01*
X149797282Y-86451851D01*
X149956924Y-86243803D01*
X150088043Y-86016697D01*
X150188398Y-85774419D01*
X150256270Y-85521116D01*
X150290500Y-85261120D01*
X150290500Y-84998880D01*
X150256270Y-84738884D01*
X150188398Y-84485581D01*
X150188394Y-84485571D01*
X150088046Y-84243309D01*
X150088041Y-84243299D01*
X149956924Y-84016196D01*
X149797281Y-83808148D01*
X149797274Y-83808140D01*
X149611860Y-83622726D01*
X149611851Y-83622718D01*
X149403803Y-83463075D01*
X149176700Y-83331958D01*
X149176690Y-83331953D01*
X148934428Y-83231605D01*
X148934421Y-83231603D01*
X148934419Y-83231602D01*
X148681116Y-83163730D01*
X148623339Y-83156123D01*
X148421127Y-83129500D01*
X148421120Y-83129500D01*
X148158880Y-83129500D01*
X148158872Y-83129500D01*
X147927772Y-83159926D01*
X147898884Y-83163730D01*
X147645581Y-83231602D01*
X147645571Y-83231605D01*
X147403309Y-83331953D01*
X147403299Y-83331958D01*
X147176196Y-83463075D01*
X146968148Y-83622718D01*
X146782718Y-83808148D01*
X146623075Y-84016196D01*
X146491958Y-84243299D01*
X146491953Y-84243309D01*
X146391605Y-84485571D01*
X146391602Y-84485581D01*
X146323730Y-84738885D01*
X146289500Y-84998872D01*
X120530499Y-84998872D01*
X120496270Y-84738884D01*
X120428398Y-84485581D01*
X120428394Y-84485571D01*
X120328046Y-84243309D01*
X120328041Y-84243299D01*
X120196924Y-84016196D01*
X120037281Y-83808148D01*
X120037274Y-83808140D01*
X119851860Y-83622726D01*
X119851851Y-83622718D01*
X119643803Y-83463075D01*
X119416700Y-83331958D01*
X119416690Y-83331953D01*
X119174428Y-83231605D01*
X119174421Y-83231603D01*
X119174419Y-83231602D01*
X118921116Y-83163730D01*
X118863339Y-83156123D01*
X118661127Y-83129500D01*
X118661120Y-83129500D01*
X118398880Y-83129500D01*
X118398872Y-83129500D01*
X118167772Y-83159926D01*
X118138884Y-83163730D01*
X117885581Y-83231602D01*
X117885571Y-83231605D01*
X117643309Y-83331953D01*
X117643299Y-83331958D01*
X117416196Y-83463075D01*
X117208148Y-83622718D01*
X117022718Y-83808148D01*
X116863075Y-84016196D01*
X116731958Y-84243299D01*
X116731953Y-84243309D01*
X116631605Y-84485571D01*
X116631602Y-84485581D01*
X116563730Y-84738885D01*
X116529500Y-84998872D01*
X93055500Y-84998872D01*
X93055500Y-68311153D01*
X94989500Y-68311153D01*
X94989500Y-68468846D01*
X95020261Y-68623489D01*
X95020264Y-68623501D01*
X95080602Y-68769172D01*
X95080609Y-68769185D01*
X95168210Y-68900288D01*
X95168213Y-68900292D01*
X95279707Y-69011786D01*
X95279711Y-69011789D01*
X95410814Y-69099390D01*
X95410827Y-69099397D01*
X95556498Y-69159735D01*
X95556503Y-69159737D01*
X95711153Y-69190499D01*
X95711156Y-69190500D01*
X95711158Y-69190500D01*
X95868844Y-69190500D01*
X95868845Y-69190499D01*
X96023497Y-69159737D01*
X96169179Y-69099394D01*
X96300289Y-69011789D01*
X96411789Y-68900289D01*
X96499394Y-68769179D01*
X96559737Y-68623497D01*
X96590500Y-68468842D01*
X96590500Y-68311158D01*
X96590500Y-68311155D01*
X96590499Y-68311153D01*
X96559738Y-68156510D01*
X96559737Y-68156503D01*
X96559735Y-68156498D01*
X96499397Y-68010827D01*
X96499390Y-68010814D01*
X96431398Y-67909057D01*
X96410520Y-67842379D01*
X96410500Y-67840166D01*
X96410500Y-66831153D01*
X97989500Y-66831153D01*
X97989500Y-66988846D01*
X98020261Y-67143489D01*
X98020264Y-67143501D01*
X98080602Y-67289172D01*
X98080609Y-67289185D01*
X98168210Y-67420288D01*
X98168213Y-67420292D01*
X98279707Y-67531786D01*
X98279711Y-67531789D01*
X98410814Y-67619390D01*
X98410827Y-67619397D01*
X98556498Y-67679735D01*
X98556503Y-67679737D01*
X98711153Y-67710499D01*
X98711156Y-67710500D01*
X98711158Y-67710500D01*
X98868844Y-67710500D01*
X98868845Y-67710499D01*
X99023497Y-67679737D01*
X99169179Y-67619394D01*
X99226044Y-67581397D01*
X99292721Y-67560520D01*
X99294935Y-67560500D01*
X100239192Y-67560500D01*
X100306231Y-67580185D01*
X100326873Y-67596819D01*
X102943181Y-70213127D01*
X102976666Y-70274450D01*
X102979500Y-70300808D01*
X102979500Y-72364071D01*
X102995698Y-72445500D01*
X102995698Y-72445501D01*
X103004496Y-72489737D01*
X103004498Y-72489742D01*
X103004499Y-72489744D01*
X103053535Y-72608127D01*
X103124723Y-72714669D01*
X103124726Y-72714673D01*
X107765326Y-77355273D01*
X107765329Y-77355275D01*
X107765331Y-77355277D01*
X107871873Y-77426465D01*
X107990256Y-77475501D01*
X107990260Y-77475501D01*
X107990261Y-77475502D01*
X108115928Y-77500500D01*
X108115931Y-77500500D01*
X109840382Y-77500500D01*
X109907421Y-77520185D01*
X109941099Y-77554591D01*
X109942085Y-77553875D01*
X110069890Y-77729786D01*
X110220213Y-77880109D01*
X110392182Y-78005050D01*
X110400946Y-78009516D01*
X110451742Y-78057491D01*
X110468536Y-78125312D01*
X110445998Y-78191447D01*
X110400946Y-78230484D01*
X110392182Y-78234949D01*
X110220213Y-78359890D01*
X110069890Y-78510213D01*
X109944951Y-78682179D01*
X109848444Y-78871585D01*
X109782753Y-79073760D01*
X109749500Y-79283713D01*
X109749500Y-79496286D01*
X109782753Y-79706239D01*
X109848444Y-79908414D01*
X109944951Y-80097820D01*
X110069890Y-80269786D01*
X110220213Y-80420109D01*
X110392179Y-80545048D01*
X110392181Y-80545049D01*
X110392184Y-80545051D01*
X110581588Y-80641557D01*
X110783757Y-80707246D01*
X110993713Y-80740500D01*
X110993714Y-80740500D01*
X111206286Y-80740500D01*
X111206287Y-80740500D01*
X111416243Y-80707246D01*
X111618412Y-80641557D01*
X111807816Y-80545051D01*
X111829789Y-80529086D01*
X111979786Y-80420109D01*
X111979788Y-80420106D01*
X111979792Y-80420104D01*
X112130104Y-80269792D01*
X112130106Y-80269788D01*
X112130109Y-80269786D01*
X112255048Y-80097820D01*
X112255047Y-80097820D01*
X112255051Y-80097816D01*
X112351557Y-79908412D01*
X112417246Y-79706243D01*
X112450500Y-79496287D01*
X112450500Y-79283713D01*
X112417246Y-79073757D01*
X112351557Y-78871588D01*
X112255051Y-78682184D01*
X112255049Y-78682181D01*
X112255048Y-78682179D01*
X112130109Y-78510213D01*
X111979786Y-78359890D01*
X111807820Y-78234951D01*
X111807115Y-78234591D01*
X111799054Y-78230485D01*
X111748259Y-78182512D01*
X111731463Y-78114692D01*
X111753999Y-78048556D01*
X111799054Y-78009515D01*
X111807816Y-78005051D01*
X111829789Y-77989086D01*
X111979786Y-77880109D01*
X111979788Y-77880106D01*
X111979792Y-77880104D01*
X112130104Y-77729792D01*
X112130106Y-77729788D01*
X112130109Y-77729786D01*
X112255048Y-77557820D01*
X112255047Y-77557820D01*
X112255051Y-77557816D01*
X112351557Y-77368412D01*
X112417246Y-77166243D01*
X112450500Y-76956287D01*
X112450500Y-76743713D01*
X112417246Y-76533757D01*
X112351557Y-76331588D01*
X112255051Y-76142184D01*
X112255049Y-76142181D01*
X112255048Y-76142179D01*
X112130109Y-75970213D01*
X111979786Y-75819890D01*
X111807820Y-75694951D01*
X111807115Y-75694591D01*
X111799054Y-75690485D01*
X111748259Y-75642512D01*
X111731463Y-75574692D01*
X111753999Y-75508556D01*
X111799054Y-75469515D01*
X111807816Y-75465051D01*
X111829789Y-75449086D01*
X111979786Y-75340109D01*
X111979788Y-75340106D01*
X111979792Y-75340104D01*
X112130104Y-75189792D01*
X112130106Y-75189788D01*
X112130109Y-75189786D01*
X112255048Y-75017820D01*
X112255047Y-75017820D01*
X112255051Y-75017816D01*
X112351557Y-74828412D01*
X112417246Y-74626243D01*
X112450500Y-74416287D01*
X112450500Y-74203713D01*
X112417246Y-73993757D01*
X112351557Y-73791588D01*
X112255051Y-73602184D01*
X112255049Y-73602181D01*
X112255048Y-73602179D01*
X112130109Y-73430213D01*
X111979786Y-73279890D01*
X111807820Y-73154951D01*
X111807115Y-73154591D01*
X111799054Y-73150485D01*
X111748259Y-73102512D01*
X111731463Y-73034692D01*
X111753999Y-72968556D01*
X111799054Y-72929515D01*
X111807816Y-72925051D01*
X111829789Y-72909086D01*
X111979786Y-72800109D01*
X111979788Y-72800106D01*
X111979792Y-72800104D01*
X112130104Y-72649792D01*
X112160377Y-72608125D01*
X112241394Y-72496615D01*
X112296724Y-72453949D01*
X112341712Y-72445500D01*
X115826532Y-72445500D01*
X115826533Y-72445499D01*
X115957036Y-72419541D01*
X116079969Y-72368620D01*
X116190606Y-72294695D01*
X116823482Y-71661819D01*
X116884805Y-71628334D01*
X116911163Y-71625500D01*
X127796532Y-71625500D01*
X127796533Y-71625499D01*
X127927036Y-71599541D01*
X128049969Y-71548620D01*
X128160606Y-71474695D01*
X135801834Y-63833465D01*
X135820622Y-63818047D01*
X135830524Y-63811431D01*
X135840606Y-63804695D01*
X136499695Y-63145606D01*
X139513482Y-60131819D01*
X139574805Y-60098334D01*
X139601163Y-60095500D01*
X142162480Y-60095500D01*
X142229519Y-60115185D01*
X142231372Y-60116399D01*
X142250813Y-60129389D01*
X142250815Y-60129390D01*
X142250821Y-60129394D01*
X142250823Y-60129395D01*
X142250827Y-60129397D01*
X142396498Y-60189735D01*
X142396503Y-60189737D01*
X142551153Y-60220499D01*
X142551156Y-60220500D01*
X142551158Y-60220500D01*
X142708844Y-60220500D01*
X142708845Y-60220499D01*
X142863497Y-60189737D01*
X142976166Y-60143067D01*
X143009172Y-60129397D01*
X143009172Y-60129396D01*
X143009179Y-60129394D01*
X143140289Y-60041789D01*
X143251789Y-59930289D01*
X143339394Y-59799179D01*
X143399737Y-59653497D01*
X143430500Y-59498842D01*
X143430500Y-59341158D01*
X143430500Y-59341155D01*
X143430499Y-59341153D01*
X143406630Y-59221158D01*
X143399737Y-59186503D01*
X143399735Y-59186498D01*
X143339397Y-59040827D01*
X143339390Y-59040814D01*
X143251789Y-58909711D01*
X143251786Y-58909707D01*
X143214760Y-58872681D01*
X143181275Y-58811358D01*
X143186259Y-58741666D01*
X143214760Y-58697319D01*
X143251786Y-58660292D01*
X143251789Y-58660289D01*
X143339394Y-58529179D01*
X143399737Y-58383497D01*
X143430500Y-58228842D01*
X143430500Y-58071158D01*
X143430500Y-58071155D01*
X143430499Y-58071153D01*
X143399737Y-57916503D01*
X143397244Y-57910484D01*
X143339397Y-57770827D01*
X143339390Y-57770814D01*
X143251789Y-57639711D01*
X143251786Y-57639707D01*
X143214760Y-57602681D01*
X143181275Y-57541358D01*
X143186259Y-57471666D01*
X143214760Y-57427319D01*
X143251786Y-57390292D01*
X143251789Y-57390289D01*
X143339394Y-57259179D01*
X143399737Y-57113497D01*
X143430500Y-56958842D01*
X143430500Y-56801158D01*
X143430500Y-56801155D01*
X143430499Y-56801153D01*
X143399738Y-56646510D01*
X143399737Y-56646503D01*
X143399735Y-56646498D01*
X143339397Y-56500827D01*
X143339390Y-56500814D01*
X143251789Y-56369711D01*
X143251786Y-56369707D01*
X143214760Y-56332681D01*
X143181275Y-56271358D01*
X143186259Y-56201666D01*
X143214760Y-56157319D01*
X143251786Y-56120292D01*
X143251789Y-56120289D01*
X143339394Y-55989179D01*
X143399737Y-55843497D01*
X143430500Y-55688842D01*
X143430500Y-55531158D01*
X143430500Y-55531155D01*
X143430499Y-55531153D01*
X143399737Y-55376503D01*
X143397244Y-55370484D01*
X143339397Y-55230827D01*
X143339390Y-55230814D01*
X143251789Y-55099711D01*
X143251786Y-55099707D01*
X143140292Y-54988213D01*
X143140288Y-54988210D01*
X143009185Y-54900609D01*
X143009172Y-54900602D01*
X142863501Y-54840264D01*
X142863489Y-54840261D01*
X142708845Y-54809500D01*
X142708842Y-54809500D01*
X142551158Y-54809500D01*
X142551155Y-54809500D01*
X142396510Y-54840261D01*
X142396498Y-54840264D01*
X142250827Y-54900602D01*
X142250813Y-54900610D01*
X142231372Y-54913601D01*
X142164695Y-54934480D01*
X142162480Y-54934500D01*
X136253464Y-54934500D01*
X136122971Y-54960457D01*
X136122963Y-54960459D01*
X136055965Y-54988211D01*
X136000032Y-55011379D01*
X136000030Y-55011380D01*
X135991347Y-55017182D01*
X135986975Y-55020104D01*
X135948151Y-55046044D01*
X135889391Y-55085306D01*
X135889390Y-55085307D01*
X128506518Y-62468181D01*
X128445195Y-62501666D01*
X128418837Y-62504500D01*
X114533467Y-62504500D01*
X114402969Y-62530458D01*
X114402959Y-62530461D01*
X114280038Y-62581376D01*
X114280020Y-62581386D01*
X114169398Y-62655301D01*
X114169390Y-62655307D01*
X113386518Y-63438181D01*
X113325195Y-63471666D01*
X113298837Y-63474500D01*
X112341712Y-63474500D01*
X112274673Y-63454815D01*
X112241394Y-63423385D01*
X112130109Y-63270214D01*
X112130105Y-63270209D01*
X111979786Y-63119890D01*
X111807820Y-62994951D01*
X111807115Y-62994591D01*
X111799054Y-62990485D01*
X111748259Y-62942512D01*
X111731463Y-62874692D01*
X111753999Y-62808556D01*
X111799054Y-62769515D01*
X111807816Y-62765051D01*
X111958867Y-62655307D01*
X111979786Y-62640109D01*
X111979788Y-62640106D01*
X111979792Y-62640104D01*
X112130104Y-62489792D01*
X112130106Y-62489788D01*
X112130109Y-62489786D01*
X112255048Y-62317820D01*
X112255047Y-62317820D01*
X112255051Y-62317816D01*
X112351557Y-62128412D01*
X112417246Y-61926243D01*
X112450500Y-61716287D01*
X112450500Y-61503713D01*
X112417246Y-61293757D01*
X112351557Y-61091588D01*
X112255051Y-60902184D01*
X112255049Y-60902181D01*
X112255048Y-60902179D01*
X112130109Y-60730213D01*
X111979786Y-60579890D01*
X111807820Y-60454951D01*
X111807115Y-60454591D01*
X111799054Y-60450485D01*
X111748259Y-60402512D01*
X111731463Y-60334692D01*
X111753999Y-60268556D01*
X111799054Y-60229515D01*
X111807816Y-60225051D01*
X111936140Y-60131819D01*
X111979786Y-60100109D01*
X111979788Y-60100106D01*
X111979792Y-60100104D01*
X112130104Y-59949792D01*
X112130106Y-59949788D01*
X112130109Y-59949786D01*
X112255048Y-59777820D01*
X112255047Y-59777820D01*
X112255051Y-59777816D01*
X112351557Y-59588412D01*
X112417246Y-59386243D01*
X112450500Y-59176287D01*
X112450500Y-58963713D01*
X112417246Y-58753757D01*
X112351557Y-58551588D01*
X112255051Y-58362184D01*
X112255049Y-58362181D01*
X112255048Y-58362179D01*
X112130109Y-58190213D01*
X111979786Y-58039890D01*
X111807820Y-57914951D01*
X111807115Y-57914591D01*
X111799054Y-57910485D01*
X111748259Y-57862512D01*
X111731463Y-57794692D01*
X111753999Y-57728556D01*
X111799054Y-57689515D01*
X111807816Y-57685051D01*
X111890050Y-57625305D01*
X111979786Y-57560109D01*
X111979788Y-57560106D01*
X111979792Y-57560104D01*
X112130104Y-57409792D01*
X112130106Y-57409788D01*
X112130109Y-57409786D01*
X112255048Y-57237820D01*
X112255047Y-57237820D01*
X112255051Y-57237816D01*
X112351557Y-57048412D01*
X112417246Y-56846243D01*
X112450500Y-56636287D01*
X112450500Y-56423713D01*
X112417246Y-56213757D01*
X112351557Y-56011588D01*
X112255051Y-55822184D01*
X112255049Y-55822181D01*
X112255048Y-55822179D01*
X112130109Y-55650213D01*
X111979786Y-55499890D01*
X111807820Y-55374951D01*
X111807115Y-55374591D01*
X111799054Y-55370485D01*
X111748259Y-55322512D01*
X111731463Y-55254692D01*
X111753999Y-55188556D01*
X111799054Y-55149515D01*
X111807816Y-55145051D01*
X111890050Y-55085305D01*
X111979786Y-55020109D01*
X111979793Y-55020103D01*
X112039439Y-54960457D01*
X112130104Y-54869792D01*
X112130106Y-54869788D01*
X112130109Y-54869786D01*
X112255048Y-54697820D01*
X112255047Y-54697820D01*
X112255051Y-54697816D01*
X112351557Y-54508412D01*
X112417246Y-54306243D01*
X112450500Y-54096287D01*
X112450500Y-53883713D01*
X112417246Y-53673757D01*
X112351557Y-53471588D01*
X112255051Y-53282184D01*
X112255049Y-53282181D01*
X112255048Y-53282179D01*
X112130109Y-53110213D01*
X111979786Y-52959890D01*
X111807820Y-52834951D01*
X111807115Y-52834591D01*
X111799054Y-52830485D01*
X111748259Y-52782512D01*
X111731463Y-52714692D01*
X111753999Y-52648556D01*
X111799054Y-52609515D01*
X111807816Y-52605051D01*
X111829789Y-52589086D01*
X111979786Y-52480109D01*
X111979788Y-52480106D01*
X111979792Y-52480104D01*
X112130104Y-52329792D01*
X112130106Y-52329788D01*
X112130109Y-52329786D01*
X112255048Y-52157820D01*
X112255047Y-52157820D01*
X112255051Y-52157816D01*
X112351557Y-51968412D01*
X112417246Y-51766243D01*
X112450500Y-51556287D01*
X112450500Y-51343713D01*
X112417246Y-51133757D01*
X112351557Y-50931588D01*
X112255051Y-50742184D01*
X112255049Y-50742181D01*
X112255048Y-50742179D01*
X112130109Y-50570213D01*
X112016569Y-50456673D01*
X111983084Y-50395350D01*
X111988068Y-50325658D01*
X112029940Y-50269725D01*
X112060915Y-50252810D01*
X112192331Y-50203796D01*
X112307546Y-50117546D01*
X112393796Y-50002331D01*
X112444091Y-49867483D01*
X112450500Y-49807873D01*
X112450499Y-48012128D01*
X112444091Y-47952517D01*
X112393796Y-47817669D01*
X112393795Y-47817668D01*
X112393793Y-47817664D01*
X112307547Y-47702455D01*
X112307544Y-47702452D01*
X112192335Y-47616206D01*
X112192328Y-47616202D01*
X112057482Y-47565908D01*
X112057483Y-47565908D01*
X111997883Y-47559501D01*
X111997881Y-47559500D01*
X111997873Y-47559500D01*
X111997864Y-47559500D01*
X110202129Y-47559500D01*
X110202123Y-47559501D01*
X110142516Y-47565908D01*
X110007671Y-47616202D01*
X110007664Y-47616206D01*
X109892455Y-47702452D01*
X109892452Y-47702455D01*
X109806206Y-47817664D01*
X109806202Y-47817671D01*
X109755908Y-47952517D01*
X109749501Y-48012116D01*
X109749501Y-48012123D01*
X109749500Y-48012135D01*
X109749500Y-49807870D01*
X109749501Y-49807876D01*
X109755908Y-49867483D01*
X109806202Y-50002328D01*
X109806206Y-50002335D01*
X109892452Y-50117544D01*
X109892455Y-50117547D01*
X110007664Y-50203793D01*
X110007671Y-50203797D01*
X110139082Y-50252810D01*
X110195016Y-50294681D01*
X110219433Y-50360145D01*
X110204582Y-50428418D01*
X110183431Y-50456673D01*
X110069889Y-50570215D01*
X109944951Y-50742179D01*
X109848444Y-50931585D01*
X109782753Y-51133760D01*
X109749500Y-51343713D01*
X109749500Y-51556286D01*
X109782753Y-51766239D01*
X109848444Y-51968414D01*
X109944951Y-52157820D01*
X110069890Y-52329786D01*
X110220213Y-52480109D01*
X110392182Y-52605050D01*
X110400946Y-52609516D01*
X110451742Y-52657491D01*
X110468536Y-52725312D01*
X110445998Y-52791447D01*
X110400946Y-52830484D01*
X110392182Y-52834949D01*
X110220213Y-52959890D01*
X110069890Y-53110213D01*
X109944951Y-53282179D01*
X109848444Y-53471585D01*
X109782753Y-53673760D01*
X109749500Y-53883713D01*
X109749500Y-54096286D01*
X109782753Y-54306239D01*
X109848444Y-54508414D01*
X109944951Y-54697820D01*
X110069890Y-54869786D01*
X110220213Y-55020109D01*
X110392182Y-55145050D01*
X110400946Y-55149516D01*
X110451742Y-55197491D01*
X110468536Y-55265312D01*
X110445998Y-55331447D01*
X110400946Y-55370484D01*
X110392182Y-55374949D01*
X110220213Y-55499890D01*
X110069890Y-55650213D01*
X109944951Y-55822179D01*
X109848444Y-56011585D01*
X109782753Y-56213760D01*
X109749500Y-56423713D01*
X109749500Y-56636286D01*
X109775612Y-56801155D01*
X109782754Y-56846243D01*
X109819340Y-56958844D01*
X109848444Y-57048414D01*
X109944951Y-57237820D01*
X110069890Y-57409786D01*
X110220213Y-57560109D01*
X110392182Y-57685050D01*
X110400946Y-57689516D01*
X110451742Y-57737491D01*
X110468536Y-57805312D01*
X110445998Y-57871447D01*
X110400946Y-57910484D01*
X110392182Y-57914949D01*
X110220213Y-58039890D01*
X110069890Y-58190213D01*
X109944951Y-58362179D01*
X109848444Y-58551585D01*
X109782753Y-58753760D01*
X109749500Y-58963713D01*
X109749500Y-59176286D01*
X109781581Y-59378842D01*
X109782754Y-59386243D01*
X109830601Y-59533501D01*
X109848444Y-59588414D01*
X109944951Y-59777820D01*
X110069890Y-59949786D01*
X110220213Y-60100109D01*
X110392182Y-60225050D01*
X110400946Y-60229516D01*
X110451742Y-60277491D01*
X110468536Y-60345312D01*
X110445998Y-60411447D01*
X110400946Y-60450484D01*
X110392182Y-60454949D01*
X110220213Y-60579890D01*
X110069890Y-60730213D01*
X109944951Y-60902179D01*
X109848444Y-61091585D01*
X109782753Y-61293760D01*
X109749500Y-61503713D01*
X109749500Y-61716286D01*
X109782753Y-61926239D01*
X109848444Y-62128414D01*
X109944951Y-62317820D01*
X110069890Y-62489786D01*
X110220213Y-62640109D01*
X110392182Y-62765050D01*
X110400946Y-62769516D01*
X110451742Y-62817491D01*
X110468536Y-62885312D01*
X110445998Y-62951447D01*
X110400946Y-62990484D01*
X110392182Y-62994949D01*
X110220213Y-63119890D01*
X110069890Y-63270213D01*
X109944951Y-63442179D01*
X109848444Y-63631585D01*
X109782753Y-63833760D01*
X109749500Y-64043713D01*
X109749500Y-64256286D01*
X109782753Y-64466239D01*
X109848444Y-64668414D01*
X109944951Y-64857820D01*
X110069890Y-65029786D01*
X110220213Y-65180109D01*
X110392182Y-65305050D01*
X110400946Y-65309516D01*
X110451742Y-65357491D01*
X110468536Y-65425312D01*
X110445998Y-65491447D01*
X110400946Y-65530484D01*
X110392182Y-65534949D01*
X110220213Y-65659890D01*
X110069890Y-65810213D01*
X109944951Y-65982179D01*
X109848444Y-66171585D01*
X109782753Y-66373760D01*
X109749500Y-66583713D01*
X109749500Y-66796286D01*
X109782753Y-67006239D01*
X109848444Y-67208414D01*
X109944951Y-67397820D01*
X110069890Y-67569786D01*
X110220213Y-67720109D01*
X110392182Y-67845050D01*
X110400946Y-67849516D01*
X110451742Y-67897491D01*
X110468536Y-67965312D01*
X110445998Y-68031447D01*
X110400946Y-68070484D01*
X110392182Y-68074949D01*
X110220213Y-68199890D01*
X110069890Y-68350213D01*
X109944951Y-68522179D01*
X109848444Y-68711585D01*
X109782753Y-68913760D01*
X109767227Y-69011789D01*
X109749500Y-69123713D01*
X109749500Y-69336287D01*
X109782754Y-69546243D01*
X109842328Y-69729593D01*
X109848444Y-69748414D01*
X109944951Y-69937820D01*
X110069890Y-70109786D01*
X110220213Y-70260109D01*
X110392182Y-70385050D01*
X110400946Y-70389516D01*
X110451742Y-70437491D01*
X110468536Y-70505312D01*
X110445998Y-70571447D01*
X110400946Y-70610484D01*
X110392182Y-70614949D01*
X110220213Y-70739890D01*
X110069890Y-70890213D01*
X109944951Y-71062179D01*
X109848444Y-71251585D01*
X109782753Y-71453760D01*
X109749500Y-71663713D01*
X109749500Y-71876286D01*
X109782753Y-72086239D01*
X109848444Y-72288414D01*
X109944951Y-72477820D01*
X110069890Y-72649786D01*
X110220213Y-72800109D01*
X110392182Y-72925050D01*
X110400946Y-72929516D01*
X110451742Y-72977491D01*
X110468536Y-73045312D01*
X110445998Y-73111447D01*
X110400946Y-73150484D01*
X110392182Y-73154949D01*
X110220213Y-73279890D01*
X110069890Y-73430213D01*
X109944951Y-73602179D01*
X109848444Y-73791585D01*
X109782753Y-73993760D01*
X109749500Y-74203713D01*
X109749500Y-74416286D01*
X109782753Y-74626239D01*
X109848444Y-74828414D01*
X109944951Y-75017820D01*
X110069890Y-75189786D01*
X110220213Y-75340109D01*
X110392182Y-75465050D01*
X110400946Y-75469516D01*
X110451742Y-75517491D01*
X110468536Y-75585312D01*
X110445998Y-75651447D01*
X110400946Y-75690484D01*
X110392182Y-75694949D01*
X110220213Y-75819890D01*
X110069890Y-75970213D01*
X109942085Y-76146125D01*
X109940740Y-76145148D01*
X109894295Y-76187166D01*
X109840382Y-76199500D01*
X108500808Y-76199500D01*
X108433769Y-76179815D01*
X108413127Y-76163181D01*
X104316819Y-72066873D01*
X104283334Y-72005550D01*
X104280500Y-71979192D01*
X104280500Y-69915928D01*
X104255502Y-69790261D01*
X104255501Y-69790260D01*
X104255501Y-69790256D01*
X104219737Y-69703914D01*
X104206466Y-69671874D01*
X104135277Y-69565331D01*
X104135272Y-69565325D01*
X100974673Y-66404726D01*
X100974669Y-66404723D01*
X100868127Y-66333535D01*
X100749744Y-66284499D01*
X100749738Y-66284497D01*
X100624071Y-66259500D01*
X100624069Y-66259500D01*
X99294935Y-66259500D01*
X99227896Y-66239815D01*
X99226090Y-66238633D01*
X99169179Y-66200606D01*
X99169172Y-66200602D01*
X99023501Y-66140264D01*
X99023489Y-66140261D01*
X98868845Y-66109500D01*
X98868842Y-66109500D01*
X98711158Y-66109500D01*
X98711155Y-66109500D01*
X98556510Y-66140261D01*
X98556498Y-66140264D01*
X98410827Y-66200602D01*
X98410814Y-66200609D01*
X98279711Y-66288210D01*
X98279707Y-66288213D01*
X98168213Y-66399707D01*
X98168210Y-66399711D01*
X98080609Y-66530814D01*
X98080602Y-66530827D01*
X98020264Y-66676498D01*
X98020261Y-66676510D01*
X97989500Y-66831153D01*
X96410500Y-66831153D01*
X96410500Y-65600808D01*
X96430185Y-65533769D01*
X96446819Y-65513127D01*
X101147773Y-60812173D01*
X101147777Y-60812169D01*
X101218965Y-60705627D01*
X101242856Y-60647949D01*
X101268001Y-60587244D01*
X101293000Y-60461569D01*
X101293000Y-59804935D01*
X101312685Y-59737896D01*
X101313866Y-59736090D01*
X101351894Y-59679179D01*
X101412237Y-59533497D01*
X101443000Y-59378842D01*
X101443000Y-59221158D01*
X101443000Y-59221155D01*
X101442999Y-59221153D01*
X101436106Y-59186498D01*
X101412237Y-59066503D01*
X101371083Y-58967147D01*
X101351897Y-58920827D01*
X101351890Y-58920814D01*
X101264289Y-58789711D01*
X101264286Y-58789707D01*
X101152792Y-58678213D01*
X101152788Y-58678210D01*
X101021685Y-58590609D01*
X101021672Y-58590602D01*
X100876001Y-58530264D01*
X100875989Y-58530261D01*
X100721345Y-58499500D01*
X100721342Y-58499500D01*
X100563658Y-58499500D01*
X100563655Y-58499500D01*
X100409010Y-58530261D01*
X100408998Y-58530264D01*
X100263327Y-58590602D01*
X100263314Y-58590609D01*
X100132211Y-58678210D01*
X100132207Y-58678213D01*
X100020713Y-58789707D01*
X100020710Y-58789711D01*
X99933109Y-58920814D01*
X99933102Y-58920827D01*
X99872764Y-59066498D01*
X99872761Y-59066510D01*
X99842000Y-59221153D01*
X99842000Y-59378846D01*
X99872761Y-59533489D01*
X99872764Y-59533501D01*
X99933102Y-59679172D01*
X99933106Y-59679179D01*
X99971102Y-59736044D01*
X99991980Y-59802721D01*
X99992000Y-59804935D01*
X99992000Y-60076691D01*
X99972315Y-60143730D01*
X99955681Y-60164372D01*
X95254727Y-64865325D01*
X95254724Y-64865328D01*
X95213424Y-64927138D01*
X95213425Y-64927139D01*
X95183534Y-64971874D01*
X95134499Y-65090255D01*
X95134497Y-65090261D01*
X95109500Y-65215928D01*
X95109500Y-67929963D01*
X95089815Y-67997002D01*
X95088602Y-67998853D01*
X95080606Y-68010818D01*
X95080604Y-68010822D01*
X95020264Y-68156498D01*
X95020261Y-68156510D01*
X94989500Y-68311153D01*
X93055500Y-68311153D01*
X93055500Y-41065413D01*
X93055972Y-41054606D01*
X93061265Y-40994108D01*
X93069739Y-40897242D01*
X93073490Y-40875966D01*
X93112969Y-40728627D01*
X93120362Y-40708318D01*
X93184823Y-40570081D01*
X93195629Y-40551366D01*
X93283119Y-40426417D01*
X93297007Y-40409865D01*
X93404865Y-40302007D01*
X93421417Y-40288119D01*
X93546366Y-40200629D01*
X93565081Y-40189823D01*
X93703320Y-40125361D01*
X93723627Y-40117969D01*
X93870966Y-40078490D01*
X93892242Y-40074739D01*
X94024885Y-40063134D01*
X94049606Y-40060972D01*
X94060413Y-40060500D01*
X94120892Y-40060500D01*
X159859108Y-40060500D01*
X159919587Y-40060500D01*
X159930394Y-40060972D01*
G37*
%TD.AperFunction*%
%TD*%
M02*
