%TF.GenerationSoftware,KiCad,Pcbnew,10.0.6*%
%TF.CreationDate,2026-09-26T02:43:19+02:00*%
%TF.ProjectId,E80-900M2213S_SE050_Breakout,4538302d-3930-4304-9d32-323133535f53,rev?*%
%TF.SameCoordinates,Original*%
%TF.FileFunction,Drillmap*%
%TF.FilePolarity,Positive*%
%FSLAX45Y45*%
G04 Gerber Fmt 4.5, Leading zero omitted, Abs format (unit mm)*
G04 Created by KiCad (PCBNEW 10.0.6) date 2026-09-26 02:43:19*
%MOMM*%
%LPD*%
G01*
G04 APERTURE LIST*
%ADD10C,0.050000*%
%ADD11C,0.200000*%
G04 APERTURE END LIST*
D10*
X9255500Y-4106000D02*
X9255500Y-4106000D01*
G75*
G02*
X9405500Y-3956000I150000J0D01*
G01*
X15992500Y-3956000D01*
G75*
G02*
X16142500Y-4106000I0J-150000D01*
G01*
X16142500Y-8981000D01*
G75*
G02*
X15992500Y-9131000I-150000J0D01*
G01*
X9405500Y-9131000D01*
G75*
G02*
X9255500Y-8981000I0J150000D01*
G01*
X9255500Y-4106000D01*
D11*
X9513777Y-9444984D02*
X9513777Y-9244984D01*
X9513777Y-9244984D02*
X9561396Y-9244984D01*
X9561396Y-9244984D02*
X9589967Y-9254508D01*
X9589967Y-9254508D02*
X9609015Y-9273555D01*
X9609015Y-9273555D02*
X9618539Y-9292603D01*
X9618539Y-9292603D02*
X9628063Y-9330698D01*
X9628063Y-9330698D02*
X9628063Y-9359270D01*
X9628063Y-9359270D02*
X9618539Y-9397365D01*
X9618539Y-9397365D02*
X9609015Y-9416412D01*
X9609015Y-9416412D02*
X9589967Y-9435460D01*
X9589967Y-9435460D02*
X9561396Y-9444984D01*
X9561396Y-9444984D02*
X9513777Y-9444984D01*
X9713777Y-9444984D02*
X9713777Y-9311650D01*
X9713777Y-9349746D02*
X9723301Y-9330698D01*
X9723301Y-9330698D02*
X9732824Y-9321174D01*
X9732824Y-9321174D02*
X9751872Y-9311650D01*
X9751872Y-9311650D02*
X9770920Y-9311650D01*
X9837586Y-9444984D02*
X9837586Y-9311650D01*
X9837586Y-9244984D02*
X9828063Y-9254508D01*
X9828063Y-9254508D02*
X9837586Y-9264031D01*
X9837586Y-9264031D02*
X9847110Y-9254508D01*
X9847110Y-9254508D02*
X9837586Y-9244984D01*
X9837586Y-9244984D02*
X9837586Y-9264031D01*
X9961396Y-9444984D02*
X9942348Y-9435460D01*
X9942348Y-9435460D02*
X9932824Y-9416412D01*
X9932824Y-9416412D02*
X9932824Y-9244984D01*
X10066158Y-9444984D02*
X10047110Y-9435460D01*
X10047110Y-9435460D02*
X10037586Y-9416412D01*
X10037586Y-9416412D02*
X10037586Y-9244984D01*
X10294729Y-9444984D02*
X10294729Y-9244984D01*
X10294729Y-9244984D02*
X10361396Y-9387841D01*
X10361396Y-9387841D02*
X10428063Y-9244984D01*
X10428063Y-9244984D02*
X10428063Y-9444984D01*
X10609015Y-9444984D02*
X10609015Y-9340222D01*
X10609015Y-9340222D02*
X10599491Y-9321174D01*
X10599491Y-9321174D02*
X10580444Y-9311650D01*
X10580444Y-9311650D02*
X10542348Y-9311650D01*
X10542348Y-9311650D02*
X10523301Y-9321174D01*
X10609015Y-9435460D02*
X10589967Y-9444984D01*
X10589967Y-9444984D02*
X10542348Y-9444984D01*
X10542348Y-9444984D02*
X10523301Y-9435460D01*
X10523301Y-9435460D02*
X10513777Y-9416412D01*
X10513777Y-9416412D02*
X10513777Y-9397365D01*
X10513777Y-9397365D02*
X10523301Y-9378317D01*
X10523301Y-9378317D02*
X10542348Y-9368793D01*
X10542348Y-9368793D02*
X10589967Y-9368793D01*
X10589967Y-9368793D02*
X10609015Y-9359270D01*
X10704253Y-9311650D02*
X10704253Y-9511650D01*
X10704253Y-9321174D02*
X10723301Y-9311650D01*
X10723301Y-9311650D02*
X10761396Y-9311650D01*
X10761396Y-9311650D02*
X10780444Y-9321174D01*
X10780444Y-9321174D02*
X10789967Y-9330698D01*
X10789967Y-9330698D02*
X10799491Y-9349746D01*
X10799491Y-9349746D02*
X10799491Y-9406889D01*
X10799491Y-9406889D02*
X10789967Y-9425936D01*
X10789967Y-9425936D02*
X10780444Y-9435460D01*
X10780444Y-9435460D02*
X10761396Y-9444984D01*
X10761396Y-9444984D02*
X10723301Y-9444984D01*
X10723301Y-9444984D02*
X10704253Y-9435460D01*
X10885205Y-9425936D02*
X10894729Y-9435460D01*
X10894729Y-9435460D02*
X10885205Y-9444984D01*
X10885205Y-9444984D02*
X10875682Y-9435460D01*
X10875682Y-9435460D02*
X10885205Y-9425936D01*
X10885205Y-9425936D02*
X10885205Y-9444984D01*
X10885205Y-9321174D02*
X10894729Y-9330698D01*
X10894729Y-9330698D02*
X10885205Y-9340222D01*
X10885205Y-9340222D02*
X10875682Y-9330698D01*
X10875682Y-9330698D02*
X10885205Y-9321174D01*
X10885205Y-9321174D02*
X10885205Y-9340222D01*
M02*
